<?xml version="1.0" standalone="no"?>
<!DOCTYPE svg PUBLIC "-//W3C//DTD SVG 1.1//EN" "http://www.w3.org/Graphics/SVG/1.1/DTD/svg11.dtd" >
<svg>
<metadata>
Created by FontForge 20090914 at Fri Dec 17 12:14:51 2021
 By www-data
HTF Gotham\252 Copr. 2000 The Hoefler Type Foundry, Inc. Info: www.typography.com
</metadata>
<defs>
<font id="Gotham-Book" horiz-adv-x="500" >
  <font-face 
    font-family="Gotham"
    font-weight="400"
    font-stretch="normal"
    units-per-em="1000"
    panose-1="2 0 5 4 5 0 0 2 0 4"
    ascent="800"
    descent="-200"
    x-height="517"
    cap-height="700"
    bbox="-68 -164.694 1158 907"
    underline-thickness="20"
    underline-position="-123"
    unicode-range="U+0020-U+FB02"
  />
<missing-glyph 
 />
    <glyph glyph-name=".notdef" 
 />
    <glyph glyph-name="space" unicode=" " horiz-adv-x="300" 
 />
    <glyph glyph-name="exclam" unicode="!" horiz-adv-x="271" 
d="M91 700v-57l23 -445h43l24 445v57h-90zM182 0v105h-92v-105h92z" />
    <glyph glyph-name="quotedbl" unicode="&#x22;" horiz-adv-x="440" 
d="M260 428h42l81 267v5h-92zM65 428h42l81 267v5h-93z" />
    <glyph glyph-name="numbersign" unicode="#" horiz-adv-x="700" 
d="M654 458v69h-108l29 173h-70l-30 -173h-190l29 173h-70l-30 -173h-130v-69h119l-37 -212h-121v-69h109l-30 -177h70l31 177h190l-30 -177h70l31 177h129v69h-118l37 212h120zM463 458l-36 -212h-190l36 212h190z" />
    <glyph glyph-name="dollar" unicode="$" horiz-adv-x="636" 
d="M569 189c0 50.667 -16.998 91.498 -50.998 122.498s-89 55.167 -165 72.5v246c26.667 -4.66699 52.5 -12.667 77.5 -24s49.5 -27.333 73.5 -48l43 60c-29.333 22.667 -59 40.834 -89 54.501s-64 22.167 -102 25.5v60h-64v-58c-30.667 -1.33301 -58.834 -7 -84.501 -17
s-47.834 -23.167 -66.501 -39.5s-33.167 -35.333 -43.5 -57s-15.5 -45.5 -15.5 -71.5c0 -52.667 17 -94 51 -124s88 -53.667 162 -71v-250c-38 4 -72.333 14 -103 30s-61 37.667 -91 65l-45 -60c35.333 -30 72.333 -53.667 111 -71s80.334 -28 125.001 -32v-100h64v98
c31.333 2 60.166 7.83301 86.499 17.5s48.833 22.834 67.5 39.501s33.167 36 43.5 58s15.5 46.667 15.5 74zM295.002 397.998c-27.333 6.66699 -49.834 14.168 -67.501 22.501s-31.5 17.5 -41.5 27.5s-17 21 -21 33s-6 25 -6 39c0 15.333 3.16699 29.666 9.5 42.999
s15.333 25 27 35s25.834 18.167 42.501 24.5s35.667 9.83301 57 10.5v-235zM492.001 183.999c0 -33.333 -12.501 -60.667 -37.501 -82s-58.833 -33 -101.5 -35v239c28 -6.66699 50.833 -14 68.5 -22s31.834 -17 42.501 -27s18 -21 22 -33s6 -25.333 6 -40z" />
    <glyph glyph-name="percent" unicode="%" horiz-adv-x="834" 
d="M369 530c0 24 -3.83398 46.667 -11.501 68s-18.334 40.166 -32.001 56.499s-30.167 29.333 -49.5 39s-40.666 14.5 -63.999 14.5c-24 0 -45.833 -4.83301 -65.5 -14.5s-36.5 -22.834 -50.5 -39.501s-24.833 -35.834 -32.5 -57.501s-11.5 -44.5 -11.5 -68.5
s3.83301 -46.667 11.5 -68s18.334 -40.166 32.001 -56.499s30.167 -29.333 49.5 -39s41 -14.5 65 -14.5s45.667 4.83301 65 14.5s36 22.834 50 39.501s24.833 35.834 32.5 57.501s11.5 44.5 11.5 68.5zM708.999 700h-71l-514 -700h72zM780.999 172
c0 24 -3.66895 46.667 -11.002 68s-17.833 40.166 -31.5 56.499s-30.167 29.333 -49.5 39s-41 14.5 -65 14.5s-45.667 -4.83301 -65 -14.5s-36 -22.834 -50 -39.501s-24.833 -35.834 -32.5 -57.501s-11.5 -44.5 -11.5 -68.5s3.83301 -46.667 11.5 -68
s18.334 -40.166 32.001 -56.499s30.167 -29.333 49.5 -39s40.666 -14.5 63.999 -14.5c24 0 45.833 4.83301 65.5 14.5s36.334 22.834 50.001 39.501s24.334 35.834 32.001 57.501s11.5 44.5 11.5 68.5zM302.997 528c0 -17.333 -2.16602 -33.333 -6.49902 -48
s-10.5 -27.5 -18.5 -38.5s-17.667 -19.667 -29 -26s-23.666 -9.5 -36.999 -9.5s-25.5 3.16699 -36.5 9.5s-20.833 15 -29.5 26s-15.334 24 -20.001 39s-7 31.5 -7 49.5c0 16.667 2.16699 32.5 6.5 47.5s10.5 28 18.5 39s17.5 19.667 28.5 26s23.5 9.5 37.5 9.5
c12.667 0 24.667 -3.16699 36 -9.5s21.166 -15 29.499 -26s15 -24 20 -39s7.5 -31.5 7.5 -49.5zM714.998 170c0 -17.333 -2.16602 -33.333 -6.49902 -48s-10.5 -27.5 -18.5 -38.5s-17.5 -19.667 -28.5 -26s-23.5 -9.5 -37.5 -9.5c-13.333 0 -25.5 3.16699 -36.5 9.5
s-20.833 15 -29.5 26s-15.334 24 -20.001 39s-7 31.5 -7 49.5c0 16.667 2.16699 32.5 6.5 47.5s10.5 28 18.5 39s17.667 19.667 29 26s23.666 9.5 36.999 9.5c12.667 0 24.667 -3.16699 36 -9.5s21.333 -15 30 -26s15.334 -24 20.001 -39s7 -31.5 7 -49.5z" />
    <glyph glyph-name="ampersand" unicode="&#x26;" horiz-adv-x="696" 
d="M664 32l-121.996 124.998c19.333 25.333 37.166 52.666 53.499 81.999s32.166 60.666 47.499 93.999l-65 30c-12.667 -29.333 -26 -57 -40 -83s-28.667 -50.333 -44 -73l-160 163c51.333 18 91.666 41.5 120.999 70.5s44 66.5 44 112.5c0 22 -4.33301 42.667 -13 62
s-20.5 36.166 -35.5 50.499s-32.833 25.666 -53.5 33.999s-43.334 12.5 -68.001 12.5c-28 0 -53.333 -4.33301 -76 -13s-42 -20.5 -58 -35.5s-28.5 -32.667 -37.5 -53s-13.5 -42.166 -13.5 -65.499c0 -28 5.66699 -53.833 17 -77.5s29 -49.5 53 -77.5
c-54 -21.333 -95.667 -48.666 -125 -81.999s-44 -73.666 -44 -120.999c0 -29.333 5.5 -56.166 16.5 -80.499s26.333 -45.166 46 -62.499s43 -30.666 70 -39.999s56.167 -14 87.5 -14c46 0 87.667 9.5 125 28.5s72 45.833 104 80.5l110 -113zM425.004 548.998
c0 -31.333 -11.334 -57.667 -34.001 -79s-56.334 -39.666 -101.001 -54.999c-13.333 14 -24.5 26.833 -33.5 38.5s-16.167 22.5 -21.5 32.5s-9.16602 19.667 -11.499 29s-3.5 19.333 -3.5 30c0 29.333 9.66699 53.666 29 72.999s45 29 77 29
c28.667 0 52.334 -9.16699 71.001 -27.5s28 -41.833 28 -70.5zM446.003 147.997c-25.333 -28 -52.5 -50.167 -81.5 -66.5s-60.167 -24.5 -93.5 -24.5c-21.333 0 -41 3.33301 -59 10s-33.5 16 -46.5 28s-23 26 -30 42s-10.5 33.667 -10.5 53c0 30 10.667 58.333 32 85
s55.333 48.667 102 66z" />
    <glyph glyph-name="quotesingle" unicode="'" horiz-adv-x="245" 
d="M65 428h43l81 267v5h-94z" />
    <glyph glyph-name="parenleft" unicode="(" horiz-adv-x="434" 
d="M378 664l-33 51c-89.333 -50 -157.833 -110.667 -205.5 -182s-71.5 -153.333 -71.5 -246s23.833 -174.667 71.5 -246s116.167 -132 205.5 -182l33 51c-76.667 48.667 -134.5 103.5 -173.5 164.5s-58.5 131.833 -58.5 212.5s19.5 151.5 58.5 212.5
s96.833 115.833 173.5 164.5z" />
    <glyph glyph-name="parenright" unicode=")" horiz-adv-x="434" 
d="M56 664c76.667 -48.667 134.5 -103.5 173.5 -164.5s58.5 -131.833 58.5 -212.5s-19.5 -151.5 -58.5 -212.5s-96.833 -115.833 -173.5 -164.5l33 -51c89.333 50 157.833 110.667 205.5 182s71.5 153.333 71.5 246s-23.833 174.667 -71.5 246s-116.167 132 -205.5 182z" />
    <glyph glyph-name="asterisk" unicode="*" horiz-adv-x="430" 
d="M361 496l-116 53l116 54l-27 46l-103 -72l10 125h-52l10 -125l-103 72l-27 -46l116 -54l-116 -53l27 -47l103 73l-10 -125h52l-10 125l103 -73z" />
    <glyph glyph-name="plus" unicode="+" horiz-adv-x="640" 
d="M283 388h-208v-72h208v-206h74v206h208v72h-208v206h-74v-206z" />
    <glyph glyph-name="comma" unicode="," horiz-adv-x="245" 
d="M46 -87l12 -35c38 8.66699 66 23.5 84 44.5s27 51.833 27 92.5v90h-92v-105h36c2 -21.333 -2.33301 -38.833 -13 -52.5s-28.667 -25.167 -54 -34.5z" />
    <glyph glyph-name="hyphen" unicode="-" horiz-adv-x="408" 
d="M343 260v81h-278v-81h278z" />
    <glyph glyph-name="period" unicode="." horiz-adv-x="245" 
d="M169 0v105h-92v-105h92z" />
    <glyph glyph-name="slash" unicode="/" horiz-adv-x="508" 
d="M443 798l-464 -926h71l464 926h-71z" />
    <glyph glyph-name="zero" unicode="0" horiz-adv-x="715" 
d="M653 351c0 49.333 -6.83301 95.833 -20.5 139.5s-33.334 82 -59.001 115s-56.667 59 -93 78s-76.833 28.5 -121.5 28.5c-45.333 0 -86.333 -9.66699 -123 -29s-67.834 -45.5 -93.501 -78.5s-45.5 -71.5 -59.5 -115.5s-21 -90.667 -21 -140s6.83301 -95.833 20.5 -139.5
s33.334 -82 59.001 -115s56.667 -59 93 -78s77.166 -28.5 122.499 -28.5c44.667 0 85.334 9.66699 122.001 29s67.834 45.5 93.501 78.5s45.5 71.5 59.5 115.5s21 90.667 21 140zM571 349c0 -38.667 -4.83105 -75.501 -14.498 -110.501s-23.667 -65.667 -42 -92
s-40.666 -47.333 -66.999 -63s-55.833 -23.5 -88.5 -23.5s-62.334 7.83301 -89.001 23.5s-49.334 36.834 -68.001 63.501s-33 57.667 -43 93s-15 72.333 -15 111s5 75.5 15 110.5s24.167 65.667 42.5 92s40.666 47.333 66.999 63s55.833 23.5 88.5 23.5s62.167 -8 88.5 -24
s48.833 -37.333 67.5 -64s33 -57.5 43 -92.5s15 -71.833 15 -110.5z" />
    <glyph glyph-name="one" unicode="1" horiz-adv-x="358" 
d="M28 646l19 -64l132 41v-623h78v705h-58z" />
    <glyph glyph-name="two" unicode="2" horiz-adv-x="599" 
d="M307 639c18.667 0 36.668 -3.16504 54.001 -9.49805s32.333 -15.333 45 -27s22.834 -25.667 30.501 -42s11.5 -34.833 11.5 -55.5c0 -17.333 -2.5 -34.166 -7.5 -50.499s-13.333 -33 -25 -50s-26.834 -35.167 -45.501 -54.5s-41.334 -41 -68.001 -65l-254 -224v-61h489
v72h-371l187 166c30.667 26.667 57 51.167 79 73.5s40.333 44 55 65s25.5 42.167 32.5 63.5s10.5 45 10.5 71c0 28.667 -5.33301 55.167 -16 79.5s-25.667 45.333 -45 63s-42.166 31.5 -68.499 41.5s-55.5 15 -87.5 15c-30.667 0 -58.167 -3.33301 -82.5 -10
s-46.333 -16.334 -66 -29.001s-37.834 -28.334 -54.501 -47.001s-33 -39.667 -49 -63l58 -42c28 39.333 56.333 69.166 85 89.499s63 30.5 103 30.5z" />
    <glyph glyph-name="three" unicode="3" horiz-adv-x="613" 
d="M429 629l-220.999 -249.001l16 -47h45c58 0 105.167 -11.667 141.5 -35s54.5 -57 54.5 -101c0 -20.667 -4 -39.5 -12 -56.5s-18.833 -31.5 -32.5 -43.5s-29.834 -21.167 -48.501 -27.5s-38.667 -9.5 -60 -9.5c-43.333 0 -81.5 9 -114.5 27s-63.167 43.667 -90.5 77
l-57 -51c28.667 -37.333 64.667 -67.5 108 -90.5s94.333 -34.5 153 -34.5c32.667 0 63.167 5.16699 91.5 15.5s53 24.833 74 43.5s37.667 41 50 67s18.5 54.667 18.5 86c0 32 -6.33301 60 -19 84s-29.5 44 -50.5 60s-45.5 28.333 -73.5 37s-57.333 14.334 -88 17.001
l220 244v58h-447v-71h342z" />
    <glyph glyph-name="four" unicode="4" horiz-adv-x="671" 
d="M439 705l-396 -482l20 -57h369v-166h76v166h109v66h-109v473h-69zM432 232h-294l294 361v-361z" />
    <glyph glyph-name="five" unicode="5" horiz-adv-x="612" 
d="M99 359l53 -34.999c20.667 11.333 42.834 20.833 66.501 28.5s50.5 11.5 80.5 11.5c26 0 49.667 -3.66699 71 -11s39.666 -17.5 54.999 -30.5s27.166 -28.5 35.499 -46.5s12.5 -38 12.5 -60c0 -22.667 -4.16699 -43.5 -12.5 -62.5s-19.833 -35.5 -34.5 -49.5
s-32.5 -24.833 -53.5 -32.5s-43.833 -11.5 -68.5 -11.5c-36 0 -70.5 8.5 -103.5 25.5s-64.833 40.5 -95.5 70.5l-52 -57c32 -32 69.167 -58.5 111.5 -79.5s88.5 -31.5 138.5 -31.5c36.667 0 70.334 5.5 101.001 16.5s57 26.667 79 47s39.167 44.666 51.5 72.999
s18.5 59.833 18.5 94.5c0 33.333 -6.16699 63.333 -18.5 90s-29.5 49.167 -51.5 67.5s-47.667 32.5 -77 42.5s-61 15 -95 15c-29.333 0 -54.5 -2.83301 -75.5 -8.5s-41.833 -13.167 -62.5 -22.5l15 224h334v73h-403z" />
    <glyph glyph-name="six" unicode="6" horiz-adv-x="647" 
d="M559 632c-30.667 25.333 -62.3369 44.9961 -95.0039 58.9961s-70 21 -112 21c-46 0 -87 -9.83301 -123 -29.5s-66.5 -46.667 -91.5 -81s-44 -74.666 -57 -120.999s-19.5 -96.166 -19.5 -149.499c0 -36 2 -67.833 6 -95.5s9.66699 -52.167 17 -73.5s16.5 -40.333 27.5 -57
s23.5 -32 37.5 -46c22 -22 48.5 -39.333 79.5 -52s65.833 -19 104.5 -19c35.333 0 68.333 5.83301 99 17.5s57.167 27.834 79.5 48.501s40 45.334 53 74.001s19.5 60 19.5 94c0 32.667 -6.5 62.334 -19.5 89.001s-30.5 49.5 -52.5 68.5s-47.667 33.5 -77 43.5
s-60.333 15 -93 15c-25.333 0 -48.166 -3 -68.499 -9s-38.666 -13.833 -54.999 -23.5s-30.666 -21 -42.999 -34s-23.166 -26.5 -32.499 -40.5c0 45.333 4.66699 86.833 14 124.5s22.833 70.167 40.5 97.5s39.167 48.666 64.5 63.999s54 23 86 23s61 -6 87 -18s52 -29 78 -51
zM502.997 218.996c0 -22.667 -3.99609 -43.834 -11.9961 -63.501s-19.333 -36.667 -34 -51s-32.334 -25.666 -53.001 -33.999s-44 -12.5 -70 -12.5s-49.833 4 -71.5 12s-40.334 19 -56.001 33s-27.834 30.667 -36.501 50s-13 40.333 -13 63c0 20 4.16699 39.167 12.5 57.5
s20.166 34.666 35.499 48.999s33.833 25.833 55.5 34.5s45.5 13 71.5 13c25.333 0 48.5 -3.83301 69.5 -11.5s39 -18.167 54 -31.5s26.667 -29.166 35 -47.499s12.5 -38.5 12.5 -60.5z" />
    <glyph glyph-name="seven" unicode="7" horiz-adv-x="596" 
d="M68 628h385l-316 -628h88l318 641v59h-475v-72z" />
    <glyph glyph-name="eight" unicode="8" horiz-adv-x="630" 
d="M578 190c0 42 -13.5 77.333 -40.5 106s-61.5 50.667 -103.5 66c16 7.33301 31.333 16.166 46 26.499s27.5 22 38.5 35s19.667 27.833 26 44.5s9.5 35.334 9.5 56.001c0 27.333 -6.5 52.333 -19.5 75s-30.333 42.334 -52 59.001s-47 29.5 -76 38.5s-59.5 13.5 -91.5 13.5
s-62.5 -4.5 -91.5 -13.5s-54.333 -21.833 -76 -38.5s-39 -36.334 -52 -59.001s-19.5 -47.667 -19.5 -75c0 -20.667 3.16699 -39.334 9.5 -56.001s15 -31.5 26 -44.5s23.833 -24.667 38.5 -35s30 -19.166 46 -26.499c-42 -15.333 -76.5 -37.5 -103.5 -66.5
s-40.5 -64.5 -40.5 -106.5c0 -29.333 6.66699 -56.333 20 -81s31.833 -45.667 55.5 -63s51.5 -30.833 83.5 -40.5s66.667 -14.5 104 -14.5s72 4.83301 104 14.5s59.833 23.167 83.5 40.5s42.167 38.333 55.5 63s20 52 20 82zM475 519
c0 -19.333 -4.1709 -36.833 -12.5039 -52.5s-19.666 -29.167 -33.999 -40.5s-31.333 -20.166 -51 -26.499s-40.5 -9.5 -62.5 -9.5s-42.833 3.16699 -62.5 9.5s-36.667 15.166 -51 26.499s-25.666 24.833 -33.999 40.5s-12.5 33.167 -12.5 52.5c0 18 4 34.333 12 49
s19.167 27.5 33.5 38.5s31.333 19.5 51 25.5s40.834 9 63.501 9s43.834 -3 63.501 -9s36.667 -14.5 51 -25.5s25.5 -24 33.5 -39s12 -31.167 12 -48.5zM497.996 191c0 -18 -4.16016 -35 -12.4932 -51s-20.333 -30 -36 -42s-34.834 -21.5 -57.501 -28.5
s-48.334 -10.5 -77.001 -10.5s-54.334 3.5 -77.001 10.5s-41.834 16.5 -57.501 28.5s-27.667 26 -36 42s-12.5 33 -12.5 51c0 20 4.66699 38.167 14 54.5s22.333 30.333 39 42s36.167 20.834 58.5 27.501s46.166 10 71.499 10s49.166 -3.33301 71.499 -10
s41.666 -15.834 57.999 -27.501s29.333 -25.667 39 -42s14.5 -34.5 14.5 -54.5z" />
    <glyph glyph-name="nine" unicode="9" horiz-adv-x="647" 
d="M586 368c0 35.333 -2.00195 66.8311 -6.00195 94.498s-9.66699 52.334 -17 74.001s-16.333 40.834 -27 57.501s-23 32 -37 46c-22.667 22.667 -49 40.334 -79 53.001s-65 19 -105 19c-37.333 0 -71.5 -6.16699 -102.5 -18.5s-57.5 -29.333 -79.5 -51
s-39.167 -47 -51.5 -76s-18.5 -60.167 -18.5 -93.5c0 -32 6 -61.333 18 -88s28.667 -49.667 50 -69s47 -34.333 77 -45s63 -16 99 -16c48.667 0 89 11 121 33s57.667 48.333 77 79c0.666992 -44.667 -3.83301 -85.834 -13.5 -123.501s-23.667 -70 -42 -97
s-40.5 -48.167 -66.5 -63.5s-54.667 -23 -86 -23s-60.666 6.16699 -87.999 18.5s-55.333 31.166 -84 56.499l-46 -61c30 -24.667 62 -45.167 96 -61.5s74 -24.5 120 -24.5c43.333 0 82.833 9.33301 118.5 28s66.334 44.834 92.001 78.501s45.5 73.667 59.5 120
s21 97.5 21 153.5zM489.998 481.998c0 -20 -4.00098 -39.6719 -12.001 -59.0049s-19.5 -36.333 -34.5 -51s-33.333 -26.5 -55 -35.5s-45.834 -13.5 -72.501 -13.5c-25.333 0 -48.666 3.83301 -69.999 11.5s-39.5 18.334 -54.5 32.001s-26.667 29.834 -35 48.501
s-12.5 39.334 -12.5 62.001c0 22 3.83301 43 11.5 63s18.667 37.5 33 52.5s32 27 53 36s44.5 13.5 70.5 13.5s50 -4.16699 72 -12.5s40.833 -19.666 56.5 -33.999s27.834 -31.166 36.501 -50.499s13 -40.333 13 -63z" />
    <glyph glyph-name="colon" unicode=":" horiz-adv-x="255" 
d="M174 412v105h-92v-105h92zM174 0v105h-92v-105h92z" />
    <glyph glyph-name="semicolon" unicode=";" horiz-adv-x="255" 
d="M174 412v105h-92v-105h92zM51 -87l12 -35c38 8.66699 66 23.5 84 44.5s27 51.833 27 92.5v90h-92v-105h36c2 -21.333 -2.33301 -38.833 -13 -52.5s-28.667 -25.167 -54 -34.5z" />
    <glyph glyph-name="less" unicode="&#x3c;" horiz-adv-x="640" 
d="M72 385v-66l469 -233v78l-385 189l385 188v77z" />
    <glyph glyph-name="equal" unicode="=" horiz-adv-x="640" 
d="M90 506v-74h460v74h-460zM90 272v-74h460v74h-460z" />
    <glyph glyph-name="greater" unicode="&#x3e;" horiz-adv-x="640" 
d="M568 319v66l-469 233v-78l385 -189l-385 -188v-77z" />
    <glyph glyph-name="question" unicode="?" horiz-adv-x="537" 
d="M210 365l-4.99902 -5.00195l15 -162h51l10 108c28.667 4 55.5 11 80.5 21s47 23.333 66 40s34 36.834 45 60.501s16.5 51.167 16.5 82.5c0 28.667 -5.33301 55.167 -16 79.5s-25.834 45.333 -45.501 63s-43.167 31.5 -70.5 41.5s-58 15 -92 15
c-53.333 0 -98.666 -10.667 -135.999 -32s-70.333 -49.333 -99 -84l51 -49c25.333 30 52.666 53.167 81.999 69.5s62.666 24.5 99.999 24.5c22.667 0 43 -3.33301 61 -10s33.333 -16 46 -28s22.334 -26 29.001 -42s10 -33 10 -51c0 -42.667 -16.833 -76.667 -50.5 -102
s-83.167 -38.666 -148.5 -39.999zM291.001 -0.00195312v105h-92v-105h92z" />
    <glyph glyph-name="at" unicode="@" horiz-adv-x="980" 
d="M927 316c0 52 -11.1729 101.998 -33.5059 149.998s-53.166 90.167 -92.499 126.5s-85.5 65.333 -138.5 87s-110.167 32.5 -171.5 32.5s-118.666 -11.667 -171.999 -35s-99.666 -54.833 -138.999 -94.5s-70.333 -86 -93 -139s-34 -109.5 -34 -169.5
s11.167 -116.333 33.5 -169s53.5 -98.834 93.5 -138.501s87.167 -71 141.5 -94s113.5 -34.5 177.5 -34.5c52 0 99.5 6.66699 142.5 20s83.833 31.666 122.5 54.999l-16 27c-38.667 -22.667 -77.334 -39.667 -116.001 -51s-83 -17 -133 -17c-60 0 -115.167 10.5 -165.5 31.5
s-93.5 49.667 -129.5 86s-64.167 78.833 -84.5 127.5s-30.5 101 -30.5 157c0 55.333 10.167 107.5 30.5 156.5s48.5 91.833 84.5 128.5s78.5 65.667 127.5 87s102.167 32 159.5 32s110.333 -10.167 159 -30.5s90.834 -47.5 126.501 -81.5s63.667 -72.667 84 -116
s30.5 -88 30.5 -134c0 -35.333 -4 -66 -12 -92s-18.5 -47.5 -31.5 -64.5s-27.833 -29.5 -44.5 -37.5s-34 -12 -52 -12c-27.333 0 -48.333 7.16699 -63 21.5s-22 34.166 -22 59.499c0 5.33301 0.5 13.333 1.5 24s2.83301 23 5.5 37l40 227l-67 9l-13 -69
c-6 10.667 -13.333 21 -22 31s-19 18.833 -31 26.5s-25.667 13.834 -41 18.501s-32.666 7 -51.999 7c-28 0 -55.833 -6.33301 -83.5 -19s-52.5 -30.167 -74.5 -52.5s-39.667 -48.666 -53 -78.999s-20 -63.166 -20 -98.499c0 -27.333 4.66699 -52.166 14 -74.499
s22.166 -41.5 38.499 -57.5s35.333 -28.333 57 -37s44.834 -13 69.501 -13c37.333 0 69.333 8.16699 96 24.5s49.667 36.166 69 59.499c9.33301 -25.333 25.833 -45.666 49.5 -60.999s53.834 -23 90.501 -23c22.667 0 45.334 4.83301 68.001 14.5s42.667 24.5 60 44.5
s31.5 45.333 42.5 76s16.5 67.334 16.5 110.001zM613.994 312.998c0 -23.333 -4.5 -45.832 -13.5 -67.499s-21 -40.834 -36 -57.501s-32.5 -30 -52.5 -40s-40.667 -15 -62 -15c-36 0 -65.333 10.833 -88 32.5s-34 52.5 -34 92.5c0 26 4.66699 50 14 72
s21.5 41.167 36.5 57.5s32.333 29.166 52 38.499s40.167 14 61.5 14c17.333 0 33.5 -3.16699 48.5 -9.5s28 -15.166 39 -26.499s19.5 -24.833 25.5 -40.5s9 -32.5 9 -50.5z" />
    <glyph glyph-name="A" unicode="A" horiz-adv-x="790" 
d="M432 705h-74l-319 -705h81l83 185h381l82 -185h85zM553 256h-319l160 357z" />
    <glyph glyph-name="B" unicode="B" horiz-adv-x="722" 
d="M397 700l-298 0.000976562v-700h311c38 0 72.667 4.33301 104 13s58.166 21.167 80.499 37.5s39.5 36.5 51.5 60.5s18 51 18 81c0 24 -4 45.333 -12 64s-18.667 34.667 -32 48s-29.166 24.833 -47.499 34.5s-37.833 17.5 -58.5 23.5c14 6 27.5 13.5 40.5 22.5
s24.833 20.167 35.5 33.5s19.167 28.666 25.5 45.999s9.5 37.666 9.5 60.999c0 26.667 -5.33301 50.834 -16 72.501s-26 40 -46 55s-44 26.667 -72 35s-59.333 12.5 -94 12.5zM384 388.001l-207 -0.000976562v241h213c50 0 88.333 -10.333 115 -31s40 -48.667 40 -84
c0 -41.333 -15 -72.666 -45 -93.999s-68.667 -32 -116 -32zM412 71h-234.999v247h221c61.333 0 107.666 -10.5 138.999 -31.5s47 -50.833 47 -89.5c0 -40 -15.333 -71 -46 -93s-72.667 -33 -126 -33z" />
    <glyph glyph-name="C" unicode="C" horiz-adv-x="738" 
d="M699 111l-52.0039 50.998c-33.333 -32 -67.333 -56.833 -102 -74.5s-76 -26.5 -124 -26.5c-38.667 0 -74.5 7.5 -107.5 22.5s-61.667 35.5 -86 61.5s-43.333 56.667 -57 92s-20.5 73.333 -20.5 114s6.83301 78.5 20.5 113.5s32.667 65.5 57 91.5s53 46.333 86 61
s68.833 22 107.5 22c48 0 89.167 -9 123.5 -27s66.5 -41 96.5 -69l54 58c-17.333 16.667 -35.333 31.834 -54 45.501s-39 25.334 -61 35.001s-45.833 17.167 -71.5 22.5s-54.5 8 -86.5 8c-51.333 0 -98.666 -9.5 -141.999 -28.5s-80.666 -45 -111.999 -78
s-55.833 -71.5 -73.5 -115.5s-26.5 -91 -26.5 -141c0 -50.667 8.83301 -98 26.5 -142s42.167 -82.167 73.5 -114.5s68.333 -57.833 111 -76.5s89.334 -28 140.001 -28c32 0 61 3 87 9s50.333 14.333 73 25s43.834 23.5 63.501 38.5s38.5 31.833 56.5 50.5z" />
    <glyph glyph-name="D" unicode="D" horiz-adv-x="782" 
d="M714 351c0 49.333 -9 95.333 -27 138s-43.5 79.667 -76.5 111s-72.333 55.833 -118 73.5s-95.834 26.5 -150.501 26.5h-243v-700h243c54.667 0 104.834 9 150.501 27s85 42.667 118 74s58.5 68.5 76.5 111.5s27 89.167 27 138.5zM632 349
c0 -39.333 -6.83301 -75.667 -20.5 -109s-33 -62.5 -58 -87.5s-55.5 -44.5 -91.5 -58.5s-76 -21 -120 -21h-164v554h164c44 0 84 -7.16699 120 -21.5s66.5 -34 91.5 -59s44.333 -54.5 58 -88.5s20.5 -70.333 20.5 -109z" />
    <glyph glyph-name="E" unicode="E" horiz-adv-x="670" 
d="M605 700h-506v-700h511v72h-432v245h382v72h-382v239h427v72z" />
    <glyph glyph-name="F" unicode="F" horiz-adv-x="656" 
d="M602 700h-503v-700h79v305h379v72h-379v250h424v73z" />
    <glyph glyph-name="G" unicode="G" horiz-adv-x="784" 
d="M705 95l-0.00292969 279h-289v-71h213v-174c-24 -19.333 -53.667 -35.833 -89 -49.5s-73 -20.5 -113 -20.5c-42.667 0 -81 7.33301 -115 22s-63 35 -87 61s-42.5 56.833 -55.5 92.5s-19.5 74.5 -19.5 116.5c0 39.333 6.66699 76.5 20 111.5s31.666 65.5 54.999 91.5
s51.333 46.667 84 62s68.334 23 107.001 23c24.667 0 47.167 -2 67.5 -6s39 -9.5 56 -16.5s32.833 -15.333 47.5 -25s28.667 -20.5 42 -32.5l51 60c-17.333 14.667 -35.166 27.834 -53.499 39.501s-38 21.5 -59 29.5s-43.667 14 -68 18s-51.166 6 -80.499 6
c-52.667 0 -100.5 -9.83301 -143.5 -29.5s-79.833 -46.167 -110.5 -79.5s-54.5 -72 -71.5 -116s-25.5 -90 -25.5 -138c0 -50 8.16699 -97 24.5 -141s40 -82.333 71 -115s68.333 -58.334 112 -77.001s93.167 -28 148.5 -28c59.333 0 112.833 10.5 160.5 31.5
s87.834 46.167 120.501 75.5z" />
    <glyph glyph-name="H" unicode="H" horiz-adv-x="760" 
d="M582 315v-315h79v700h-79v-311h-404v311h-79v-700h79v315h404z" />
    <glyph glyph-name="I" unicode="I" horiz-adv-x="291" 
d="M106 700v-700h79v700h-79z" />
    <glyph glyph-name="J" unicode="J" horiz-adv-x="553" 
d="M465 232l-0.00195312 468h-80v-469c0 -55.333 -13 -97.166 -39 -125.499s-58.667 -42.5 -98 -42.5c-36.667 0 -67.167 8.5 -91.5 25.5s-47.166 41.833 -68.499 74.5l-57 -49c22 -36 50.333 -65.667 85 -89s78.334 -35 131.001 -35c31.333 0 60.333 5 87 15
s49.667 25.167 69 45.5s34.5 45.666 45.5 75.999s16.5 65.5 16.5 105.5z" />
    <glyph glyph-name="K" unicode="K" horiz-adv-x="719" 
d="M382 394l300 306h-102l-402 -418v418h-79v-700h79v188l149 151l269 -339h99z" />
    <glyph glyph-name="L" unicode="L" horiz-adv-x="619" 
d="M99 0h473v73h-394v627h-79v-700z" />
    <glyph glyph-name="M" unicode="M" horiz-adv-x="868" 
d="M690 567v-567h79v700h-80l-255 -382l-255 382h-80v-700h77v566l255 -374h4z" />
    <glyph glyph-name="N" unicode="N" horiz-adv-x="790" 
d="M614 139l-441 561h-74v-700h77v574l452 -574h63v700h-77v-561z" />
    <glyph glyph-name="O" unicode="O" horiz-adv-x="850" 
d="M782 351c0 48.667 -8.5 94.834 -25.5 138.501s-41.167 82 -72.5 115s-68.833 59.167 -112.5 78.5s-92.167 29 -145.5 29s-102 -9.83301 -146 -29.5s-81.667 -46.167 -113 -79.5s-55.666 -71.833 -72.999 -115.5s-26 -89.834 -26 -138.501s8.5 -94.834 25.5 -138.501
s41.167 -82 72.5 -115s68.833 -59.167 112.5 -78.5s92.167 -29 145.5 -29s102 9.83301 146 29.5s81.667 46.167 113 79.5s55.666 71.833 72.999 115.5s26 89.834 26 138.501zM700 349c0 -40 -6.83301 -77.5 -20.5 -112.5s-32.5 -65.5 -56.5 -91.5s-52.833 -46.5 -86.5 -61.5
s-70.5 -22.5 -110.5 -22.5s-76.833 7.66699 -110.5 23s-62.834 36 -87.501 62s-43.834 56.667 -57.501 92s-20.5 73 -20.5 113s6.83301 77.5 20.5 112.5s32.5 65.5 56.5 91.5s52.833 46.5 86.5 61.5s70.5 22.5 110.5 22.5s76.833 -7.66699 110.5 -23s62.834 -36 87.501 -62
s43.834 -56.667 57.501 -92s20.5 -73 20.5 -113z" />
    <glyph glyph-name="P" unicode="P" horiz-adv-x="668" 
d="M623 477c0 34.667 -6.16699 65.833 -18.5 93.5s-30 51 -53 70s-50.667 33.667 -83 44s-68.166 15.5 -107.499 15.5h-262v-700h79v247h170c37.333 0 72.666 4.83301 105.999 14.5s62.5 24.167 87.5 43.5s44.833 43.333 59.5 72s22 62 22 100zM543 473.999
c0 -23.333 -4.49902 -44.499 -13.499 -63.499s-22 -35.333 -39 -49s-37.333 -24.167 -61 -31.5s-49.834 -11 -78.501 -11h-173v308h177c56.667 0 102.167 -12.833 136.5 -38.5s51.5 -63.834 51.5 -114.501z" />
    <glyph glyph-name="Q" unicode="Q" horiz-adv-x="850" 
d="M698 115c27.333 32 48.166 68.335 62.499 109.002s21.5 83 21.5 127c0 48.667 -8.5 94.834 -25.5 138.501s-41.167 82 -72.5 115s-68.833 59.167 -112.5 78.5s-92.167 29 -145.5 29s-102 -9.83301 -146 -29.5s-81.667 -46.167 -113 -79.5s-55.666 -71.833 -72.999 -115.5
s-26 -89.834 -26 -138.501s8.5 -94.834 25.5 -138.501s41.167 -82 72.5 -115s68.833 -59.167 112.5 -78.5s92.167 -29 145.5 -29c44 0 84.333 6.66699 121 20s70 31.666 100 54.999l92 -84l54 59zM587 114.002c-21.333 -16.667 -45.668 -29.667 -73.001 -39
s-56.666 -14 -87.999 -14c-40 0 -76.833 7.66699 -110.5 23s-62.834 36 -87.501 62s-43.834 56.667 -57.501 92s-20.5 73 -20.5 113s6.83301 77.5 20.5 112.5s32.5 65.5 56.5 91.5s52.833 46.5 86.5 61.5s70.5 22.5 110.5 22.5s76.833 -7.66699 110.5 -23
s62.834 -36 87.501 -62s43.834 -56.667 57.501 -92s20.5 -73 20.5 -113c0 -34.667 -5.33301 -67.5 -16 -98.5s-25.667 -58.833 -45 -83.5l-129 117l-53 -59z" />
    <glyph glyph-name="R" unicode="R" horiz-adv-x="723" 
d="M678 0l-214.999 286c27.333 4.66699 52.666 12.667 75.999 24s43.5 25.5 60.5 42.5s30.167 37 39.5 60s14 49.167 14 78.5c0 31.333 -6 59.833 -18 85.5s-29 47.667 -51 66s-48.5 32.5 -79.5 42.5s-65.833 15 -104.5 15h-301v-700h79v272h200l203 -272h97zM573.001 488
c0 -22.667 -4.5 -43 -13.5 -61s-21.5 -33.167 -37.5 -45.5s-35 -21.833 -57 -28.5s-46 -10 -72 -10h-215v284h216c56.667 0 100.667 -12.167 132 -36.5s47 -58.5 47 -102.5z" />
    <glyph glyph-name="S" unicode="S" horiz-adv-x="640" 
d="M160 525c0 16 3.5 31.002 10.5 45.002s17 26 30 36s28.667 18 47 24s38.833 9 61.5 9c36 0 70.5 -6 103.5 -18s65.833 -31.333 98.5 -58l46 61c-36 28.667 -73.167 50.167 -111.5 64.5s-83.166 21.5 -134.499 21.5c-33.333 0 -64 -4.83301 -92 -14.5s-52.333 -23 -73 -40
s-36.667 -37.167 -48 -60.5s-17 -49 -17 -77c0 -29.333 4.66699 -54.666 14 -75.999s23.666 -40 42.999 -56s43.833 -29.667 73.5 -41s64.5 -21.333 104.5 -30c36.667 -8 66.834 -16.333 90.501 -25s42.167 -18.334 55.5 -29.001s22.666 -22.5 27.999 -35.5
s8 -27.833 8 -44.5c0 -36 -14.167 -65 -42.5 -87s-66.166 -33 -113.499 -33c-48.667 0 -91.667 8.16699 -129 24.5s-74.333 41.166 -111 74.499l-49 -58c42 -38 86.167 -66.167 132.5 -84.5s97.5 -27.5 153.5 -27.5c34.667 0 66.667 4.66699 96 14s54.5 22.666 75.5 39.999
s37.5 38.333 49.5 63s18 52 18 82c0 54 -18.5 96.333 -55.5 127s-94.5 54.667 -172.5 72c-38.667 8 -70.334 16.5 -95.001 25.5s-44 19 -58 30s-23.667 23.167 -29 36.5s-8 28.333 -8 45z" />
    <glyph glyph-name="T" unicode="T" horiz-adv-x="648" 
d="M364 627h235v73h-550v-73h235v-627h80v627z" />
    <glyph glyph-name="U" unicode="U" horiz-adv-x="759" 
d="M671 700l-79.002 0.000976562v-407c0 -76.667 -19 -134.334 -57 -173.001s-89.333 -58 -154 -58c-67.333 0 -119.833 20.333 -157.5 61s-56.5 99 -56.5 175v402h-79v-407c0 -49.333 7 -93 21 -131s33.833 -69.833 59.5 -95.5s56.334 -45 92.001 -58
s75.167 -19.5 118.5 -19.5c44 0 83.833 6.5 119.5 19.5s66.334 32.5 92.001 58.5s45.5 58.333 59.5 97s21 83.667 21 135v401z" />
    <glyph glyph-name="V" unicode="V" horiz-adv-x="750" 
d="M376 97l-249 603h-88l301 -705h70l301 705h-85z" />
    <glyph glyph-name="W" unicode="W" horiz-adv-x="1107" 
d="M331 117l-200 583h-86l250 -705h66l193 568l192 -568h67l250 705h-83l-200 -583l-192 585h-65z" />
    <glyph glyph-name="X" unicode="X" horiz-adv-x="725" 
d="M679 0l-269 358l259 342h-92l-213 -286l-215 286h-93l259 -343l-269 -357h91l224 301l224 -301h94z" />
    <glyph glyph-name="Y" unicode="Y" horiz-adv-x="716" 
d="M398 278l291 422h-92l-238 -350l-236 350h-96l291 -423v-277h80v278z" />
    <glyph glyph-name="Z" unicode="Z" horiz-adv-x="693" 
d="M520 629l-453 -576v-53h561v71h-454l454 576v53h-546v-71h438z" />
    <glyph glyph-name="bracketleft" unicode="[" horiz-adv-x="439" 
d="M380 700h-286v-830h286v60h-213v710h213v60z" />
    <glyph glyph-name="backslash" unicode="\" horiz-adv-x="508" 
d="M65 798h-71l464 -926h71z" />
    <glyph glyph-name="bracketright" unicode="]" horiz-adv-x="439" 
d="M59 700v-60h214v-710h-214v-60h286v830h-286z" />
    <glyph glyph-name="asciicircum" unicode="^" 
d="M249 647l118 -154h68l-155 209h-60l-155 -209h66z" />
    <glyph glyph-name="underscore" unicode="_" horiz-adv-x="600" 
d="M-2 -97v-63h604v63h-604z" />
    <glyph glyph-name="grave" unicode="`" 
d="M257 595h62l-95 145l-80 -37z" />
    <glyph glyph-name="a" unicode="a" horiz-adv-x="579" 
d="M273 456c48.667 0 86.501 -11.8311 113.501 -35.498s40.5 -58.834 40.5 -105.501v-18c-23.333 6.66699 -47.333 12 -72 16s-53.667 6 -87 6c-32.667 0 -62.5 -3.66699 -89.5 -11s-50.333 -18 -70 -32s-34.834 -31.5 -45.501 -52.5s-16 -45.167 -16 -72.5
s5.5 -51 16.5 -71s25.667 -36.833 44 -50.5s39 -23.834 62 -30.501s46.5 -10 70.5 -10c46 0 84.167 9 114.5 27s54.5 38.667 72.5 62v-78h74v316c0 68.667 -19 120.5 -57 155.5s-92.333 52.5 -163 52.5c-38 0 -71.667 -3.83301 -101 -11.5s-58.333 -18.167 -87 -31.5l23 -63
c24 11.333 48.5 20.5 73.5 27.5s52.833 10.5 83.5 10.5zM276.001 262.002c32 0 60.5 -2.33301 85.5 -7s47.167 -9.66699 66.5 -15v-50c0 -20.667 -4.5 -39.5 -13.5 -56.5s-21.333 -31.667 -37 -44s-34 -22 -55 -29s-43.5 -10.5 -67.5 -10.5
c-17.333 0 -33.833 2.33301 -49.5 7s-29.5 11.5 -41.5 20.5s-21.5 19.833 -28.5 32.5s-10.5 27.334 -10.5 44.001c0 33.333 13 59.666 39 78.999s63.333 29 112 29z" />
    <glyph glyph-name="b" unicode="b" horiz-adv-x="664" 
d="M608 259c0 42.667 -6.99902 80.666 -20.999 113.999s-32.667 61.5 -56 84.5s-49.833 40.5 -79.5 52.5s-59.834 18 -90.501 18c-24 0 -45.833 -3.16699 -65.5 -9.5s-37.5 -14.666 -53.5 -24.999s-30.5 -22.5 -43.5 -36.5s-24.833 -28.667 -35.5 -44v317h-77v-730h77v99
c10 -14.667 21.5 -28.667 34.5 -42s27.5 -25 43.5 -35s34 -18 54 -24s42 -9 66 -9c31.333 0 61.833 6.16699 91.5 18.5s56 30 79 53s41.5 51.167 55.5 84.5s21 71.333 21 114zM529.001 257.999c0 -31.333 -4.83496 -59.498 -14.502 -84.498s-22.667 -46 -39 -63
s-35.666 -30 -57.999 -39s-45.833 -13.5 -70.5 -13.5c-24 0 -47.167 4.83301 -69.5 14.5s-42.333 23.167 -60 40.5s-31.667 38.5 -42 63.5s-15.5 52.5 -15.5 82.5s5.16699 57.333 15.5 82s24.333 45.667 42 63s37.667 30.833 60 40.5s45.5 14.5 69.5 14.5
c24.667 0 48 -4.66699 70 -14s41.333 -22.833 58 -40.5s29.834 -38.834 39.501 -63.501s14.5 -52.334 14.5 -83.001z" />
    <glyph glyph-name="c" unicode="c" horiz-adv-x="571" 
d="M530 88l-48.999 46.0029c-20.667 -22 -43.834 -40.333 -69.501 -55s-55.167 -22 -88.5 -22c-27.333 0 -52.5 5.16699 -75.5 15.5s-43 24.666 -60 42.999s-30.333 39.833 -40 64.5s-14.5 51 -14.5 79s4.66699 54.167 14 78.5s22.333 45.666 39 63.999
s36.334 32.666 59.001 42.999s47 15.5 73 15.5c35.333 0 65.166 -7.66699 89.499 -23s46.833 -33.666 67.5 -54.999l51 54c-12 12.667 -25 24.667 -39 36s-29.333 21.166 -46 29.499s-35 14.833 -55 19.5s-42.333 7 -67 7c-38 0 -73.167 -7.16699 -105.5 -21.5
s-60.333 -33.833 -84 -58.5s-42.167 -53.5 -55.5 -86.5s-20 -67.833 -20 -104.5s6.66699 -71.334 20 -104.001s31.833 -61.167 55.5 -85.5s51.667 -43.666 84 -57.999s67.5 -21.5 105.5 -21.5c48.667 0 89.5 9.33301 122.5 28s62.5 42.667 88.5 72z" />
    <glyph glyph-name="d" unicode="d" horiz-adv-x="664" 
d="M578 0v730h-77v-312c-10 14.667 -21.5 28.667 -34.5 42s-27.5 25 -43.5 35s-34 18 -54 24s-42 9 -66 9c-31.333 0 -61.666 -6.16699 -90.999 -18.5s-55.666 -30 -78.999 -53s-42 -51.167 -56 -84.5s-21 -71.333 -21 -114s7 -80.667 21 -114s32.667 -61.5 56 -84.5
s49.666 -40.5 78.999 -52.5s59.666 -18 90.999 -18c24 0 45.833 3 65.5 9s37.5 14.333 53.5 25s30.5 23 43.5 37s24.833 28.667 35.5 44v-104h77zM504 259c0 -30 -5.16602 -57.502 -15.499 -82.502s-24.333 -46.167 -42 -63.5s-37.667 -30.833 -60 -40.5
s-45.5 -14.5 -69.5 -14.5c-24.667 0 -48 4.66699 -70 14s-41.333 22.833 -58 40.5s-29.834 38.834 -39.501 63.501s-14.5 52.334 -14.5 83.001c0 31.333 4.83301 59.5 14.5 84.5s22.667 46 39 63s35.5 30 57.5 39s45.667 13.5 71 13.5c24 0 47.167 -4.83301 69.5 -14.5
s42.333 -23.167 60 -40.5s31.667 -38.333 42 -63s15.5 -52 15.5 -82z" />
    <glyph glyph-name="e" unicode="e" horiz-adv-x="592" 
d="M132 230h410.008c0.666992 4.66699 1 9 1 13v11c0 38 -5.33301 73.667 -16 107s-26.334 62.333 -47.001 87s-46 44.167 -76 58.5s-64 21.5 -102 21.5c-36 0 -69.167 -7 -99.5 -21s-56.5 -33.167 -78.5 -57.5s-39.167 -53 -51.5 -86s-18.5 -68.167 -18.5 -105.5
c0 -40 6.83301 -76.667 20.5 -110s32.167 -61.833 55.5 -85.5s50.666 -42 81.999 -55s64.666 -19.5 99.999 -19.5c49.333 0 90.666 8.83301 123.999 26.5s63 41.167 89 70.5l-48 43c-21.333 -22 -44.833 -39.667 -70.5 -53s-56.5 -20 -92.5 -20
c-22.667 0 -44.334 3.83301 -65.001 11.5s-39.334 19 -56.001 34s-30.334 33.333 -41.001 55s-17.334 46.5 -20.001 74.5zM132.008 287c2.66699 25.333 8.66504 48.666 17.998 69.999s21.333 39.833 36 55.5s31.667 28 51 37s40.333 13.5 63 13.5
c26 0 48.833 -4.83301 68.5 -14.5s36.334 -22.5 50.001 -38.5s24.334 -34.667 32.001 -56s12.5 -43.666 14.5 -66.999h-333z" />
    <glyph glyph-name="f" unicode="f" horiz-adv-x="367" 
d="M191 515l0.000976562 42c0 73.333 30 110 90 110c13.333 0 25.666 -1.16699 36.999 -3.5s24 -5.5 38 -9.5v67c-12.667 4.66699 -25.5 8 -38.5 10s-28.5 3 -46.5 3c-50 0 -88.5 -14.667 -115.5 -44s-40.5 -72.333 -40.5 -129v-45h-71v-67h71v-449h77v449h163v66h-164z" />
    <glyph glyph-name="g" unicode="g" horiz-adv-x="664" 
d="M578 90l-0.00195312 427.001h-77v-93c-10.667 14 -22.667 27.333 -36 40s-28.166 23.667 -44.499 33s-34.666 16.833 -54.999 22.5s-42.5 8.5 -66.5 8.5c-30.667 0 -60.667 -5.66699 -90 -17s-55.333 -27.5 -78 -48.5s-40.834 -46.667 -54.501 -77
s-20.5 -64.5 -20.5 -102.5s6.83301 -72 20.5 -102s31.834 -55.5 54.501 -76.5s48.5 -37 77.5 -48s59.167 -16.5 90.5 -16.5c47.333 0 87.333 10.667 120 32s60.334 47 83.001 77v-61c0 -60.667 -17 -106.5 -51 -137.5s-79.667 -46.5 -137 -46.5
c-37.333 0 -72.333 5.66699 -105 17s-64 27.666 -94 48.999l-35 -60c34.667 -24 71.667 -42 111 -54s80.666 -18 123.999 -18c40 0 76.167 5.33301 108.5 16s60 26.5 83 47.5s40.667 47.167 53 78.5s18.5 68 18.5 110zM503.998 284.001
c0 -26.667 -5.33301 -50.8369 -16 -72.5039s-24.834 -40.167 -42.501 -55.5s-37.834 -27.166 -60.501 -35.499s-46.334 -12.5 -71.001 -12.5c-24 0 -46.833 4.16699 -68.5 12.5s-40.667 20.333 -57 36s-29.333 34.334 -39 56.001s-14.5 45.834 -14.5 72.501
s4.66699 50.834 14 72.501s22.166 40.167 38.499 55.5s35.333 27 57 35s44.834 12 69.501 12s48.334 -4.16699 71.001 -12.5s42.834 -20.166 60.501 -35.499s31.834 -33.833 42.501 -55.5s16 -45.834 16 -72.501z" />
    <glyph glyph-name="h" unicode="h" horiz-adv-x="616" 
d="M163 296c0 24 3.83203 46.001 11.499 66.001s18.5 37.167 32.5 51.5s30.5 25.333 49.5 33s39.5 11.5 61.5 11.5c46 0 81.333 -14 106 -42s37 -66 37 -114v-302h77v321c0 30.667 -4.5 58.667 -13.5 84s-22 47.166 -39 65.499s-37.667 32.5 -62 42.5s-52.166 15 -83.499 15
c-44.667 0 -81 -9.83301 -109 -29.5s-50.667 -43.5 -68 -71.5v303h-77v-730h77v296z" />
    <glyph glyph-name="i" unicode="i" horiz-adv-x="263" 
d="M176 630v85h-88v-85h88zM170 0v517h-77v-517h77z" />
    <glyph glyph-name="j" unicode="j" horiz-adv-x="263" 
d="M176 630v85h-88v-85h88zM93 517l0.000976562 -545.999c0 -24 -5.5 -41.5 -16.5 -52.5s-25.167 -16.5 -42.5 -16.5c-5.33301 0 -11.5 0.166992 -18.5 0.5s-13.5 1.16602 -19.5 2.49902v-63c8.66699 -2 16.5 -3.33301 23.5 -4s15.167 -1 24.5 -1
c39.333 0 70.166 10.667 92.499 32s33.5 55 33.5 101v547h-77z" />
    <glyph glyph-name="k" unicode="k" horiz-adv-x="569" 
d="M321 295l217 222h-96l-279 -291v504h-77v-730h77v135l105 106l185 -241h92z" />
    <glyph glyph-name="l" unicode="l" horiz-adv-x="263" 
d="M170 0v730h-77v-730h77z" />
    <glyph glyph-name="m" unicode="m" horiz-adv-x="951" 
d="M496 425c-14 29.333 -34.666 53.8311 -61.999 73.498s-62 29.5 -104 29.5c-22 0 -41.333 -2.66699 -58 -8s-31.667 -12.5 -45 -21.5s-25.166 -19.5 -35.499 -31.5s-19.833 -24.333 -28.5 -37v87h-77v-517h77v295c0 24 3.66699 45.833 11 65.5s17.5 36.834 30.5 51.501
s28.167 26 45.5 34s36.333 12 57 12c41.333 0 73.833 -13.5 97.5 -40.5s35.5 -64.833 35.5 -113.5v-304h76v298c0 25.333 3.83301 48 11.5 68s18 36.833 31 50.5s28.167 24 45.5 31s35.666 10.5 54.999 10.5c42 0 74.833 -13.5 98.5 -40.5s35.5 -65.5 35.5 -115.5v-302h77
v320c0 64.667 -17 115.5 -51 152.5s-81 55.5 -141 55.5c-22.667 0 -43.167 -2.66699 -61.5 -8s-34.833 -12.666 -49.5 -21.999s-27.834 -20.333 -39.501 -33s-22.167 -26 -31.5 -40z" />
    <glyph glyph-name="n" unicode="n" horiz-adv-x="616" 
d="M163 296c0 24 3.83203 46.001 11.499 66.001s18.5 37.167 32.5 51.5s30.5 25.333 49.5 33s39.5 11.5 61.5 11.5c46 0 81.333 -14 106 -42s37 -66 37 -114v-302h77v321c0 30.667 -4.5 58.667 -13.5 84s-22 47.166 -39 65.499s-37.667 32.5 -62 42.5s-52.166 15 -83.499 15
c-44.667 0 -81 -9.83301 -109 -29.5s-50.667 -43.5 -68 -71.5v90h-77v-517h77v296z" />
    <glyph glyph-name="o" unicode="o" horiz-adv-x="646" 
d="M593 259c0 36.667 -6.66797 71.334 -20.001 104.001s-32 61.167 -56 85.5s-52.5 43.666 -85.5 57.999s-68.833 21.5 -107.5 21.5c-39.333 0 -75.5 -7.16699 -108.5 -21.5s-61.5 -33.833 -85.5 -58.5s-42.667 -53.5 -56 -86.5s-20 -67.833 -20 -104.5
s6.66699 -71.334 20 -104.001s32 -61.167 56 -85.5s52.333 -43.666 85 -57.999s68.334 -21.5 107.001 -21.5s74.667 7.16699 108 21.5s62 33.833 86 58.5s42.833 53.5 56.5 86.5s20.5 67.833 20.5 104.5zM513.999 257c0 -28 -4.66406 -54.165 -13.9971 -78.498
s-22.333 -45.5 -39 -63.5s-36.667 -32.167 -60 -42.5s-49 -15.5 -77 -15.5c-27.333 0 -52.666 5.33301 -75.999 16s-43.5 25 -60.5 43s-30.333 39.333 -40 64s-14.5 51 -14.5 79s4.66699 54.167 14 78.5s22.166 45.666 38.499 63.999s36.166 32.666 59.499 42.999
s49 15.5 77 15.5c27.333 0 52.666 -5.33301 75.999 -16s43.666 -25.167 60.999 -43.5s30.833 -39.833 40.5 -64.5s14.5 -51 14.5 -79z" />
    <glyph glyph-name="p" unicode="p" horiz-adv-x="664" 
d="M608 259c0 42.667 -6.99902 80.666 -20.999 113.999s-32.667 61.5 -56 84.5s-49.833 40.5 -79.5 52.5s-59.834 18 -90.501 18c-24 0 -45.833 -3.16699 -65.5 -9.5s-37.5 -14.666 -53.5 -24.999s-30.5 -22.5 -43.5 -36.5s-24.833 -28.667 -35.5 -44v104h-77v-677h77v259
c10 -14.667 21.5 -28.667 34.5 -42s27.5 -25 43.5 -35s34 -18 54 -24s42 -9 66 -9c31.333 0 61.833 6.16699 91.5 18.5s56 30 79 53s41.5 51.167 55.5 84.5s21 71.333 21 114zM529.001 257.999c0 -31.333 -4.83496 -59.498 -14.502 -84.498s-22.667 -46 -39 -63
s-35.666 -30 -57.999 -39s-45.833 -13.5 -70.5 -13.5c-24 0 -47.167 4.83301 -69.5 14.5s-42.333 23.167 -60 40.5s-31.667 38.5 -42 63.5s-15.5 52.5 -15.5 82.5s5.16699 57.333 15.5 82s24.333 45.667 42 63s37.667 30.833 60 40.5s45.5 14.5 69.5 14.5
c24.667 0 48 -4.66699 70 -14s41.333 -22.833 58 -40.5s29.834 -38.834 39.501 -63.501s14.5 -52.334 14.5 -83.001z" />
    <glyph glyph-name="q" unicode="q" horiz-adv-x="664" 
d="M578 -160v677h-77v-99c-10 14.667 -21.5 28.667 -34.5 42s-27.5 25 -43.5 35s-34 18 -54 24s-42 9 -66 9c-31.333 0 -61.666 -6.16699 -90.999 -18.5s-55.666 -30 -78.999 -53s-42 -51.167 -56 -84.5s-21 -71.333 -21 -114s7 -80.667 21 -114s32.667 -61.5 56 -84.5
s49.666 -40.5 78.999 -52.5s59.666 -18 90.999 -18c24 0 45.833 3 65.5 9s37.5 14.333 53.5 25s30.5 23 43.5 37s24.833 28.667 35.5 44v-264h77zM504 259c0 -30 -5.16602 -57.502 -15.499 -82.502s-24.333 -46.167 -42 -63.5s-37.667 -30.833 -60 -40.5
s-45.5 -14.5 -69.5 -14.5c-24.667 0 -48 4.66699 -70 14s-41.333 22.833 -58 40.5s-29.834 38.834 -39.501 63.501s-14.5 52.334 -14.5 83.001c0 31.333 4.83301 59.5 14.5 84.5s22.667 46 39 63s35.5 30 57.5 39s45.667 13.5 71 13.5c24 0 47.167 -4.83301 69.5 -14.5
s42.333 -23.167 60 -40.5s31.667 -38.333 42 -63s15.5 -52 15.5 -82z" />
    <glyph glyph-name="r" unicode="r" horiz-adv-x="405" 
d="M163 206c0 38.667 5.33203 72.833 15.999 102.5s25.334 54.5 44.001 74.5s40.5 35 65.5 45s51.5 15 79.5 15h6v83c-24.667 0.666992 -47.667 -2.33301 -69 -9s-41 -16.5 -59 -29.5s-34 -28.5 -48 -46.5s-25.667 -37.667 -35 -59v135h-77v-517h77v206z" />
    <glyph glyph-name="s" unicode="s" horiz-adv-x="498" 
d="M441 145l0.00488281 2.00391c0 23.333 -4.83301 43 -14.5 59s-22.5 29.667 -38.5 41s-33.833 20.666 -53.5 27.999s-39.5 14 -59.5 20l-50 16c-16 5.33301 -30.167 11.333 -42.5 18s-22.166 14.5 -29.499 23.5s-11 19.5 -11 31.5v2c0 21.333 9 39.166 27 53.499
s42.333 21.5 73 21.5c25.333 0 51.166 -4.5 77.499 -13.5s51.5 -21.167 75.5 -36.5l35 58c-26.667 17.333 -56.334 31.166 -89.001 41.499s-65 15.5 -97 15.5c-25.333 0 -48.833 -3.5 -70.5 -10.5s-40.334 -17 -56.001 -30s-27.834 -28.667 -36.501 -47s-13 -38.5 -13 -60.5
v-2c0 -24 5.16699 -44 15.5 -60s23.666 -29.333 39.999 -40s34.666 -19.5 54.999 -26.5s40.5 -13.5 60.5 -19.5c16.667 -4.66699 32.834 -9.66699 48.501 -15s29.5 -11.5 41.5 -18.5s21.5 -15.167 28.5 -24.5s10.5 -20.333 10.5 -33v-2c0 -25.333 -10 -45.333 -30 -60
s-45.667 -22 -77 -22c-30.667 0 -61.167 5.66699 -91.5 17s-59.5 27.666 -87.5 48.999l-39 -55c29.333 -23.333 63 -41.833 101 -55.5s75.667 -20.5 113 -20.5c26 0 50.167 3.5 72.5 10.5s41.666 17.167 57.999 30.5s29.333 29.5 39 48.5s14.5 40.833 14.5 65.5z" />
    <glyph glyph-name="t" unicode="t" horiz-adv-x="404" 
d="M190 449l164 0.00195312v68h-164v156h-77v-156h-72v-68h72v-312c0 -26 3.66699 -48.333 11 -67s17.5 -33.834 30.5 -45.501s28.5 -20.167 46.5 -25.5s37.333 -8 58 -8c18.667 0 35.5 1.83301 50.5 5.5s29.167 9.16699 42.5 16.5v66
c-13.333 -6.66699 -25.833 -11.334 -37.5 -14.001s-24.167 -4 -37.5 -4c-26 0 -47 6.33301 -63 19s-24 35 -24 67v302z" />
    <glyph glyph-name="u" unicode="u" horiz-adv-x="616" 
d="M453 221c0 -24 -3.99902 -46.001 -11.999 -66.001s-18.833 -37.167 -32.5 -51.5s-30 -25.333 -49 -33s-39.5 -11.5 -61.5 -11.5c-46 0 -81.333 14 -106 42s-37 66 -37 114v302h-77v-321c0 -30.667 4.5 -58.667 13.5 -84s22 -47.166 39 -65.499s37.667 -32.5 62 -42.5
s52.166 -15 83.499 -15c44.667 0 81 9.83301 109 29.5s50.667 43.5 68 71.5v-90h76v517h-76v-296z" />
    <glyph glyph-name="v" unicode="v" horiz-adv-x="587" 
d="M294 88l-174 429h-85l224 -521h68l225 521h-83z" />
    <glyph glyph-name="w" unicode="w" horiz-adv-x="861" 
d="M463 519h-64l-139 -417l-136 415h-82l181 -521h68l140 408l139 -408h67l182 521h-80l-136 -415z" />
    <glyph glyph-name="x" unicode="x" horiz-adv-x="574" 
d="M331 265l196 252h-86l-153 -200l-153 200h-88l195 -254l-203 -263h86l161 211l160 -211h89z" />
    <glyph glyph-name="y" unicode="y" horiz-adv-x="591" 
d="M555 517h-81.998l-166 -431l-188 431h-85l235 -515c-15.333 -36.667 -31 -62 -47 -76s-35.667 -21 -59 -21c-16.667 0 -31.167 1.5 -43.5 4.5s-24.833 7.83301 -37.5 14.5l-26 -61c17.333 -8.66699 34.666 -15.167 51.999 -19.5s36.666 -6.5 57.999 -6.5
c38.667 0 71.5 11 98.5 33s51.5 59.667 73.5 113z" />
    <glyph glyph-name="z" unicode="z" horiz-adv-x="556" 
d="M399 452l-343 -403v-49h448v65h-344l344 403v49h-436v-65h331z" />
    <glyph glyph-name="braceleft" unicode="{" horiz-adv-x="483" 
d="M428 664l-11.999 50.999c-45.333 -8 -82 -18.167 -110 -30.5s-50 -26.833 -66 -43.5s-26.833 -35.667 -32.5 -57s-8.5 -45 -8.5 -71v-16c0 -6.66699 0.166992 -13.834 0.5 -21.501s0.5 -15.167 0.5 -22.5v-16c0 -39.333 -8.5 -69.166 -25.5 -89.499
s-47.833 -30.5 -92.5 -30.5h-26v-60h26c44.667 0 75.5 -10.333 92.5 -31s25.5 -50.334 25.5 -89.001v-17c0 -7.33301 -0.166992 -14.666 -0.5 -21.999s-0.5 -14.333 -0.5 -21v-16c0 -26 2.83301 -49.667 8.5 -71s16.5 -40.333 32.5 -57s38 -31.167 66 -43.5
s64.667 -22.5 110 -30.5l12 51c-35.333 8.66699 -63.166 17.834 -83.499 27.501s-36 20.667 -47 33s-18 26.5 -21 42.5s-4.5 35.333 -4.5 58c0 10 0.166992 22.333 0.5 37s0.5 27.334 0.5 38.001c0 20.667 -2.33301 38.667 -7 54s-11.334 28.5 -20.001 39.5
s-19.5 20.333 -32.5 28s-27.833 14.167 -44.5 19.5c32 10 57.333 25.5 76 46.5s28 52.5 28 94.5c0 10.667 -0.166992 23.334 -0.5 38.001s-0.5 27 -0.5 37c0 22.667 1.5 42 4.5 58s10 30.167 21 42.5s26.667 23.166 47 32.499s48.166 18.666 83.499 27.999z" />
    <glyph glyph-name="bar" unicode="|" horiz-adv-x="303" 
d="M184 -128v926h-65v-926h65z" />
    <glyph glyph-name="braceright" unicode="}" horiz-adv-x="483" 
d="M54 -90l13 -50.9961c44.667 8 81.167 18.167 109.5 30.5s50.5 26.833 66.5 43.5s26.833 35.667 32.5 57s8.5 45 8.5 71v16c0 6.66699 -0.166992 13.667 -0.5 21s-0.5 14.666 -0.5 21.999v17c0 39.333 8.33301 69.166 25 89.499s47.334 30.5 92.001 30.5h26v60h-26
c-44.667 0 -75.334 10.167 -92.001 30.5s-25 50.166 -25 89.499v16c0 7.33301 0.166992 14.833 0.5 22.5s0.5 14.834 0.5 21.501v16c0 26 -2.83301 49.667 -8.5 71s-16.5 40.333 -32.5 57s-38.167 31.167 -66.5 43.5s-64.833 22.5 -109.5 30.5l-13 -51
c35.333 -9.33301 63.333 -18.666 84 -27.999s36.5 -20.166 47.5 -32.499s18 -26.5 21 -42.5s4.5 -35.333 4.5 -58c0 -10 -0.166992 -22.333 -0.5 -37s-0.5 -27.334 -0.5 -38.001c0 -42 9 -73.333 27 -94s43.667 -36.334 77 -47.001c-32 -10 -57.333 -25.5 -76 -46.5
s-28 -52.5 -28 -94.5c0 -10.667 0.166992 -23.334 0.5 -38.001s0.5 -27 0.5 -37c0 -22.667 -1.5 -42 -4.5 -58s-10 -30.167 -21 -42.5s-26.833 -23.333 -47.5 -33s-48.667 -18.834 -84 -27.501z" />
    <glyph glyph-name="asciitilde" unicode="~" horiz-adv-x="473" 
d="M400 352l-46.001 13c-7.33301 -18.667 -14.5 -31.667 -21.5 -39s-17.167 -11 -30.5 -11c-8.66699 0 -18.5 2.16699 -29.5 6.5l-34 14c-11.667 5 -23.667 9.66699 -36 14s-23.833 6.5 -34.5 6.5c-24 0 -43.333 -8.16699 -58 -24.5s-27 -43.5 -37 -81.5l47 -13
c7.33301 18.667 14.5 31.667 21.5 39s17.167 11 30.5 11c8.66699 0 18.334 -2.16699 29.001 -6.5l34 -14c12 -5 24 -9.66699 36 -14s23.667 -6.5 35 -6.5c24 0 43.167 8.16699 57.5 24.5s26.5 43.5 36.5 81.5z" />
    <glyph glyph-name="nonbreakingspace" unicode="&#xa0;" horiz-adv-x="300" 
 />
    <glyph glyph-name="exclamdown" unicode="&#xa1;" horiz-adv-x="271" 
d="M90 700v-105h92v105h-92zM181 0v57l-24 445h-43l-23 -445v-57h90z" />
    <glyph glyph-name="cent" unicode="&#xa2;" horiz-adv-x="581" 
d="M533 186l-48 44.999c-20 -21.333 -42.667 -39.333 -68 -54s-54 -22.334 -86 -23.001c-4.66699 0 -9 0.166992 -13 0.5s-8 0.833008 -12 1.5l75 391c20.667 -6 38.667 -15 54 -27s30.333 -25.333 45 -40l50 52c-17.333 19.333 -36.5 36.333 -57.5 51
s-45.833 25.667 -74.5 33l18 90h-65l-15 -81h-13c-37.333 0 -72.166 -7.16699 -104.499 -21.5s-60.333 -33.833 -84 -58.5s-42.334 -53.5 -56.001 -86.5s-20.5 -67.833 -20.5 -104.5c0 -29.333 4.33301 -57.166 13 -83.499s20.667 -50.666 36 -72.999
s33.833 -41.833 55.5 -58.5s45.5 -29.667 71.5 -39l-22 -106h65l18 93c5.33301 -1.33301 10 -2 14 -2h15c47.333 0 87.5 9.33301 120.5 28s62.5 43 88.5 73zM325 555.999l-73.998 -385.999c-34 15.333 -61.667 39.666 -83 72.999s-32 71 -32 113c0 28 4.66699 54 14 78
s22.166 45 38.499 63s35.666 32.333 57.999 43s46.5 16 72.5 16h6z" />
    <glyph glyph-name="sterling" unicode="&#xa3;" horiz-adv-x="644" 
d="M151 364l-84 -0.00292969v-69h84v-228l-84 -21v-46h518v70h-355v225h279v69h-279v108c0 50.667 12.167 90.834 36.5 120.501s59.166 44.5 104.499 44.5c36.667 0 66.667 -7.66699 90 -23s44.666 -35.333 63.999 -60l61 48c-23.333 30.667 -51.666 56.334 -84.999 77.001
s-76.333 31 -129 31c-35.333 0 -66.666 -5.66699 -93.999 -17s-50.333 -27.5 -69 -48.5s-33 -46.167 -43 -75.5s-15 -61.666 -15 -96.999v-108z" />
    <glyph glyph-name="currency" unicode="&#xa4;" horiz-adv-x="720" 
d="M139 408c-1.33301 -9.33301 -2.33594 -19 -3.00293 -29s-1 -20 -1 -30v-25c0 -8 0.666992 -16 2 -24h-81v-63h91c8.66699 -37.333 21.667 -71.166 39 -101.499s38.166 -56.5 62.499 -78.5s51.833 -39 82.5 -51s63.667 -18 99 -18c28 0 53.667 3.66699 77 11
s44.666 17.5 63.999 30.5s36.833 28.5 52.5 46.5s30.5 37.333 44.5 58l-57 40c-24 -35.333 -49.833 -63.333 -77.5 -84s-61.167 -31 -100.5 -31c-50 0 -92.833 16.167 -128.5 48.5s-60.834 75.5 -75.501 129.5h259v63h-272c-0.666992 8.66699 -1.16699 17 -1.5 25
s-0.5 16.667 -0.5 26s0.333008 18.833 1 28.5s1.66699 19.167 3 28.5h270v62h-257c15.333 50.667 39.833 91.834 73.5 123.501s72.834 47.5 117.501 47.5c21.333 0 40.5 -2.33301 57.5 -7s32.833 -11.667 47.5 -21s28.334 -20.833 41.001 -34.5s25.334 -29.167 38.001 -46.5
l60 43c-13.333 20 -27.833 38.333 -43.5 55s-33.167 31 -52.5 43s-41 21.5 -65 28.5s-50.667 10.5 -80 10.5c-34 0 -65.667 -6 -95 -18s-55.666 -28.833 -78.999 -50.5s-43.666 -47.334 -60.999 -77.001s-30.666 -61.834 -39.999 -96.501h-94v-62h83z" />
    <glyph glyph-name="yen" unicode="&#xa5;" horiz-adv-x="686" 
d="M381 266h205v62h-182l255 372h-90l-225 -342l-223 342h-94l254 -372h-181v-62h205v-88h-205v-62h205v-116h76v116h205v62h-205v88z" />
    <glyph glyph-name="section" unicode="&#xa7;" horiz-adv-x="632" 
d="M570 341c0 17.333 -3.66699 32.8359 -11 46.5029s-19.333 26.167 -36 37.5s-38.167 21.666 -64.5 30.999s-58.5 18.666 -96.5 27.999c-31.333 7.33301 -57.5 14.5 -78.5 21.5s-37.667 14.333 -50 22s-21.166 15.5 -26.499 23.5s-8 16.667 -8 26
c0 19.333 8.33301 35.333 25 48s42.667 19 78 19c36.667 0 70.167 -7.16699 100.5 -21.5s57.166 -32.833 80.499 -55.5l50 48c-28 28.667 -61.5 51.667 -100.5 69s-81.833 26 -128.5 26c-56.667 0 -101.5 -12.167 -134.5 -36.5s-49.5 -56.833 -49.5 -97.5
c0 -22 6.66699 -41.667 20 -59s31.333 -31.666 54 -42.999c-40 -6.66699 -72 -19.834 -96 -39.501s-36 -44.834 -36 -75.501c0 -17.333 3.66699 -32.833 11 -46.5s19.333 -26.167 36 -37.5s38.167 -21.833 64.5 -31.5s58.5 -18.834 96.5 -27.501
c31.333 -7.33301 57.5 -14.5 78.5 -21.5s37.667 -14.333 50 -22s21.166 -15.5 26.499 -23.5s8 -16.667 8 -26c0 -19.333 -8.33301 -35.333 -25 -48s-42.667 -19 -78 -19c-36.667 0 -70.167 7.16699 -100.5 21.5s-57.166 32.833 -80.499 55.5l-50 -48
c28 -28.667 61.5 -51.667 100.5 -69s81.833 -26 128.5 -26c56.667 0 101.5 12.167 134.5 36.5s49.5 56.833 49.5 97.5c0 22 -6.66699 41.667 -20 59s-31.333 31.666 -54 42.999c40 6.66699 72 19.834 96 39.501s36 44.834 36 75.501zM496 333.003
c0 -19.333 -9.83398 -35.833 -29.501 -49.5s-46.167 -20.5 -79.5 -20.5c-13.333 0 -28.666 1.16699 -45.999 3.5s-38.333 6.5 -63 12.5c-27.333 6.66699 -50.166 13.5 -68.499 20.5s-33 14 -44 21s-18.667 14.333 -23 22s-6.5 15.834 -6.5 24.501
c0 19.333 9.83301 35.833 29.5 49.5s46.167 20.5 79.5 20.5c13.333 0 28.5 -1.16699 45.5 -3.5s38.167 -6.5 63.5 -12.5c27.333 -6.66699 50.166 -13.5 68.499 -20.5s33 -14 44 -21s18.667 -14.333 23 -22s6.5 -15.834 6.5 -24.501z" />
    <glyph glyph-name="dieresis" unicode="&#xa8;" 
d="M383 595v95h-90v-95h90zM207 595v95h-90v-95h90z" />
    <glyph glyph-name="copyright" unicode="&#xa9;" horiz-adv-x="830" 
d="M777 351c0 49.333 -9.33301 96 -28 140s-44.167 82.333 -76.5 115s-70.5 58.5 -114.5 77.5s-91.333 28.5 -142 28.5s-98.167 -9.66699 -142.5 -29s-82.833 -45.5 -115.5 -78.5s-58.334 -71.5 -77.001 -115.5s-28 -90.667 -28 -140s9.33301 -96 28 -140
s44.167 -82.333 76.5 -115s70.5 -58.5 114.5 -77.5s91.333 -28.5 142 -28.5s98.167 9.66699 142.5 29s82.833 45.5 115.5 78.5s58.334 71.5 77.001 115.5s28 90.667 28 140zM744 351c0 -45.333 -8.33301 -88.166 -25 -128.499s-39.834 -75.5 -69.501 -105.5
s-64.667 -53.833 -105 -71.5s-83.833 -26.5 -130.5 -26.5s-90 8.66699 -130 26s-74.667 41 -104 71s-52.333 65 -69 105s-25 82.667 -25 128s8.33301 88.166 25 128.499s39.834 75.5 69.501 105.5s64.5 53.833 104.5 71.5s83.667 26.5 131 26.5
c46.667 0 90 -8.66699 130 -26s74.667 -41 104 -71s52.333 -65 69 -105s25 -82.667 25 -128zM567 229l-36.001 35.001c-16.667 -15.333 -33.334 -27.5 -50.001 -36.5s-36.667 -13.5 -60 -13.5c-18.667 0 -36 3.66699 -52 11s-30 17.5 -42 30.5s-21.333 28.167 -28 45.5
s-10 35.666 -10 54.999s3.16699 37.5 9.5 54.5s15.333 32 27 45s25.5 23.167 41.5 30.5s33.667 11 53 11c22 0 41.833 -4.83301 59.5 -14.5s33.834 -21.5 48.501 -35.5l37 40c-18.667 17.333 -38.834 31.666 -60.501 42.999s-49.5 17 -83.5 17c-27.333 0 -52.5 -5 -75.5 -15
s-42.833 -23.833 -59.5 -41.5s-29.667 -38.167 -39 -61.5s-14 -48 -14 -74c0 -26.667 4.66699 -51.667 14 -75s22.333 -43.666 39 -60.999s36.334 -31 59.001 -41s47.334 -15 74.001 -15c34 0 62.333 6 85 18s43.667 28 63 48z" />
    <glyph glyph-name="ordfeminine" unicode="&#xaa;" horiz-adv-x="390" 
d="M313 414l-0.00292969 173c0 38 -10.5 66.833 -31.5 86.5s-51.167 29.5 -90.5 29.5c-21.333 0 -40 -2.33301 -56 -7s-32.667 -10.667 -50 -18l15 -42c14.667 6.66699 28.834 12 42.501 16s28.167 6 43.5 6c24.667 0 43.834 -6 57.501 -18s20.5 -29.667 20.5 -53v-5
c-11.333 3.33301 -23.166 6 -35.499 8s-27.166 3 -44.499 3c-36.667 0 -66.334 -8 -89.001 -24s-34 -39.333 -34 -70c0 -15.333 3.16699 -28.666 9.5 -39.999s14.5 -20.833 24.5 -28.5s21.333 -13.334 34 -17.001s25.667 -5.5 39 -5.5c21.333 0 39.833 4 55.5 12
s29.167 18.667 40.5 32v-38h49zM317.997 289v47h-260v-47h260zM263.997 520c0 -21.333 -8.66797 -38.334 -26.001 -51.001s-37.666 -19 -60.999 -19c-17.333 0 -32.333 4.33301 -45 13s-19 21.334 -19 38.001c0 16 6.5 29 19.5 39s31.5 15 55.5 15c16 0 30.167 -1 42.5 -3
s23.5 -4.66699 33.5 -8v-24z" />
    <glyph glyph-name="guillemotleft" unicode="&#xab;" horiz-adv-x="550" 
d="M433 476l-162 -213v-8l162 -214l58 34l-135 185l135 183zM210 476l-162 -213v-8l162 -214l59 34l-135 185l135 183z" />
    <glyph glyph-name="registered" unicode="&#xae;" horiz-adv-x="830" 
d="M777 351c0 49.333 -9.33301 96 -28 140s-44.167 82.333 -76.5 115s-70.5 58.5 -114.5 77.5s-91.333 28.5 -142 28.5s-98.167 -9.66699 -142.5 -29s-82.833 -45.5 -115.5 -78.5s-58.334 -71.5 -77.001 -115.5s-28 -90.667 -28 -140s9.33301 -96 28 -140
s44.167 -82.333 76.5 -115s70.5 -58.5 114.5 -77.5s91.333 -28.5 142 -28.5s98.167 9.66699 142.5 29s82.833 45.5 115.5 78.5s58.334 71.5 77.001 115.5s28 90.667 28 140zM744 351c0 -45.333 -8.33301 -88.166 -25 -128.499s-39.834 -75.5 -69.501 -105.5
s-64.667 -53.833 -105 -71.5s-83.833 -26.5 -130.5 -26.5s-90 8.66699 -130 26s-74.667 41 -104 71s-52.333 65 -69 105s-25 82.667 -25 128s8.33301 88.166 25 128.499s39.834 75.5 69.501 105.5s64.5 53.833 104.5 71.5s83.667 26.5 131 26.5
c46.667 0 90 -8.66699 130 -26s74.667 -41 104 -71s52.333 -65 69 -105s25 -82.667 25 -128zM579 434c0 34.667 -13 62 -39 82s-59.667 30 -101 30h-166v-371h55v140h95l107 -140h68l-115 149c28 6.66699 51 19 69 37s27 42.333 27 73zM522 431
c0 -21.333 -8.16699 -37.833 -24.5 -49.5s-37.5 -17.5 -63.5 -17.5h-106v132h109c26.667 0 47.5 -5.66699 62.5 -17s22.5 -27.333 22.5 -48z" />
    <glyph glyph-name="macron" unicode="&#xaf;" 
d="M408 600v67h-316v-67h316z" />
    <glyph glyph-name="macron" unicode="&#x2c9;" 
d="M408 600v67h-316v-67h316z" />
    <glyph glyph-name="degree" unicode="&#xb0;" horiz-adv-x="458" 
d="M386 553c0 20.667 -4.33301 40.167 -13 58.5s-20.334 34.5 -35.001 48.5s-31.334 25.167 -50.001 33.5s-38.334 12.5 -59.001 12.5s-40.5 -4.16699 -59.5 -12.5s-35.667 -19.5 -50 -33.5s-25.833 -30.167 -34.5 -48.5s-13 -37.833 -13 -58.5s4.33301 -40.167 13 -58.5
s20.167 -34.5 34.5 -48.5s31 -25.167 50 -33.5s38.833 -12.5 59.5 -12.5s40.334 4.16699 59.001 12.5s35.334 19.5 50.001 33.5s26.334 30.167 35.001 48.5s13 37.833 13 58.5zM328 553c0 -13.333 -2.5 -26 -7.5 -38s-11.833 -22.667 -20.5 -32s-19.167 -16.833 -31.5 -22.5
s-25.5 -8.5 -39.5 -8.5s-27.167 2.83301 -39.5 8.5s-22.833 13.167 -31.5 22.5s-15.5 20 -20.5 32s-7.5 24.667 -7.5 38s2.5 26 7.5 38s11.833 22.667 20.5 32s19.167 16.833 31.5 22.5s25.5 8.5 39.5 8.5s27.167 -2.83301 39.5 -8.5s22.833 -13.167 31.5 -22.5
s15.5 -20 20.5 -32s7.5 -24.667 7.5 -38z" />
    <glyph glyph-name="plusminus" unicode="&#xb1;" horiz-adv-x="604" 
d="M546 191c0 22.667 -3.66992 42.834 -11.0029 60.501s-17.166 33.5 -29.499 47.5s-27.166 25.833 -44.499 35.5s-36 17.834 -56 24.501c15.333 6 30.333 13.667 45 23s27.667 20.666 39 33.999s20.5 28.833 27.5 46.5s10.5 38.167 10.5 61.5
c0 27.333 -5.66699 52.5 -17 75.5s-27 42.833 -47 59.5s-44 29.667 -72 39s-58.667 14 -92 14c-55.333 0 -102.333 -11.833 -141 -35.5s-72 -55.167 -100 -94.5l58 -42c24 32 50.333 56.667 79 74s62.667 26 102 26c46 0 82.5 -11.5 109.5 -34.5s40.5 -52.5 40.5 -88.5
c0 -20 -4.16699 -38.167 -12.5 -54.5s-19.833 -30 -34.5 -41s-32.167 -19.5 -52.5 -25.5s-42.5 -9 -66.5 -9h-74v-68h72c59.333 0 105.333 -11.333 138 -34s49 -54 49 -94c0 -20 -4 -38 -12 -54s-19 -29.833 -33 -41.5s-30.667 -20.5 -50 -26.5s-40.333 -9 -63 -9
c-44.667 0 -84 9.33301 -118 28s-63.667 44 -89 76l-58 -50c29.333 -36.667 66.333 -66.834 111 -90.501s95.334 -35.5 152.001 -35.5c36 0 68.667 5.16699 98 15.5s54.5 24.666 75.5 42.999s37.333 39.833 49 64.5s17.5 51.334 17.5 80.001z" />
    <glyph glyph-name="acute" unicode="&#xb4;" 
d="M243 595l113 108l-80 37l-95 -145h62z" />
    <glyph glyph-name="mu" unicode="&#xb5;" horiz-adv-x="850" 
d="M782 351c0 48.667 -8.50195 94.835 -25.502 138.502s-41.167 82 -72.5 115s-68.833 59.167 -112.5 78.5s-92.167 29 -145.5 29s-102 -9.83301 -146 -29.5s-81.667 -46.167 -113 -79.5s-55.666 -71.833 -72.999 -115.5s-26 -89.834 -26 -138.501
s8.5 -94.834 25.5 -138.501s41.167 -82 72.5 -115s68.833 -59.167 112.5 -78.5s92.167 -29 145.5 -29c55.333 0 106.333 11.333 153 34l132 -123h116v6l-172 165c40.667 34 72.334 75.333 95.001 124s34 101 34 157zM699.998 349.001c0 -40 -6.83301 -77.5 -20.5 -112.5
s-32.5 -65.5 -56.5 -91.5s-52.833 -46.5 -86.5 -61.5s-70.5 -22.5 -110.5 -22.5s-76.833 7.66699 -110.5 23s-62.834 36 -87.501 62s-43.834 56.667 -57.501 92s-20.5 73 -20.5 113s6.83301 77.5 20.5 112.5s32.5 65.5 56.5 91.5s52.833 46.5 86.5 61.5
s70.5 22.5 110.5 22.5s76.833 -7.66699 110.5 -23s62.834 -36 87.501 -62s43.834 -56.667 57.501 -92s20.5 -73 20.5 -113z" />
    <glyph glyph-name="mu" unicode="&#x3bc;" horiz-adv-x="850" 
d="M782 351c0 48.667 -8.50195 94.835 -25.502 138.502s-41.167 82 -72.5 115s-68.833 59.167 -112.5 78.5s-92.167 29 -145.5 29s-102 -9.83301 -146 -29.5s-81.667 -46.167 -113 -79.5s-55.666 -71.833 -72.999 -115.5s-26 -89.834 -26 -138.501
s8.5 -94.834 25.5 -138.501s41.167 -82 72.5 -115s68.833 -59.167 112.5 -78.5s92.167 -29 145.5 -29c55.333 0 106.333 11.333 153 34l132 -123h116v6l-172 165c40.667 34 72.334 75.333 95.001 124s34 101 34 157zM699.998 349.001c0 -40 -6.83301 -77.5 -20.5 -112.5
s-32.5 -65.5 -56.5 -91.5s-52.833 -46.5 -86.5 -61.5s-70.5 -22.5 -110.5 -22.5s-76.833 7.66699 -110.5 23s-62.834 36 -87.501 62s-43.834 56.667 -57.501 92s-20.5 73 -20.5 113s6.83301 77.5 20.5 112.5s32.5 65.5 56.5 91.5s52.833 46.5 86.5 61.5
s70.5 22.5 110.5 22.5s76.833 -7.66699 110.5 -23s62.834 -36 87.501 -62s43.834 -56.667 57.501 -92s20.5 -73 20.5 -113z" />
    <glyph glyph-name="paragraph" unicode="&#xb6;" horiz-adv-x="510" 
d="M312 700c-39.333 0 -75.167 -5 -107.5 -15s-60 -24.333 -83 -43s-41 -41.5 -54 -68.5s-19.5 -57.5 -19.5 -91.5c0 -35.333 7.16699 -66.5 21.5 -93.5s34 -49.833 59 -68.5s54.5 -32.667 88.5 -42s70.667 -14 110 -14h11v-264h80v700h-106z" />
    <glyph glyph-name="periodcentered" unicode="&#xb7;" horiz-adv-x="245" 
d="M169 248v105h-92v-105h92z" />
    <glyph glyph-name="cedilla" unicode="&#xb8;" 
d="M240 10l-90 -131l75 -34l76 165h-61z" />
    <glyph glyph-name="ordmasculine" unicode="&#xba;" horiz-adv-x="390" 
d="M342 557c0 20 -3.66699 39 -11 57s-17.5 33.833 -30.5 47.5s-28.5 24.334 -46.5 32.001s-37.333 11.5 -58 11.5c-21.333 0 -41 -4 -59 -12s-33.667 -18.833 -47 -32.5s-23.666 -29.5 -30.999 -47.5s-11 -37.333 -11 -58c0 -20 3.66699 -39 11 -57
s17.5 -33.833 30.5 -47.5s28.333 -24.334 46 -32.001s37.167 -11.5 58.5 -11.5s41 4 59 12s33.667 18.833 47 32.5s23.666 29.5 30.999 47.5s11 37.333 11 58zM339 289v47h-288v-47h288zM288 555c0 -28 -8.33301 -51.6641 -25 -70.9971s-39 -29 -67 -29
c-13.333 0 -25.833 2.66699 -37.5 8s-21.667 12.666 -30 21.999s-14.833 20.166 -19.5 32.499s-7 25.5 -7 39.5c0 28 8.33301 51.667 25 71s39 29 67 29c27.333 0 49.833 -9.83301 67.5 -29.5s26.5 -43.834 26.5 -72.501z" />
    <glyph glyph-name="guillemotright" unicode="&#xbb;" horiz-adv-x="550" 
d="M340 41l162 214v8l-162 213l-59 -34l135 -184l-135 -184zM117 41l162 214v8l-162 213l-58 -34l135 -184l-135 -184z" />
    <glyph glyph-name="questiondown" unicode="&#xbf;" horiz-adv-x="537" 
d="M246 700v-105h92v105h-92zM327 335l5 5.00195l-16 162h-51l-9 -108c-28.667 -4 -55.5 -11 -80.5 -21s-47 -23.333 -66 -40s-34 -36.834 -45 -60.501s-16.5 -51.167 -16.5 -82.5c0 -28.667 5.33301 -55.167 16 -79.5s25.667 -45.333 45 -63s42.833 -31.5 70.5 -41.5
s58.5 -15 92.5 -15c53.333 0 98.5 10.667 135.5 32s69.833 49.333 98.5 84l-51 49c-25.333 -30 -52.666 -53.167 -81.999 -69.5s-62.333 -24.5 -99 -24.5c-22.667 0 -43 3.33301 -61 10s-33.333 16 -46 28s-22.334 26 -29.001 42s-10 33 -10 51
c0 42.667 16.833 76.667 50.5 102s83.167 38.666 148.5 39.999z" />
    <glyph glyph-name="Agrave" unicode="&#xc0;" horiz-adv-x="790" 
d="M432 705h-74l-319 -705h81l83 185h381l82 -185h85zM553 256h-319l160 357zM363 762h62l-95 145l-80 -37z" />
    <glyph glyph-name="Aacute" unicode="&#xc1;" horiz-adv-x="790" 
d="M432 705h-74l-319 -705h81l83 185h381l82 -185h85zM553 256h-319l160 357zM427 762l113 108l-80 37l-95 -145h62z" />
    <glyph glyph-name="Acircumflex" unicode="&#xc2;" horiz-adv-x="790" 
d="M432 705h-74l-319 -705h81l83 185h381l82 -185h85zM553 256h-319l160 357zM394 826l75 -67h66l-106 131h-68l-106 -131h64z" />
    <glyph glyph-name="Atilde" unicode="&#xc3;" horiz-adv-x="790" 
d="M432 705h-74l-319 -705h81l83 185h381l82 -185h85zM553 256h-319l160 357zM559 867l-47 13c-7.33301 -18 -14.5 -30.667 -21.5 -38s-17.167 -11 -30.5 -11c-8.66699 0 -18.334 2 -29.001 6s-22 8.5 -34 13.5s-24 9.66699 -36 14s-23.667 6.5 -35 6.5
c-24 0 -43.333 -8 -58 -24s-27 -43 -37 -81l47 -13c7.33301 18 14.5 30.667 21.5 38s17.167 11 30.5 11c8.66699 0 18.334 -2.16699 29.001 -6.5l34 -14c12 -5 24 -9.5 36 -13.5s23.667 -6 35 -6c24 0 43.333 8 58 24s27 43 37 81z" />
    <glyph glyph-name="Adieresis" unicode="&#xc4;" horiz-adv-x="790" 
d="M432 705h-74l-319 -705h81l83 185h381l82 -185h85zM553 256h-319l160 357zM528 762v95h-90v-95h90zM352 762v95h-90v-95h90z" />
    <glyph glyph-name="Aring" unicode="&#xc5;" horiz-adv-x="790" 
d="M346 680l-306.998 -680h81l83 185h381l82 -185h85l-307 680c16 8.66699 29.167 20.5 39.5 35.5s15.5 32.167 15.5 51.5c0 14 -2.83301 27 -8.5 39s-13.334 22.5 -23.001 31.5s-20.667 16.167 -33 21.5s-25.5 8 -39.5 8s-27.167 -2.66699 -39.5 -8
s-23.333 -12.5 -33 -21.5s-17.334 -19.5 -23.001 -31.5s-8.5 -25 -8.5 -39c0 -19.333 5.16699 -36.5 15.5 -51.5s23.5 -26.833 39.5 -35.5zM457.002 767c0 -17.333 -6 -32 -18 -44s-26.667 -18 -44 -18s-32 6 -44 18s-18 26.667 -18 44s6 32 18 44s26.667 18 44 18
s32 -6 44 -18s18 -26.667 18 -44zM553.002 256h-319l160 357z" />
    <glyph glyph-name="AE" unicode="&#xc6;" horiz-adv-x="1045" 
d="M209 185h282v-185h494v72h-414v245h364v72h-364v239h409v72h-552l-411 -700h83zM467 630h24v-374h-242z" />
    <glyph glyph-name="Ccedilla" unicode="&#xc7;" horiz-adv-x="738" 
d="M371 -9l-77.002 -112.001l75 -34l66 143c29.333 1.33301 56.333 5.16602 81 11.499s47.667 14.833 69 25.5s41.333 23.167 60 37.5s36.667 30.5 54 48.5l-52 51c-33.333 -32 -67.333 -56.833 -102 -74.5s-76 -26.5 -124 -26.5c-38.667 0 -74.5 7.5 -107.5 22.5
s-61.667 35.5 -86 61.5s-43.333 56.667 -57 92s-20.5 73.333 -20.5 114s6.83301 78.5 20.5 113.5s32.667 65.5 57 91.5s53 46.333 86 61s68.833 22 107.5 22c48 0 89.167 -9 123.5 -27s66.5 -41 96.5 -69l54 58c-17.333 16.667 -35.333 31.834 -54 45.501
s-39 25.334 -61 35.001s-45.833 17.167 -71.5 22.5s-54.5 8 -86.5 8c-51.333 0 -98.666 -9.5 -141.999 -28.5s-80.666 -45 -111.999 -78s-55.833 -71.5 -73.5 -115.5s-26.5 -91 -26.5 -141c0 -46.667 7.5 -90.5 22.5 -131.5s35.833 -77.333 62.5 -109s58.667 -57.667 96 -78
s78 -33.5 122 -39.5z" />
    <glyph glyph-name="Egrave" unicode="&#xc8;" horiz-adv-x="670" 
d="M605 700h-506v-700h511v72h-432v245h382v72h-382v239h427v72zM340 762h62l-95 145l-80 -37z" />
    <glyph glyph-name="Eacute" unicode="&#xc9;" horiz-adv-x="670" 
d="M605 700h-506v-700h511v72h-432v245h382v72h-382v239h427v72zM359 762l113 108l-80 37l-95 -145h62z" />
    <glyph glyph-name="Ecircumflex" unicode="&#xca;" horiz-adv-x="670" 
d="M605 700h-506v-700h511v72h-432v245h382v72h-382v239h427v72zM347 829l75 -67h66l-106 131h-68l-106 -131h64z" />
    <glyph glyph-name="Edieresis" unicode="&#xcb;" horiz-adv-x="670" 
d="M605 700h-506v-700h511v72h-432v245h382v72h-382v239h427v72zM481 762v95h-90v-95h90zM305 762v95h-90v-95h90z" />
    <glyph glyph-name="Igrave" unicode="&#xcc;" horiz-adv-x="291" 
d="M106 700v-700h79v700h-79zM220 762h62l-95 145l-80 -37z" />
    <glyph glyph-name="Iacute" unicode="&#xcd;" horiz-adv-x="291" 
d="M106 700v-700h79v700h-79zM177 762l113 108l-80 37l-95 -145h62z" />
    <glyph glyph-name="Icircumflex" unicode="&#xce;" horiz-adv-x="291" 
d="M106 700v-700h79v700h-79zM246 829l75 -67h66l-106 131h-68l-106 -131h64z" />
    <glyph glyph-name="Idieresis" unicode="&#xcf;" horiz-adv-x="291" 
d="M106 700v-700h79v700h-79zM373 762v95h-90v-95h90zM197 762v95h-90v-95h90z" />
    <glyph glyph-name="Eth" unicode="&#xd0;" horiz-adv-x="812" 
d="M129 316v-316h243c54.667 0 104.834 9 150.501 27s85 42.667 118 74s58.5 68.5 76.5 111.5s27 89.167 27 138.5s-9 95.333 -27 138s-43.5 79.667 -76.5 111s-72.333 55.833 -118 73.5s-95.834 26.5 -150.501 26.5h-243v-312h-75v-72h75zM208 388v238.999h164
c44 0 84 -7.16699 120 -21.5s66.5 -34 91.5 -59s44.333 -54.5 58 -88.5s20.5 -70.333 20.5 -109c0 -39.333 -6.83301 -75.666 -20.5 -108.999s-33 -62.5 -58 -87.5s-55.5 -44.5 -91.5 -58.5s-76 -21 -120 -21h-164v243h210v72h-210z" />
    <glyph glyph-name="Ntilde" unicode="&#xd1;" horiz-adv-x="790" 
d="M614 139l-441 561h-74v-700h77v574l452 -574h63v700h-77v-561zM559 867l-47 13c-7.33301 -18 -14.5 -30.667 -21.5 -38s-17.167 -11 -30.5 -11c-8.66699 0 -18.334 2 -29.001 6s-22 8.5 -34 13.5s-24 9.66699 -36 14s-23.667 6.5 -35 6.5c-24 0 -43.333 -8 -58 -24
s-27 -43 -37 -81l47 -13c7.33301 18 14.5 30.667 21.5 38s17.167 11 30.5 11c8.66699 0 18.334 -2.16699 29.001 -6.5l34 -14c12 -5 24 -9.5 36 -13.5s23.667 -6 35 -6c24 0 43.333 8 58 24s27 43 37 81z" />
    <glyph glyph-name="Ograve" unicode="&#xd2;" horiz-adv-x="850" 
d="M782 351c0 48.667 -8.5 94.834 -25.5 138.501s-41.167 82 -72.5 115s-68.833 59.167 -112.5 78.5s-92.167 29 -145.5 29s-102 -9.83301 -146 -29.5s-81.667 -46.167 -113 -79.5s-55.666 -71.833 -72.999 -115.5s-26 -89.834 -26 -138.501s8.5 -94.834 25.5 -138.501
s41.167 -82 72.5 -115s68.833 -59.167 112.5 -78.5s92.167 -29 145.5 -29s102 9.83301 146 29.5s81.667 46.167 113 79.5s55.666 71.833 72.999 115.5s26 89.834 26 138.501zM700 349c0 -40 -6.83301 -77.5 -20.5 -112.5s-32.5 -65.5 -56.5 -91.5s-52.833 -46.5 -86.5 -61.5
s-70.5 -22.5 -110.5 -22.5s-76.833 7.66699 -110.5 23s-62.834 36 -87.501 62s-43.834 56.667 -57.501 92s-20.5 73 -20.5 113s6.83301 77.5 20.5 112.5s32.5 65.5 56.5 91.5s52.833 46.5 86.5 61.5s70.5 22.5 110.5 22.5s76.833 -7.66699 110.5 -23s62.834 -36 87.501 -62
s43.834 -56.667 57.501 -92s20.5 -73 20.5 -113zM389 762h62l-95 145l-80 -37z" />
    <glyph glyph-name="Oacute" unicode="&#xd3;" horiz-adv-x="850" 
d="M782 351c0 48.667 -8.5 94.834 -25.5 138.501s-41.167 82 -72.5 115s-68.833 59.167 -112.5 78.5s-92.167 29 -145.5 29s-102 -9.83301 -146 -29.5s-81.667 -46.167 -113 -79.5s-55.666 -71.833 -72.999 -115.5s-26 -89.834 -26 -138.501s8.5 -94.834 25.5 -138.501
s41.167 -82 72.5 -115s68.833 -59.167 112.5 -78.5s92.167 -29 145.5 -29s102 9.83301 146 29.5s81.667 46.167 113 79.5s55.666 71.833 72.999 115.5s26 89.834 26 138.501zM700 349c0 -40 -6.83301 -77.5 -20.5 -112.5s-32.5 -65.5 -56.5 -91.5s-52.833 -46.5 -86.5 -61.5
s-70.5 -22.5 -110.5 -22.5s-76.833 7.66699 -110.5 23s-62.834 36 -87.501 62s-43.834 56.667 -57.501 92s-20.5 73 -20.5 113s6.83301 77.5 20.5 112.5s32.5 65.5 56.5 91.5s52.833 46.5 86.5 61.5s70.5 22.5 110.5 22.5s76.833 -7.66699 110.5 -23s62.834 -36 87.501 -62
s43.834 -56.667 57.501 -92s20.5 -73 20.5 -113zM461 762l113 108l-80 37l-95 -145h62z" />
    <glyph glyph-name="Ocircumflex" unicode="&#xd4;" horiz-adv-x="850" 
d="M782 351c0 48.667 -8.5 94.834 -25.5 138.501s-41.167 82 -72.5 115s-68.833 59.167 -112.5 78.5s-92.167 29 -145.5 29s-102 -9.83301 -146 -29.5s-81.667 -46.167 -113 -79.5s-55.666 -71.833 -72.999 -115.5s-26 -89.834 -26 -138.501s8.5 -94.834 25.5 -138.501
s41.167 -82 72.5 -115s68.833 -59.167 112.5 -78.5s92.167 -29 145.5 -29s102 9.83301 146 29.5s81.667 46.167 113 79.5s55.666 71.833 72.999 115.5s26 89.834 26 138.501zM700 349c0 -40 -6.83301 -77.5 -20.5 -112.5s-32.5 -65.5 -56.5 -91.5s-52.833 -46.5 -86.5 -61.5
s-70.5 -22.5 -110.5 -22.5s-76.833 7.66699 -110.5 23s-62.834 36 -87.501 62s-43.834 56.667 -57.501 92s-20.5 73 -20.5 113s6.83301 77.5 20.5 112.5s32.5 65.5 56.5 91.5s52.833 46.5 86.5 61.5s70.5 22.5 110.5 22.5s76.833 -7.66699 110.5 -23s62.834 -36 87.501 -62
s43.834 -56.667 57.501 -92s20.5 -73 20.5 -113zM424 829l75 -67h66l-106 131h-68l-106 -131h64z" />
    <glyph glyph-name="Otilde" unicode="&#xd5;" horiz-adv-x="850" 
d="M782 351c0 48.667 -8.5 94.834 -25.5 138.501s-41.167 82 -72.5 115s-68.833 59.167 -112.5 78.5s-92.167 29 -145.5 29s-102 -9.83301 -146 -29.5s-81.667 -46.167 -113 -79.5s-55.666 -71.833 -72.999 -115.5s-26 -89.834 -26 -138.501s8.5 -94.834 25.5 -138.501
s41.167 -82 72.5 -115s68.833 -59.167 112.5 -78.5s92.167 -29 145.5 -29s102 9.83301 146 29.5s81.667 46.167 113 79.5s55.666 71.833 72.999 115.5s26 89.834 26 138.501zM700 349c0 -40 -6.83301 -77.5 -20.5 -112.5s-32.5 -65.5 -56.5 -91.5s-52.833 -46.5 -86.5 -61.5
s-70.5 -22.5 -110.5 -22.5s-76.833 7.66699 -110.5 23s-62.834 36 -87.501 62s-43.834 56.667 -57.501 92s-20.5 73 -20.5 113s6.83301 77.5 20.5 112.5s32.5 65.5 56.5 91.5s52.833 46.5 86.5 61.5s70.5 22.5 110.5 22.5s76.833 -7.66699 110.5 -23s62.834 -36 87.501 -62
s43.834 -56.667 57.501 -92s20.5 -73 20.5 -113zM589 867l-47 13c-7.33301 -18 -14.5 -30.667 -21.5 -38s-17.167 -11 -30.5 -11c-8.66699 0 -18.334 2 -29.001 6s-22 8.5 -34 13.5s-24 9.66699 -36 14s-23.667 6.5 -35 6.5c-24 0 -43.333 -8 -58 -24s-27 -43 -37 -81
l47 -13c7.33301 18 14.5 30.667 21.5 38s17.167 11 30.5 11c8.66699 0 18.334 -2.16699 29.001 -6.5l34 -14c12 -5 24 -9.5 36 -13.5s23.667 -6 35 -6c24 0 43.333 8 58 24s27 43 37 81z" />
    <glyph glyph-name="Odieresis" unicode="&#xd6;" horiz-adv-x="850" 
d="M782 351c0 48.667 -8.5 94.834 -25.5 138.501s-41.167 82 -72.5 115s-68.833 59.167 -112.5 78.5s-92.167 29 -145.5 29s-102 -9.83301 -146 -29.5s-81.667 -46.167 -113 -79.5s-55.666 -71.833 -72.999 -115.5s-26 -89.834 -26 -138.501s8.5 -94.834 25.5 -138.501
s41.167 -82 72.5 -115s68.833 -59.167 112.5 -78.5s92.167 -29 145.5 -29s102 9.83301 146 29.5s81.667 46.167 113 79.5s55.666 71.833 72.999 115.5s26 89.834 26 138.501zM700 349c0 -40 -6.83301 -77.5 -20.5 -112.5s-32.5 -65.5 -56.5 -91.5s-52.833 -46.5 -86.5 -61.5
s-70.5 -22.5 -110.5 -22.5s-76.833 7.66699 -110.5 23s-62.834 36 -87.501 62s-43.834 56.667 -57.501 92s-20.5 73 -20.5 113s6.83301 77.5 20.5 112.5s32.5 65.5 56.5 91.5s52.833 46.5 86.5 61.5s70.5 22.5 110.5 22.5s76.833 -7.66699 110.5 -23s62.834 -36 87.501 -62
s43.834 -56.667 57.501 -92s20.5 -73 20.5 -113zM558 762v95h-90v-95h90zM382 762v95h-90v-95h90z" />
    <glyph glyph-name="Oslash" unicode="&#xd8;" horiz-adv-x="850" 
d="M782 351c0 46.667 -7.83301 91.167 -23.5 133.5s-38.167 79.5 -67.5 111.5l99 109h-83l-62 -67c-29.333 23.333 -62.333 41.5 -99 54.5s-76.667 19.5 -120 19.5c-53.333 0 -102 -9.83301 -146 -29.5s-81.667 -46.167 -113 -79.5s-55.666 -71.833 -72.999 -115.5
s-26 -89.834 -26 -138.501c0 -46.667 7.83301 -91.167 23.5 -133.5s38.167 -79.833 67.5 -112.5l-99 -108h83l62 67c29.333 -23.333 62.333 -41.5 99 -54.5s76.667 -19.5 120 -19.5c53.333 0 102 9.83301 146 29.5s81.667 46.167 113 79.5s55.666 71.833 72.999 115.5
s26 89.834 26 138.501zM595 580l-382.999 -417c-20 25.333 -35.5 54 -46.5 86s-16.5 66 -16.5 102c0 40 6.83301 77.667 20.5 113s32.667 66 57 92s53.333 46.667 87 62s70.5 23 110.5 23c34 0 65.167 -5.5 93.5 -16.5s54.166 -25.833 77.499 -44.5zM701.001 349
c0 -40 -6.83398 -77.667 -20.501 -113s-32.667 -66 -57 -92s-53.333 -46.667 -87 -62s-70.5 -23 -110.5 -23c-34 0 -65.167 5.5 -93.5 16.5s-54.166 25.833 -77.499 44.5l383 417c20 -25.333 35.5 -54 46.5 -86s16.5 -66 16.5 -102z" />
    <glyph glyph-name="Ugrave" unicode="&#xd9;" horiz-adv-x="759" 
d="M671 700l-79.002 0.000976562v-407c0 -76.667 -19 -134.334 -57 -173.001s-89.333 -58 -154 -58c-67.333 0 -119.833 20.333 -157.5 61s-56.5 99 -56.5 175v402h-79v-407c0 -49.333 7 -93 21 -131s33.833 -69.833 59.5 -95.5s56.334 -45 92.001 -58
s75.167 -19.5 118.5 -19.5c44 0 83.833 6.5 119.5 19.5s66.334 32.5 92.001 58.5s45.5 58.333 59.5 97s21 83.667 21 135v401zM353.998 757.001h62l-95 145l-80 -37z" />
    <glyph glyph-name="Uacute" unicode="&#xda;" horiz-adv-x="759" 
d="M671 700l-79.002 0.000976562v-407c0 -76.667 -19 -134.334 -57 -173.001s-89.333 -58 -154 -58c-67.333 0 -119.833 20.333 -157.5 61s-56.5 99 -56.5 175v402h-79v-407c0 -49.333 7 -93 21 -131s33.833 -69.833 59.5 -95.5s56.334 -45 92.001 -58
s75.167 -19.5 118.5 -19.5c44 0 83.833 6.5 119.5 19.5s66.334 32.5 92.001 58.5s45.5 58.333 59.5 97s21 83.667 21 135v401zM404.998 757.001l113 108l-80 37l-95 -145h62z" />
    <glyph glyph-name="Ucircumflex" unicode="&#xdb;" horiz-adv-x="759" 
d="M671 700l-79.002 0.000976562v-407c0 -76.667 -19 -134.334 -57 -173.001s-89.333 -58 -154 -58c-67.333 0 -119.833 20.333 -157.5 61s-56.5 99 -56.5 175v402h-79v-407c0 -49.333 7 -93 21 -131s33.833 -69.833 59.5 -95.5s56.334 -45 92.001 -58
s75.167 -19.5 118.5 -19.5c44 0 83.833 6.5 119.5 19.5s66.334 32.5 92.001 58.5s45.5 58.333 59.5 97s21 83.667 21 135v401zM377.998 826.001l75 -67h66l-106 131h-68l-106 -131h64z" />
    <glyph glyph-name="Udieresis" unicode="&#xdc;" horiz-adv-x="759" 
d="M671 700l-79.002 0.000976562v-407c0 -76.667 -19 -134.334 -57 -173.001s-89.333 -58 -154 -58c-67.333 0 -119.833 20.333 -157.5 61s-56.5 99 -56.5 175v402h-79v-407c0 -49.333 7 -93 21 -131s33.833 -69.833 59.5 -95.5s56.334 -45 92.001 -58
s75.167 -19.5 118.5 -19.5c44 0 83.833 6.5 119.5 19.5s66.334 32.5 92.001 58.5s45.5 58.333 59.5 97s21 83.667 21 135v401zM511.998 759.001v95h-90v-95h90zM335.998 759.001v95h-90v-95h90z" />
    <glyph glyph-name="Yacute" unicode="&#xdd;" horiz-adv-x="716" 
d="M398 278l291 422h-92l-238 -350l-236 350h-96l291 -423v-277h80v278zM391 757l113 108l-80 37l-95 -145h62z" />
    <glyph glyph-name="Thorn" unicode="&#xde;" horiz-adv-x="673" 
d="M623 357c0 34.667 -6.16699 65.8311 -18.5 93.498s-30 51 -53 70s-50.667 33.667 -83 44s-68.166 15.5 -107.499 15.5h-183v120h-79v-700h79v126h170c37.333 0 72.666 4.83301 105.999 14.5s62.5 24.334 87.5 44.001s44.833 43.834 59.5 72.501s22 62 22 100z
M543 353.997c0 -23.333 -4.49902 -44.498 -13.499 -63.498s-22 -35.333 -39 -49s-37.333 -24.334 -61 -32.001s-49.834 -11.5 -78.501 -11.5h-173v309h177c56.667 0 102.167 -12.833 136.5 -38.5s51.5 -63.834 51.5 -114.501z" />
    <glyph glyph-name="germandbls" unicode="&#xdf;" horiz-adv-x="620" 
d="M519 556c0 25.333 -4.83105 49.0039 -14.498 71.0039s-23.5 41.167 -41.5 57.5s-39.667 29.166 -65 38.499s-53.666 14 -84.999 14c-34.667 0 -66 -5.66699 -94 -17s-51.833 -27.333 -71.5 -48s-34.834 -45.5 -45.501 -74.5s-16 -61.167 -16 -96.5v-501h77v502
c0 51.333 13.667 92 41 122s62.333 45 105 45c39.333 0 71 -10.833 95 -32.5s36 -50.167 36 -85.5c0 -20.667 -3.83301 -39.334 -11.5 -56.001s-18 -31.667 -31 -45s-28.667 -25 -47 -35s-37.833 -19 -58.5 -27v-57c58.667 -6 105.167 -20.333 139.5 -43
s51.5 -54.334 51.5 -95.001c0 -42.667 -17 -75.167 -51 -97.5s-80.667 -34.166 -140 -35.499v-62c41.333 -0.666992 78.666 3.33301 111.999 12s61.666 21.334 84.999 38.001s41.333 37.167 54 61.5s19 52.166 19 83.499c0 26 -5 49 -15 69s-23.5 37.333 -40.5 52
s-36.333 26.667 -58 36s-44.5 16.666 -68.5 21.999c17.333 7.33301 34.333 16.666 51 27.999s31.5 24.5 44.5 39.5s23.5 32.167 31.5 51.5s12 41 12 65z" />
    <glyph glyph-name="agrave" unicode="&#xe0;" horiz-adv-x="579" 
d="M273 456c48.667 0 86.501 -11.8311 113.501 -35.498s40.5 -58.834 40.5 -105.501v-18c-23.333 6.66699 -47.333 12 -72 16s-53.667 6 -87 6c-32.667 0 -62.5 -3.66699 -89.5 -11s-50.333 -18 -70 -32s-34.834 -31.5 -45.501 -52.5s-16 -45.167 -16 -72.5
s5.5 -51 16.5 -71s25.667 -36.833 44 -50.5s39 -23.834 62 -30.501s46.5 -10 70.5 -10c46 0 84.167 9 114.5 27s54.5 38.667 72.5 62v-78h74v316c0 68.667 -19 120.5 -57 155.5s-92.333 52.5 -163 52.5c-38 0 -71.667 -3.83301 -101 -11.5s-58.333 -18.167 -87 -31.5l23 -63
c24 11.333 48.5 20.5 73.5 27.5s52.833 10.5 83.5 10.5zM276.001 262.002c32 0 60.5 -2.33301 85.5 -7s47.167 -9.66699 66.5 -15v-50c0 -20.667 -4.5 -39.5 -13.5 -56.5s-21.333 -31.667 -37 -44s-34 -22 -55 -29s-43.5 -10.5 -67.5 -10.5
c-17.333 0 -33.833 2.33301 -49.5 7s-29.5 11.5 -41.5 20.5s-21.5 19.833 -28.5 32.5s-10.5 27.334 -10.5 44.001c0 33.333 13 59.666 39 78.999s63.333 29 112 29zM261.001 595.002h62l-95 145l-80 -37z" />
    <glyph glyph-name="aacute" unicode="&#xe1;" horiz-adv-x="579" 
d="M273 456c48.667 0 86.501 -11.8311 113.501 -35.498s40.5 -58.834 40.5 -105.501v-18c-23.333 6.66699 -47.333 12 -72 16s-53.667 6 -87 6c-32.667 0 -62.5 -3.66699 -89.5 -11s-50.333 -18 -70 -32s-34.834 -31.5 -45.501 -52.5s-16 -45.167 -16 -72.5
s5.5 -51 16.5 -71s25.667 -36.833 44 -50.5s39 -23.834 62 -30.501s46.5 -10 70.5 -10c46 0 84.167 9 114.5 27s54.5 38.667 72.5 62v-78h74v316c0 68.667 -19 120.5 -57 155.5s-92.333 52.5 -163 52.5c-38 0 -71.667 -3.83301 -101 -11.5s-58.333 -18.167 -87 -31.5l23 -63
c24 11.333 48.5 20.5 73.5 27.5s52.833 10.5 83.5 10.5zM276.001 262.002c32 0 60.5 -2.33301 85.5 -7s47.167 -9.66699 66.5 -15v-50c0 -20.667 -4.5 -39.5 -13.5 -56.5s-21.333 -31.667 -37 -44s-34 -22 -55 -29s-43.5 -10.5 -67.5 -10.5
c-17.333 0 -33.833 2.33301 -49.5 7s-29.5 11.5 -41.5 20.5s-21.5 19.833 -28.5 32.5s-10.5 27.334 -10.5 44.001c0 33.333 13 59.666 39 78.999s63.333 29 112 29zM310.001 595.002l113 108l-80 37l-95 -145h62z" />
    <glyph glyph-name="acircumflex" unicode="&#xe2;" horiz-adv-x="579" 
d="M273 456c48.667 0 86.501 -11.8311 113.501 -35.498s40.5 -58.834 40.5 -105.501v-18c-23.333 6.66699 -47.333 12 -72 16s-53.667 6 -87 6c-32.667 0 -62.5 -3.66699 -89.5 -11s-50.333 -18 -70 -32s-34.834 -31.5 -45.501 -52.5s-16 -45.167 -16 -72.5
s5.5 -51 16.5 -71s25.667 -36.833 44 -50.5s39 -23.834 62 -30.501s46.5 -10 70.5 -10c46 0 84.167 9 114.5 27s54.5 38.667 72.5 62v-78h74v316c0 68.667 -19 120.5 -57 155.5s-92.333 52.5 -163 52.5c-38 0 -71.667 -3.83301 -101 -11.5s-58.333 -18.167 -87 -31.5l23 -63
c24 11.333 48.5 20.5 73.5 27.5s52.833 10.5 83.5 10.5zM276.001 262.002c32 0 60.5 -2.33301 85.5 -7s47.167 -9.66699 66.5 -15v-50c0 -20.667 -4.5 -39.5 -13.5 -56.5s-21.333 -31.667 -37 -44s-34 -22 -55 -29s-43.5 -10.5 -67.5 -10.5
c-17.333 0 -33.833 2.33301 -49.5 7s-29.5 11.5 -41.5 20.5s-21.5 19.833 -28.5 32.5s-10.5 27.334 -10.5 44.001c0 33.333 13 59.666 39 78.999s63.333 29 112 29zM290.001 662.002l75 -67h66l-106 131h-68l-106 -131h64z" />
    <glyph glyph-name="atilde" unicode="&#xe3;" horiz-adv-x="579" 
d="M273 456c48.667 0 86.501 -11.8311 113.501 -35.498s40.5 -58.834 40.5 -105.501v-18c-23.333 6.66699 -47.333 12 -72 16s-53.667 6 -87 6c-32.667 0 -62.5 -3.66699 -89.5 -11s-50.333 -18 -70 -32s-34.834 -31.5 -45.501 -52.5s-16 -45.167 -16 -72.5
s5.5 -51 16.5 -71s25.667 -36.833 44 -50.5s39 -23.834 62 -30.501s46.5 -10 70.5 -10c46 0 84.167 9 114.5 27s54.5 38.667 72.5 62v-78h74v316c0 68.667 -19 120.5 -57 155.5s-92.333 52.5 -163 52.5c-38 0 -71.667 -3.83301 -101 -11.5s-58.333 -18.167 -87 -31.5l23 -63
c24 11.333 48.5 20.5 73.5 27.5s52.833 10.5 83.5 10.5zM276.001 262.002c32 0 60.5 -2.33301 85.5 -7s47.167 -9.66699 66.5 -15v-50c0 -20.667 -4.5 -39.5 -13.5 -56.5s-21.333 -31.667 -37 -44s-34 -22 -55 -29s-43.5 -10.5 -67.5 -10.5
c-17.333 0 -33.833 2.33301 -49.5 7s-29.5 11.5 -41.5 20.5s-21.5 19.833 -28.5 32.5s-10.5 27.334 -10.5 44.001c0 33.333 13 59.666 39 78.999s63.333 29 112 29zM456.001 700.002l-47 13c-7.33301 -18 -14.5 -30.667 -21.5 -38s-17.167 -11 -30.5 -11
c-8.66699 0 -18.334 2 -29.001 6s-22 8.5 -34 13.5s-24 9.66699 -36 14s-23.667 6.5 -35 6.5c-24 0 -43.333 -8 -58 -24s-27 -43 -37 -81l47 -13c7.33301 18 14.5 30.667 21.5 38s17.167 11 30.5 11c8.66699 0 18.334 -2.16699 29.001 -6.5l34 -14c12 -5 24 -9.5 36 -13.5
s23.667 -6 35 -6c24 0 43.333 8 58 24s27 43 37 81z" />
    <glyph glyph-name="adieresis" unicode="&#xe4;" horiz-adv-x="579" 
d="M273 456c48.667 0 86.501 -11.8311 113.501 -35.498s40.5 -58.834 40.5 -105.501v-18c-23.333 6.66699 -47.333 12 -72 16s-53.667 6 -87 6c-32.667 0 -62.5 -3.66699 -89.5 -11s-50.333 -18 -70 -32s-34.834 -31.5 -45.501 -52.5s-16 -45.167 -16 -72.5
s5.5 -51 16.5 -71s25.667 -36.833 44 -50.5s39 -23.834 62 -30.501s46.5 -10 70.5 -10c46 0 84.167 9 114.5 27s54.5 38.667 72.5 62v-78h74v316c0 68.667 -19 120.5 -57 155.5s-92.333 52.5 -163 52.5c-38 0 -71.667 -3.83301 -101 -11.5s-58.333 -18.167 -87 -31.5l23 -63
c24 11.333 48.5 20.5 73.5 27.5s52.833 10.5 83.5 10.5zM276.001 262.002c32 0 60.5 -2.33301 85.5 -7s47.167 -9.66699 66.5 -15v-50c0 -20.667 -4.5 -39.5 -13.5 -56.5s-21.333 -31.667 -37 -44s-34 -22 -55 -29s-43.5 -10.5 -67.5 -10.5
c-17.333 0 -33.833 2.33301 -49.5 7s-29.5 11.5 -41.5 20.5s-21.5 19.833 -28.5 32.5s-10.5 27.334 -10.5 44.001c0 33.333 13 59.666 39 78.999s63.333 29 112 29zM424.001 595.002v95h-90v-95h90zM248.001 595.002v95h-90v-95h90z" />
    <glyph glyph-name="aring" unicode="&#xe5;" horiz-adv-x="579" 
d="M273 456c48.667 0 86.501 -11.8311 113.501 -35.498s40.5 -58.834 40.5 -105.501v-18c-23.333 6.66699 -47.333 12 -72 16s-53.667 6 -87 6c-32.667 0 -62.5 -3.66699 -89.5 -11s-50.333 -18 -70 -32s-34.834 -31.5 -45.501 -52.5s-16 -45.167 -16 -72.5
s5.5 -51 16.5 -71s25.667 -36.833 44 -50.5s39 -23.834 62 -30.501s46.5 -10 70.5 -10c46 0 84.167 9 114.5 27s54.5 38.667 72.5 62v-78h74v316c0 68.667 -19 120.5 -57 155.5s-92.333 52.5 -163 52.5c-38 0 -71.667 -3.83301 -101 -11.5s-58.333 -18.167 -87 -31.5l23 -63
c24 11.333 48.5 20.5 73.5 27.5s52.833 10.5 83.5 10.5zM276.001 262.002c32 0 60.5 -2.33301 85.5 -7s47.167 -9.66699 66.5 -15v-50c0 -20.667 -4.5 -39.5 -13.5 -56.5s-21.333 -31.667 -37 -44s-34 -22 -55 -29s-43.5 -10.5 -67.5 -10.5
c-17.333 0 -33.833 2.33301 -49.5 7s-29.5 11.5 -41.5 20.5s-21.5 19.833 -28.5 32.5s-10.5 27.334 -10.5 44.001c0 33.333 13 59.666 39 78.999s63.333 29 112 29zM395.001 693.002c0 14 -2.83301 27 -8.5 39s-13.334 22.5 -23.001 31.5s-20.667 16.167 -33 21.5
s-25.5 8 -39.5 8s-27.167 -2.66699 -39.5 -8s-23.333 -12.5 -33 -21.5s-17.334 -19.5 -23.001 -31.5s-8.5 -25 -8.5 -39s2.83301 -27 8.5 -39s13.334 -22.5 23.001 -31.5s20.667 -16.167 33 -21.5s25.5 -8 39.5 -8s27.167 2.66699 39.5 8s23.333 12.5 33 21.5
s17.334 19.5 23.001 31.5s8.5 25 8.5 39zM353.001 693.002c0 -17.333 -6 -32 -18 -44s-26.667 -18 -44 -18s-32 6 -44 18s-18 26.667 -18 44s6 32 18 44s26.667 18 44 18s32 -6 44 -18s18 -26.667 18 -44z" />
    <glyph glyph-name="ae" unicode="&#xe6;" horiz-adv-x="953" 
d="M468 92c23.333 -32.667 52.834 -58.166 88.501 -76.499s74.5 -27.5 116.5 -27.5c49.333 0 90.833 8.83301 124.5 26.5s63.167 41.167 88.5 70.5l-48 43c-21.333 -22 -44.833 -39.667 -70.5 -53s-56.5 -20 -92.5 -20c-22.667 0 -44.334 3.83301 -65.001 11.5
s-39.167 19 -55.5 34s-29.833 33.333 -40.5 55s-17.334 46.5 -20.001 74.5h409c0.666992 4.66699 1.16699 9 1.5 13s0.5 7.66699 0.5 11c0 38 -5.5 73.667 -16.5 107s-26.667 62.333 -47 87s-45.5 44.167 -75.5 58.5s-64 21.5 -102 21.5
c-42.667 0 -81.167 -10.5 -115.5 -31.5s-61.833 -48.833 -82.5 -83.5c-13.333 37.333 -36 65.166 -68 83.499s-72.667 27.5 -122 27.5c-37.333 0 -70 -3.83301 -98 -11.5s-56.333 -18.167 -85 -31.5l23 -63c24 11.333 47.833 20.5 71.5 27.5s50.5 10.5 80.5 10.5
c48 0 84.833 -11.833 110.5 -35.5s38.5 -58.834 38.5 -105.501v-18c-23.333 6.66699 -46.666 12 -69.999 16s-51 6 -83 6s-61.167 -3.66699 -87.5 -11s-49.166 -18 -68.499 -32s-34.333 -31.5 -45 -52.5s-16 -45.167 -16 -72.5c0 -26.667 5.5 -50.167 16.5 -70.5
s25.5 -37.166 43.5 -50.499s38.667 -23.5 62 -30.5s47.666 -10.5 72.999 -10.5c48 0 90.667 10 128 30s70 44.333 98 73zM493.001 287.001c2.66699 25.333 8.66309 48.666 17.9961 69.999s21.333 39.833 36 55.5s31.834 28 51.501 37s40.834 13.5 63.501 13.5
c25.333 0 47.833 -4.83301 67.5 -14.5s36.334 -22.5 50.001 -38.5s24.334 -34.667 32.001 -56s12.5 -43.666 14.5 -66.999h-333zM415.997 241.001c2 -35.333 8.99902 -68.002 20.999 -98.002c-24 -27.333 -51.5 -49.5 -82.5 -66.5s-65.5 -25.5 -103.5 -25.5
c-17.333 0 -33.666 2.33301 -48.999 7s-28.666 11.5 -39.999 20.5s-20.333 19.833 -27 32.5s-10 27.334 -10 44.001c0 33.333 12.667 59.5 38 78.5s61.666 28.5 108.999 28.5c28.667 0 55 -2.16699 79 -6.5s45.667 -9.16602 65 -14.499z" />
    <glyph glyph-name="ccedilla" unicode="&#xe7;" horiz-adv-x="571" 
d="M271 -7l-77.998 -113.996l75 -34l66 143c44.667 2.66699 82.167 13 112.5 31s58.166 41 83.499 69l-49 46c-20.667 -22 -43.834 -40.333 -69.501 -55s-55.167 -22 -88.5 -22c-27.333 0 -52.5 5.16699 -75.5 15.5s-43 24.666 -60 42.999s-30.333 39.833 -40 64.5
s-14.5 51 -14.5 79s4.66699 54.167 14 78.5s22.333 45.666 39 63.999s36.334 32.666 59.001 42.999s47 15.5 73 15.5c35.333 0 65.166 -7.66699 89.499 -23s46.833 -33.666 67.5 -54.999l51 54c-12 12.667 -25 24.667 -39 36s-29.333 21.166 -46 29.499s-35 14.833 -55 19.5
s-42.333 7 -67 7c-38 0 -73.167 -7.16699 -105.5 -21.5s-60.333 -33.833 -84 -58.5s-42.167 -53.5 -55.5 -86.5s-20 -67.833 -20 -104.5c0 -32.667 5.33301 -63.834 16 -93.501s25.667 -56.167 45 -79.5s42.333 -43 69 -59s55.667 -26.667 87 -32z" />
    <glyph glyph-name="egrave" unicode="&#xe8;" horiz-adv-x="592" 
d="M132 230h410.008c0.666992 4.66699 1 9 1 13v11c0 38 -5.33301 73.667 -16 107s-26.334 62.333 -47.001 87s-46 44.167 -76 58.5s-64 21.5 -102 21.5c-36 0 -69.167 -7 -99.5 -21s-56.5 -33.167 -78.5 -57.5s-39.167 -53 -51.5 -86s-18.5 -68.167 -18.5 -105.5
c0 -40 6.83301 -76.667 20.5 -110s32.167 -61.833 55.5 -85.5s50.666 -42 81.999 -55s64.666 -19.5 99.999 -19.5c49.333 0 90.666 8.83301 123.999 26.5s63 41.167 89 70.5l-48 43c-21.333 -22 -44.833 -39.667 -70.5 -53s-56.5 -20 -92.5 -20
c-22.667 0 -44.334 3.83301 -65.001 11.5s-39.334 19 -56.001 34s-30.334 33.333 -41.001 55s-17.334 46.5 -20.001 74.5zM132.008 287c2.66699 25.333 8.66504 48.666 17.998 69.999s21.333 39.833 36 55.5s31.667 28 51 37s40.333 13.5 63 13.5
c26 0 48.833 -4.83301 68.5 -14.5s36.334 -22.5 50.001 -38.5s24.334 -34.667 32.001 -56s12.5 -43.666 14.5 -66.999h-333zM276.006 595h62l-95 145l-80 -37z" />
    <glyph glyph-name="eacute" unicode="&#xe9;" horiz-adv-x="592" 
d="M132 230h410.008c0.666992 4.66699 1 9 1 13v11c0 38 -5.33301 73.667 -16 107s-26.334 62.333 -47.001 87s-46 44.167 -76 58.5s-64 21.5 -102 21.5c-36 0 -69.167 -7 -99.5 -21s-56.5 -33.167 -78.5 -57.5s-39.167 -53 -51.5 -86s-18.5 -68.167 -18.5 -105.5
c0 -40 6.83301 -76.667 20.5 -110s32.167 -61.833 55.5 -85.5s50.666 -42 81.999 -55s64.666 -19.5 99.999 -19.5c49.333 0 90.666 8.83301 123.999 26.5s63 41.167 89 70.5l-48 43c-21.333 -22 -44.833 -39.667 -70.5 -53s-56.5 -20 -92.5 -20
c-22.667 0 -44.334 3.83301 -65.001 11.5s-39.334 19 -56.001 34s-30.334 33.333 -41.001 55s-17.334 46.5 -20.001 74.5zM132.008 287c2.66699 25.333 8.66504 48.666 17.998 69.999s21.333 39.833 36 55.5s31.667 28 51 37s40.333 13.5 63 13.5
c26 0 48.833 -4.83301 68.5 -14.5s36.334 -22.5 50.001 -38.5s24.334 -34.667 32.001 -56s12.5 -43.666 14.5 -66.999h-333zM316.006 595l113 108l-80 37l-95 -145h62z" />
    <glyph glyph-name="ecircumflex" unicode="&#xea;" horiz-adv-x="592" 
d="M132 230h410.008c0.666992 4.66699 1 9 1 13v11c0 38 -5.33301 73.667 -16 107s-26.334 62.333 -47.001 87s-46 44.167 -76 58.5s-64 21.5 -102 21.5c-36 0 -69.167 -7 -99.5 -21s-56.5 -33.167 -78.5 -57.5s-39.167 -53 -51.5 -86s-18.5 -68.167 -18.5 -105.5
c0 -40 6.83301 -76.667 20.5 -110s32.167 -61.833 55.5 -85.5s50.666 -42 81.999 -55s64.666 -19.5 99.999 -19.5c49.333 0 90.666 8.83301 123.999 26.5s63 41.167 89 70.5l-48 43c-21.333 -22 -44.833 -39.667 -70.5 -53s-56.5 -20 -92.5 -20
c-22.667 0 -44.334 3.83301 -65.001 11.5s-39.334 19 -56.001 34s-30.334 33.333 -41.001 55s-17.334 46.5 -20.001 74.5zM132.008 287c2.66699 25.333 8.66504 48.666 17.998 69.999s21.333 39.833 36 55.5s31.667 28 51 37s40.333 13.5 63 13.5
c26 0 48.833 -4.83301 68.5 -14.5s36.334 -22.5 50.001 -38.5s24.334 -34.667 32.001 -56s12.5 -43.666 14.5 -66.999h-333zM298.006 662l75 -67h66l-106 131h-68l-106 -131h64z" />
    <glyph glyph-name="edieresis" unicode="&#xeb;" horiz-adv-x="592" 
d="M132 230h410.008c0.666992 4.66699 1 9 1 13v11c0 38 -5.33301 73.667 -16 107s-26.334 62.333 -47.001 87s-46 44.167 -76 58.5s-64 21.5 -102 21.5c-36 0 -69.167 -7 -99.5 -21s-56.5 -33.167 -78.5 -57.5s-39.167 -53 -51.5 -86s-18.5 -68.167 -18.5 -105.5
c0 -40 6.83301 -76.667 20.5 -110s32.167 -61.833 55.5 -85.5s50.666 -42 81.999 -55s64.666 -19.5 99.999 -19.5c49.333 0 90.666 8.83301 123.999 26.5s63 41.167 89 70.5l-48 43c-21.333 -22 -44.833 -39.667 -70.5 -53s-56.5 -20 -92.5 -20
c-22.667 0 -44.334 3.83301 -65.001 11.5s-39.334 19 -56.001 34s-30.334 33.333 -41.001 55s-17.334 46.5 -20.001 74.5zM132.008 287c2.66699 25.333 8.66504 48.666 17.998 69.999s21.333 39.833 36 55.5s31.667 28 51 37s40.333 13.5 63 13.5
c26 0 48.833 -4.83301 68.5 -14.5s36.334 -22.5 50.001 -38.5s24.334 -34.667 32.001 -56s12.5 -43.666 14.5 -66.999h-333zM432.006 595v95h-90v-95h90zM256.006 595v95h-90v-95h90z" />
    <glyph glyph-name="igrave" unicode="&#xec;" horiz-adv-x="263" 
d="M170 0v517h-77v-517h77zM207 595h62l-95 145l-80 -37z" />
    <glyph glyph-name="iacute" unicode="&#xed;" horiz-adv-x="263" 
d="M170 0v517h-77v-517h77zM163 595l113 108l-80 37l-95 -145h62z" />
    <glyph glyph-name="icircumflex" unicode="&#xee;" horiz-adv-x="263" 
d="M170 0v517h-77v-517h77zM233 662l75 -67h66l-106 131h-68l-106 -131h64z" />
    <glyph glyph-name="idieresis" unicode="&#xef;" horiz-adv-x="263" 
d="M170 0v517h-77v-517h77zM360 595v95h-90v-95h90zM184 595v95h-90v-95h90z" />
    <glyph glyph-name="eth" unicode="&#xf0;" horiz-adv-x="633" 
d="M322 615l131.004 -184.001c-22 15.333 -45.5 28.333 -70.5 39s-55.5 16 -91.5 16c-32 0 -62.333 -5.83301 -91 -17.5s-53.834 -28 -75.501 -49s-38.834 -46.167 -51.501 -75.5s-19 -62 -19 -98c0 -35.333 6.5 -68.666 19.5 -99.999s31 -58.666 54 -81.999
s50.167 -41.833 81.5 -55.5s65.666 -20.5 102.999 -20.5c40.667 0 77.5 7.16699 110.5 21.5s61 33.5 84 57.5s40.667 52 53 84s18.5 65.667 18.5 101c0 23.333 -2 45.5 -6 66.5s-9.83301 41.167 -17.5 60.5s-16.834 38.666 -27.501 57.999s-23 39 -37 59l-101 149l102 47
l-35 47l-99 -48l-26 39h-92l50 -70l-131 -61l36 -47zM499.004 243.999c0 -25.333 -4.33398 -49.3281 -13.001 -71.9951s-21 -42.667 -37 -60s-35.167 -31 -57.5 -41s-47.166 -15 -74.499 -15s-52.166 5.16699 -74.499 15.5s-41.833 24.166 -58.5 41.499
s-29.5 37.166 -38.5 59.499s-13.5 45.833 -13.5 70.5c0 25.333 4.16699 49.166 12.5 71.499s20.166 41.666 35.499 57.999s33.833 29.166 55.5 38.499s46.167 14 73.5 14s52.5 -4.83301 75.5 -14.5s43 -22.667 60 -39s30.333 -35.5 40 -57.5s14.5 -45.333 14.5 -70z" />
    <glyph glyph-name="ntilde" unicode="&#xf1;" horiz-adv-x="616" 
d="M163 296c0 24 3.83203 46.001 11.499 66.001s18.5 37.167 32.5 51.5s30.5 25.333 49.5 33s39.5 11.5 61.5 11.5c46 0 81.333 -14 106 -42s37 -66 37 -114v-302h77v321c0 30.667 -4.5 58.667 -13.5 84s-22 47.166 -39 65.499s-37.667 32.5 -62 42.5s-52.166 15 -83.499 15
c-44.667 0 -81 -9.83301 -109 -29.5s-50.667 -43.5 -68 -71.5v90h-77v-517h77v296zM475.999 700.001l-47 13c-7.33301 -18 -14.5 -30.667 -21.5 -38s-17.167 -11 -30.5 -11c-8.66699 0 -18.334 2 -29.001 6s-22 8.5 -34 13.5s-24 9.66699 -36 14s-23.667 6.5 -35 6.5
c-24 0 -43.333 -8 -58 -24s-27 -43 -37 -81l47 -13c7.33301 18 14.5 30.667 21.5 38s17.167 11 30.5 11c8.66699 0 18.334 -2.16699 29.001 -6.5l34 -14c12 -5 24 -9.5 36 -13.5s23.667 -6 35 -6c24 0 43.333 8 58 24s27 43 37 81z" />
    <glyph glyph-name="ograve" unicode="&#xf2;" horiz-adv-x="646" 
d="M593 259c0 36.667 -6.66797 71.334 -20.001 104.001s-32 61.167 -56 85.5s-52.5 43.666 -85.5 57.999s-68.833 21.5 -107.5 21.5c-39.333 0 -75.5 -7.16699 -108.5 -21.5s-61.5 -33.833 -85.5 -58.5s-42.667 -53.5 -56 -86.5s-20 -67.833 -20 -104.5
s6.66699 -71.334 20 -104.001s32 -61.167 56 -85.5s52.333 -43.666 85 -57.999s68.334 -21.5 107.001 -21.5s74.667 7.16699 108 21.5s62 33.833 86 58.5s42.833 53.5 56.5 86.5s20.5 67.833 20.5 104.5zM513.999 257c0 -28 -4.66406 -54.165 -13.9971 -78.498
s-22.333 -45.5 -39 -63.5s-36.667 -32.167 -60 -42.5s-49 -15.5 -77 -15.5c-27.333 0 -52.666 5.33301 -75.999 16s-43.5 25 -60.5 43s-30.333 39.333 -40 64s-14.5 51 -14.5 79s4.66699 54.167 14 78.5s22.166 45.666 38.499 63.999s36.166 32.666 59.499 42.999
s49 15.5 77 15.5c27.333 0 52.666 -5.33301 75.999 -16s43.666 -25.167 60.999 -43.5s30.833 -39.833 40.5 -64.5s14.5 -51 14.5 -79zM292.002 595.002h62l-95 145l-80 -37z" />
    <glyph glyph-name="oacute" unicode="&#xf3;" horiz-adv-x="646" 
d="M593 259c0 36.667 -6.66797 71.334 -20.001 104.001s-32 61.167 -56 85.5s-52.5 43.666 -85.5 57.999s-68.833 21.5 -107.5 21.5c-39.333 0 -75.5 -7.16699 -108.5 -21.5s-61.5 -33.833 -85.5 -58.5s-42.667 -53.5 -56 -86.5s-20 -67.833 -20 -104.5
s6.66699 -71.334 20 -104.001s32 -61.167 56 -85.5s52.333 -43.666 85 -57.999s68.334 -21.5 107.001 -21.5s74.667 7.16699 108 21.5s62 33.833 86 58.5s42.833 53.5 56.5 86.5s20.5 67.833 20.5 104.5zM513.999 257c0 -28 -4.66406 -54.165 -13.9971 -78.498
s-22.333 -45.5 -39 -63.5s-36.667 -32.167 -60 -42.5s-49 -15.5 -77 -15.5c-27.333 0 -52.666 5.33301 -75.999 16s-43.5 25 -60.5 43s-30.333 39.333 -40 64s-14.5 51 -14.5 79s4.66699 54.167 14 78.5s22.166 45.666 38.499 63.999s36.166 32.666 59.499 42.999
s49 15.5 77 15.5c27.333 0 52.666 -5.33301 75.999 -16s43.666 -25.167 60.999 -43.5s30.833 -39.833 40.5 -64.5s14.5 -51 14.5 -79zM355.002 595.002l113 108l-80 37l-95 -145h62z" />
    <glyph glyph-name="ocircumflex" unicode="&#xf4;" horiz-adv-x="646" 
d="M593 259c0 36.667 -6.66797 71.334 -20.001 104.001s-32 61.167 -56 85.5s-52.5 43.666 -85.5 57.999s-68.833 21.5 -107.5 21.5c-39.333 0 -75.5 -7.16699 -108.5 -21.5s-61.5 -33.833 -85.5 -58.5s-42.667 -53.5 -56 -86.5s-20 -67.833 -20 -104.5
s6.66699 -71.334 20 -104.001s32 -61.167 56 -85.5s52.333 -43.666 85 -57.999s68.334 -21.5 107.001 -21.5s74.667 7.16699 108 21.5s62 33.833 86 58.5s42.833 53.5 56.5 86.5s20.5 67.833 20.5 104.5zM513.999 257c0 -28 -4.66406 -54.165 -13.9971 -78.498
s-22.333 -45.5 -39 -63.5s-36.667 -32.167 -60 -42.5s-49 -15.5 -77 -15.5c-27.333 0 -52.666 5.33301 -75.999 16s-43.5 25 -60.5 43s-30.333 39.333 -40 64s-14.5 51 -14.5 79s4.66699 54.167 14 78.5s22.166 45.666 38.499 63.999s36.166 32.666 59.499 42.999
s49 15.5 77 15.5c27.333 0 52.666 -5.33301 75.999 -16s43.666 -25.167 60.999 -43.5s30.833 -39.833 40.5 -64.5s14.5 -51 14.5 -79zM322.002 662.002l75 -67h66l-106 131h-68l-106 -131h64z" />
    <glyph glyph-name="otilde" unicode="&#xf5;" horiz-adv-x="646" 
d="M593 259c0 36.667 -6.66797 71.334 -20.001 104.001s-32 61.167 -56 85.5s-52.5 43.666 -85.5 57.999s-68.833 21.5 -107.5 21.5c-39.333 0 -75.5 -7.16699 -108.5 -21.5s-61.5 -33.833 -85.5 -58.5s-42.667 -53.5 -56 -86.5s-20 -67.833 -20 -104.5
s6.66699 -71.334 20 -104.001s32 -61.167 56 -85.5s52.333 -43.666 85 -57.999s68.334 -21.5 107.001 -21.5s74.667 7.16699 108 21.5s62 33.833 86 58.5s42.833 53.5 56.5 86.5s20.5 67.833 20.5 104.5zM513.999 257c0 -28 -4.66406 -54.165 -13.9971 -78.498
s-22.333 -45.5 -39 -63.5s-36.667 -32.167 -60 -42.5s-49 -15.5 -77 -15.5c-27.333 0 -52.666 5.33301 -75.999 16s-43.5 25 -60.5 43s-30.333 39.333 -40 64s-14.5 51 -14.5 79s4.66699 54.167 14 78.5s22.166 45.666 38.499 63.999s36.166 32.666 59.499 42.999
s49 15.5 77 15.5c27.333 0 52.666 -5.33301 75.999 -16s43.666 -25.167 60.999 -43.5s30.833 -39.833 40.5 -64.5s14.5 -51 14.5 -79zM487.002 700.002l-47 13c-7.33301 -18 -14.5 -30.667 -21.5 -38s-17.167 -11 -30.5 -11c-8.66699 0 -18.334 2 -29.001 6
s-22 8.5 -34 13.5s-24 9.66699 -36 14s-23.667 6.5 -35 6.5c-24 0 -43.333 -8 -58 -24s-27 -43 -37 -81l47 -13c7.33301 18 14.5 30.667 21.5 38s17.167 11 30.5 11c8.66699 0 18.334 -2.16699 29.001 -6.5l34 -14c12 -5 24 -9.5 36 -13.5s23.667 -6 35 -6
c24 0 43.333 8 58 24s27 43 37 81z" />
    <glyph glyph-name="odieresis" unicode="&#xf6;" horiz-adv-x="646" 
d="M593 259c0 36.667 -6.66797 71.334 -20.001 104.001s-32 61.167 -56 85.5s-52.5 43.666 -85.5 57.999s-68.833 21.5 -107.5 21.5c-39.333 0 -75.5 -7.16699 -108.5 -21.5s-61.5 -33.833 -85.5 -58.5s-42.667 -53.5 -56 -86.5s-20 -67.833 -20 -104.5
s6.66699 -71.334 20 -104.001s32 -61.167 56 -85.5s52.333 -43.666 85 -57.999s68.334 -21.5 107.001 -21.5s74.667 7.16699 108 21.5s62 33.833 86 58.5s42.833 53.5 56.5 86.5s20.5 67.833 20.5 104.5zM513.999 257c0 -28 -4.66406 -54.165 -13.9971 -78.498
s-22.333 -45.5 -39 -63.5s-36.667 -32.167 -60 -42.5s-49 -15.5 -77 -15.5c-27.333 0 -52.666 5.33301 -75.999 16s-43.5 25 -60.5 43s-30.333 39.333 -40 64s-14.5 51 -14.5 79s4.66699 54.167 14 78.5s22.166 45.666 38.499 63.999s36.166 32.666 59.499 42.999
s49 15.5 77 15.5c27.333 0 52.666 -5.33301 75.999 -16s43.666 -25.167 60.999 -43.5s30.833 -39.833 40.5 -64.5s14.5 -51 14.5 -79zM456.002 595.002v95h-90v-95h90zM280.002 595.002v95h-90v-95h90z" />
    <glyph glyph-name="oslash" unicode="&#xf8;" horiz-adv-x="646" 
d="M593 259c0 34.667 -5.66895 67.1689 -17.002 97.502s-27.333 57.166 -48 80.499l80 86h-78l-45 -49c-21.333 17.333 -45.666 30.666 -72.999 39.999s-56.666 14 -87.999 14c-39.333 0 -75.5 -7.16699 -108.5 -21.5s-61.5 -33.833 -85.5 -58.5s-42.667 -53.5 -56 -86.5
s-20 -67.833 -20 -104.5c0 -34 5.66699 -66 17 -96s27 -57 47 -81l-79 -85h77l45 46c22 -16.667 46.5 -29.667 73.5 -39s56.167 -14 87.5 -14c38.667 0 74.667 7.16699 108 21.5s62 33.833 86 58.5s42.833 53.5 56.5 86.5s20.5 67.833 20.5 104.5zM437.998 419.002
l-268 -282.999c-26 35.333 -39 76.333 -39 123c0 28 4.66699 54.333 14 79s22.5 46.167 39.5 64.5s37.167 32.666 60.5 42.999s49 15.5 77 15.5c45.333 0 84 -14 116 -42zM514.998 257.003c0 -28 -4.66602 -54.335 -13.999 -79.002s-22.333 -46.167 -39 -64.5
s-36.834 -32.666 -60.501 -42.999s-49.5 -15.5 -77.5 -15.5c-44 0 -82.667 13.667 -116 41l268 285c26 -35.333 39 -76.666 39 -123.999z" />
    <glyph glyph-name="ugrave" unicode="&#xf9;" horiz-adv-x="616" 
d="M453 221c0 -24 -3.99902 -46.001 -11.999 -66.001s-18.833 -37.167 -32.5 -51.5s-30 -25.333 -49 -33s-39.5 -11.5 -61.5 -11.5c-46 0 -81.333 14 -106 42s-37 66 -37 114v302h-77v-321c0 -30.667 4.5 -58.667 13.5 -84s22 -47.166 39 -65.499s37.667 -32.5 62 -42.5
s52.166 -15 83.499 -15c44.667 0 81 9.83301 109 29.5s50.667 43.5 68 71.5v-90h76v517h-76v-296zM284.001 591.999h62l-95 145l-80 -37z" />
    <glyph glyph-name="uacute" unicode="&#xfa;" horiz-adv-x="616" 
d="M453 221c0 -24 -3.99902 -46.001 -11.999 -66.001s-18.833 -37.167 -32.5 -51.5s-30 -25.333 -49 -33s-39.5 -11.5 -61.5 -11.5c-46 0 -81.333 14 -106 42s-37 66 -37 114v302h-77v-321c0 -30.667 4.5 -58.667 13.5 -84s22 -47.166 39 -65.499s37.667 -32.5 62 -42.5
s52.166 -15 83.499 -15c44.667 0 81 9.83301 109 29.5s50.667 43.5 68 71.5v-90h76v517h-76v-296zM328.001 591.999l113 108l-80 37l-95 -145h62z" />
    <glyph glyph-name="ucircumflex" unicode="&#xfb;" horiz-adv-x="616" 
d="M453 221c0 -24 -3.99902 -46.001 -11.999 -66.001s-18.833 -37.167 -32.5 -51.5s-30 -25.333 -49 -33s-39.5 -11.5 -61.5 -11.5c-46 0 -81.333 14 -106 42s-37 66 -37 114v302h-77v-321c0 -30.667 4.5 -58.667 13.5 -84s22 -47.166 39 -65.499s37.667 -32.5 62 -42.5
s52.166 -15 83.499 -15c44.667 0 81 9.83301 109 29.5s50.667 43.5 68 71.5v-90h76v517h-76v-296zM308.001 661.999l75 -67h66l-106 131h-68l-106 -131h64z" />
    <glyph glyph-name="udieresis" unicode="&#xfc;" horiz-adv-x="616" 
d="M453 221c0 -24 -3.99902 -46.001 -11.999 -66.001s-18.833 -37.167 -32.5 -51.5s-30 -25.333 -49 -33s-39.5 -11.5 -61.5 -11.5c-46 0 -81.333 14 -106 42s-37 66 -37 114v302h-77v-321c0 -30.667 4.5 -58.667 13.5 -84s22 -47.166 39 -65.499s37.667 -32.5 62 -42.5
s52.166 -15 83.499 -15c44.667 0 81 9.83301 109 29.5s50.667 43.5 68 71.5v-90h76v517h-76v-296zM442.001 594.999v95h-90v-95h90zM266.001 594.999v95h-90v-95h90z" />
    <glyph glyph-name="yacute" unicode="&#xfd;" horiz-adv-x="591" 
d="M555 517h-81.998l-166 -431l-188 431h-85l235 -515c-15.333 -36.667 -31 -62 -47 -76s-35.667 -21 -59 -21c-16.667 0 -31.167 1.5 -43.5 4.5s-24.833 7.83301 -37.5 14.5l-26 -61c17.333 -8.66699 34.666 -15.167 51.999 -19.5s36.666 -6.5 57.999 -6.5
c38.667 0 71.5 11 98.5 33s51.5 59.667 73.5 113zM329.002 592l113 108l-80 37l-95 -145h62z" />
    <glyph glyph-name="thorn" unicode="&#xfe;" horiz-adv-x="664" 
d="M608 259c0 42.667 -6.99902 80.666 -20.999 113.999s-32.667 61.5 -56 84.5s-49.833 40.5 -79.5 52.5s-59.834 18 -90.501 18c-24 0 -45.833 -3.16699 -65.5 -9.5s-37.5 -14.666 -53.5 -24.999s-30.5 -22.5 -43.5 -36.5s-24.833 -28.667 -35.5 -44v317h-77v-890h77v259
c10 -14.667 21.5 -28.667 34.5 -42s27.5 -25 43.5 -35s34 -18 54 -24s42 -9 66 -9c31.333 0 61.833 6.16699 91.5 18.5s56 30 79 53s41.5 51.167 55.5 84.5s21 71.333 21 114zM529.001 257.999c0 -31.333 -4.83496 -59.498 -14.502 -84.498s-22.667 -46 -39 -63
s-35.666 -30 -57.999 -39s-45.833 -13.5 -70.5 -13.5c-24 0 -47.167 4.83301 -69.5 14.5s-42.333 23.167 -60 40.5s-31.667 38.5 -42 63.5s-15.5 52.5 -15.5 82.5s5.16699 57.333 15.5 82s24.333 45.667 42 63s37.667 30.833 60 40.5s45.5 14.5 69.5 14.5
c24.667 0 48 -4.66699 70 -14s41.333 -22.833 58 -40.5s29.834 -38.834 39.501 -63.501s14.5 -52.334 14.5 -83.001z" />
    <glyph glyph-name="ydieresis" unicode="&#xff;" horiz-adv-x="591" 
d="M555 517h-81.998l-166 -431l-188 431h-85l235 -515c-15.333 -36.667 -31 -62 -47 -76s-35.667 -21 -59 -21c-16.667 0 -31.167 1.5 -43.5 4.5s-24.833 7.83301 -37.5 14.5l-26 -61c17.333 -8.66699 34.666 -15.167 51.999 -19.5s36.666 -6.5 57.999 -6.5
c38.667 0 71.5 11 98.5 33s51.5 59.667 73.5 113zM429.002 595v95h-90v-95h90zM253.002 595v95h-90v-95h90z" />
    <glyph glyph-name="dotlessi" unicode="&#x131;" horiz-adv-x="263" 
d="M170 0v517h-77v-517h77z" />
    <glyph glyph-name="Lslash" unicode="&#x141;" horiz-adv-x="649" 
d="M602 0v73h-395v253l216 65v74l-216 -66v301h-78v-325l-75 -23v-73l75 22v-301h473z" />
    <glyph glyph-name="lslash" unicode="&#x142;" horiz-adv-x="323" 
d="M200 343l76 24v75l-76 -24v312h-76v-335l-76 -23v-75l76 24v-321h76v343z" />
    <glyph glyph-name="OE" unicode="&#x152;" horiz-adv-x="1131" 
d="M1071 0v72.001h-414v245h364v72h-364v239h409v72h-626c-55.333 0 -105.666 -9 -150.999 -27s-84.5 -42.833 -117.5 -74.5s-58.5 -68.834 -76.5 -111.501s-27 -88.667 -27 -138s9 -95.333 27 -138s43.5 -79.667 76.5 -111s72.167 -55.833 117.5 -73.5
s95.666 -26.5 150.999 -26.5h631zM578 73.001l-138 -0.000976562c-44 0 -84 7.16699 -120 21.5s-66.5 34 -91.5 59s-44.333 54.333 -58 88s-20.5 70.167 -20.5 109.5c0 38.667 6.83301 74.834 20.5 108.501s33 63 58 88s55.5 44.5 91.5 58.5s76 21 120 21h138v-554z" />
    <glyph glyph-name="oe" unicode="&#x153;" horiz-adv-x="1049" 
d="M548 128c20.667 -44 50.833 -78.333 90.5 -103s83.5 -37 131.5 -37c48.667 0 89.834 8.83301 123.501 26.5s63.167 41.167 88.5 70.5l-48 43c-21.333 -22 -44.833 -39.667 -70.5 -53s-56.5 -20 -92.5 -20c-22.667 0 -44.334 3.83301 -65.001 11.5s-39.167 19 -55.5 34
s-29.833 33.333 -40.5 55s-17.334 46.5 -20.001 74.5h409c0.666992 4.66699 1 9 1 13v11c0 38 -5.33301 73.667 -16 107s-26.334 62.333 -47.001 87s-45.667 44.167 -75 58.5s-63 21.5 -101 21.5c-48 0 -90.5 -12.667 -127.5 -38s-65.167 -59 -84.5 -101
c-21.333 41.333 -51.666 74.833 -90.999 100.5s-84.666 38.5 -135.999 38.5c-38 0 -73.333 -7.16699 -106 -21.5s-61 -33.833 -85 -58.5s-42.833 -53.5 -56.5 -86.5s-20.5 -67.833 -20.5 -104.5s6.83301 -71.334 20.5 -104.001s32.334 -61.167 56.001 -85.5
s51.667 -43.666 84 -57.999s67.166 -21.5 104.499 -21.5c52 0 97.833 13 137.5 39s70.167 59.667 91.5 101zM588.999 287c2.66699 25.333 8.66309 48.666 17.9961 69.999s21.333 39.833 36 55.5s31.834 28 51.501 37s40.834 13.5 63.501 13.5
c25.333 0 47.833 -4.83301 67.5 -14.5s36.334 -22.5 50.001 -38.5s24.334 -34.667 32.001 -56s12.5 -43.666 14.5 -66.999h-333zM510.995 257c0 -28 -4.66699 -54.165 -14 -78.498s-22.166 -45.5 -38.499 -63.5s-36 -32.167 -59 -42.5s-48.5 -15.5 -76.5 -15.5
c-27.333 0 -52.5 5.33301 -75.5 16s-43 25 -60 43s-30.333 39.333 -40 64s-14.5 51 -14.5 79s4.66699 54.167 14 78.5s22.166 45.666 38.499 63.999s36 32.666 59 42.999s48.5 15.5 76.5 15.5c26.667 0 51.667 -5.33301 75 -16s43.5 -25.167 60.5 -43.5
s30.333 -39.833 40 -64.5s14.5 -51 14.5 -79z" />
    <glyph glyph-name="Scaron" unicode="&#x160;" horiz-adv-x="640" 
d="M160 525c0 16 3.5 31.002 10.5 45.002s17 26 30 36s28.667 18 47 24s38.833 9 61.5 9c36 0 70.5 -6 103.5 -18s65.833 -31.333 98.5 -58l46 61c-36 28.667 -73.167 50.167 -111.5 64.5s-83.166 21.5 -134.499 21.5c-33.333 0 -64 -4.83301 -92 -14.5s-52.333 -23 -73 -40
s-36.667 -37.167 -48 -60.5s-17 -49 -17 -77c0 -29.333 4.66699 -54.666 14 -75.999s23.666 -40 42.999 -56s43.833 -29.667 73.5 -41s64.5 -21.333 104.5 -30c36.667 -8 66.834 -16.333 90.501 -25s42.167 -18.334 55.5 -29.001s22.666 -22.5 27.999 -35.5
s8 -27.833 8 -44.5c0 -36 -14.167 -65 -42.5 -87s-66.166 -33 -113.499 -33c-48.667 0 -91.667 8.16699 -129 24.5s-74.333 41.166 -111 74.499l-49 -58c42 -38 86.167 -66.167 132.5 -84.5s97.5 -27.5 153.5 -27.5c34.667 0 66.667 4.66699 96 14s54.5 22.666 75.5 39.999
s37.5 38.333 49.5 63s18 52 18 82c0 54 -18.5 96.333 -55.5 127s-94.5 54.667 -172.5 72c-38.667 8 -70.334 16.5 -95.001 25.5s-44 19 -58 30s-23.667 23.167 -29 36.5s-8 28.333 -8 45zM325 826.002l-75 67h-66l106 -131h68l106 131h-64z" />
    <glyph glyph-name="scaron" unicode="&#x161;" horiz-adv-x="498" 
d="M441 145l0.00488281 2.00391c0 23.333 -4.83301 43 -14.5 59s-22.5 29.667 -38.5 41s-33.833 20.666 -53.5 27.999s-39.5 14 -59.5 20l-50 16c-16 5.33301 -30.167 11.333 -42.5 18s-22.166 14.5 -29.499 23.5s-11 19.5 -11 31.5v2c0 21.333 9 39.166 27 53.499
s42.333 21.5 73 21.5c25.333 0 51.166 -4.5 77.499 -13.5s51.5 -21.167 75.5 -36.5l35 58c-26.667 17.333 -56.334 31.166 -89.001 41.499s-65 15.5 -97 15.5c-25.333 0 -48.833 -3.5 -70.5 -10.5s-40.334 -17 -56.001 -30s-27.834 -28.667 -36.501 -47s-13 -38.5 -13 -60.5
v-2c0 -24 5.16699 -44 15.5 -60s23.666 -29.333 39.999 -40s34.666 -19.5 54.999 -26.5s40.5 -13.5 60.5 -19.5c16.667 -4.66699 32.834 -9.66699 48.501 -15s29.5 -11.5 41.5 -18.5s21.5 -15.167 28.5 -24.5s10.5 -20.333 10.5 -33v-2c0 -25.333 -10 -45.333 -30 -60
s-45.667 -22 -77 -22c-30.667 0 -61.167 5.66699 -91.5 17s-59.5 27.666 -87.5 48.999l-39 -55c29.333 -23.333 63 -41.833 101 -55.5s75.667 -20.5 113 -20.5c26 0 50.167 3.5 72.5 10.5s41.666 17.167 57.999 30.5s29.333 29.5 39 48.5s14.5 40.833 14.5 65.5z
M253.005 659.004l-75 67h-66l106 -131h68l106 131h-64z" />
    <glyph glyph-name="Ydieresis" unicode="&#x178;" horiz-adv-x="716" 
d="M398 278l291 422h-92l-238 -350l-236 350h-96l291 -423v-277h80v278zM491 759v95h-90v-95h90zM315 759v95h-90v-95h90z" />
    <glyph glyph-name="Zcaron" unicode="&#x17d;" horiz-adv-x="693" 
d="M520 629l-453 -576v-53h561v71h-454l454 576v53h-546v-71h438zM352 826l-75 67h-66l106 -131h68l106 131h-64z" />
    <glyph glyph-name="zcaron" unicode="&#x17e;" horiz-adv-x="556" 
d="M399 452l-343 -403v-49h448v65h-344l344 403v49h-436v-65h331zM288 659l-75 67h-66l106 -131h68l106 131h-64z" />
    <glyph glyph-name="florin" unicode="&#x192;" horiz-adv-x="514" 
d="M478 628l-0.00195312 66c-12 4 -24.167 6.83301 -36.5 8.5s-27.166 2.5 -44.499 2.5c-46 0 -81.167 -11.833 -105.5 -35.5s-41.166 -60.5 -50.499 -110.5l-23 -119h-109v-67h98l-44 -236c-5.33301 -26.667 -14.333 -46 -27 -58s-29.667 -18 -51 -18
c-16.667 0 -31.334 1.33301 -44.001 4v-66c7.33301 -1.33301 15 -2.33301 23 -3s17.667 -1 29 -1c42.667 0 76 10.667 100 32s40.333 55.333 49 102l45 244h156v67h-144l20 108c6 32 16 55 30 69s34 21 60 21c10.667 0 21.834 -0.833008 33.501 -2.5
s23.5 -4.16699 35.5 -7.5z" />
    <glyph glyph-name="circumflex" unicode="&#x2c6;" 
d="M249 662l75 -67h66l-106 131h-68l-106 -131h64z" />
    <glyph glyph-name="caron" unicode="&#x2c7;" 
d="M251 659l-75 67h-66l106 -131h68l106 131h-64z" />
    <glyph glyph-name="breve" unicode="&#x2d8;" 
d="M398 726h-56c-6 -21.333 -16.5 -38.166 -31.5 -50.499s-35.167 -18.5 -60.5 -18.5s-45.5 6.16699 -60.5 18.5s-25.5 29.166 -31.5 50.499h-56c3.33301 -42 18.333 -74.667 45 -98s61 -35 103 -35s76.333 11.667 103 35s41.667 56 45 98z" />
    <glyph glyph-name="dotaccent" unicode="&#x2d9;" 
d="M297 595v96h-94v-96h94z" />
    <glyph glyph-name="ring" unicode="&#x2da;" 
d="M354 693c0 14 -2.83301 27 -8.5 39s-13.334 22.5 -23.001 31.5s-20.667 16.167 -33 21.5s-25.5 8 -39.5 8s-27.167 -2.66699 -39.5 -8s-23.333 -12.5 -33 -21.5s-17.334 -19.5 -23.001 -31.5s-8.5 -25 -8.5 -39s2.83301 -27 8.5 -39s13.334 -22.5 23.001 -31.5
s20.667 -16.167 33 -21.5s25.5 -8 39.5 -8s27.167 2.66699 39.5 8s23.333 12.5 33 21.5s17.334 19.5 23.001 31.5s8.5 25 8.5 39zM312 693c0 -17.333 -6 -32 -18 -44s-26.667 -18 -44 -18s-32 6 -44 18s-18 26.667 -18 44s6 32 18 44s26.667 18 44 18s32 -6 44 -18
s18 -26.667 18 -44z" />
    <glyph glyph-name="ogonek" unicode="&#x2db;" 
d="M257 10h-60.001c-4 -9.33301 -7.33301 -19.666 -10 -30.999s-4 -23 -4 -35c0 -34 14.833 -61.333 44.5 -82s73.834 -29.334 132.501 -26.001v41c-38 2 -65.667 9.83301 -83 23.5s-26 33.167 -26 58.5c0 16.667 2 33.667 6 51z" />
    <glyph glyph-name="tilde" unicode="&#x2dc;" 
d="M414 700l-47 13c-7.33301 -18 -14.5 -30.667 -21.5 -38s-17.167 -11 -30.5 -11c-8.66699 0 -18.334 2 -29.001 6s-22 8.5 -34 13.5s-24 9.66699 -36 14s-23.667 6.5 -35 6.5c-24 0 -43.333 -8 -58 -24s-27 -43 -37 -81l47 -13c7.33301 18 14.5 30.667 21.5 38
s17.167 11 30.5 11c8.66699 0 18.334 -2.16699 29.001 -6.5l34 -14c12 -5 24 -9.5 36 -13.5s23.667 -6 35 -6c24 0 43.333 8 58 24s27 43 37 81z" />
    <glyph glyph-name="hungarumlaut" unicode="&#x2dd;" 
d="M309 595l109 108l-75 37l-95 -145h61zM146 595l108 108l-75 37l-95 -145h62z" />
    <glyph glyph-name="Omega" unicode="&#x3a9;" horiz-adv-x="735" 
d="M559 515l0.00195312 42c0 73.333 30 110 90 110c13.333 0 25.666 -1.16699 36.999 -3.5s23.666 -5.5 36.999 -9.5v67c-12 4.66699 -24.667 8 -38 10s-29 3 -47 3c-50 0 -88.333 -14.667 -115 -44s-40 -72.333 -40 -129v-45h-71v-67h71v-449h76v449h163v66h-163z
M191.002 515l0.000976562 42c0 73.333 30 110 90 110c13.333 0 25.666 -1.16699 36.999 -3.5s24 -5.5 38 -9.5v67c-12.667 4.66699 -25.5 8 -38.5 10s-28.5 3 -46.5 3c-50 0 -88.5 -14.667 -115.5 -44s-40.5 -72.333 -40.5 -129v-45h-71v-67h71v-449h77v449h163v66h-164z
" />
    <glyph glyph-name="pi" unicode="&#x3c0;" horiz-adv-x="830" 
d="M777 351c0 49.333 -9.33301 96 -28 140s-44.167 82.333 -76.5 115s-70.5 58.5 -114.5 77.5s-91.333 28.5 -142 28.5s-98.167 -9.66699 -142.5 -29s-82.833 -45.5 -115.5 -78.5s-58.334 -71.5 -77.001 -115.5s-28 -90.667 -28 -140s9.33301 -96 28 -140
s44.167 -82.333 76.5 -115s70.5 -58.5 114.5 -77.5s91.333 -28.5 142 -28.5s98.167 9.66699 142.5 29s82.833 45.5 115.5 78.5s58.334 71.5 77.001 115.5s28 90.667 28 140zM744 351c0 -45.333 -8.33301 -88.166 -25 -128.499s-39.834 -75.5 -69.501 -105.5
s-64.667 -53.833 -105 -71.5s-83.833 -26.5 -130.5 -26.5s-90 8.66699 -130 26s-74.667 41 -104 71s-52.333 65 -69 105s-25 82.667 -25 128s8.33301 88.166 25 128.499s39.834 75.5 69.501 105.5s64.5 53.833 104.5 71.5s83.667 26.5 131 26.5
c46.667 0 90 -8.66699 130 -26s74.667 -41 104 -71s52.333 -65 69 -105s25 -82.667 25 -128zM582 422c0 38.667 -13 68.501 -39 89.501s-61 31.5 -105 31.5h-146v-371h56v125h83c20 0 39.167 2.5 57.5 7.5s34.333 12.833 48 23.5s24.667 23.667 33 39
s12.5 33.666 12.5 54.999zM526 421.001c0 -23.333 -8.50098 -41.499 -25.501 -54.499s-39.833 -19.5 -68.5 -19.5h-84v146h85c28.667 0 51.334 -5.83301 68.001 -17.5s25 -29.834 25 -54.501z" />
    <glyph glyph-name="endash" unicode="&#x2013;" horiz-adv-x="528" 
d="M463 262v77h-398v-77h398z" />
    <glyph glyph-name="emdash" unicode="&#x2014;" horiz-adv-x="898" 
d="M833 262v77h-768v-77h768z" />
    <glyph glyph-name="quoteleft" unicode="&#x2018;" horiz-adv-x="245" 
d="M194 670l-11.999 35c-38 -8.66699 -65.833 -23.5 -83.5 -44.5s-26.5 -51.833 -26.5 -92.5v-90h92v105h-37c-1.33301 21.333 3.16699 38.833 13.5 52.5s28.166 25.167 53.499 34.5z" />
    <glyph glyph-name="quoteright" unicode="&#x2019;" horiz-adv-x="245" 
d="M51 508l12 -35c38 8.66699 66 23.5 84 44.5s27 51.833 27 92.5v90h-92v-105h36c2 -21.333 -2.33301 -38.833 -13 -52.5s-28.667 -25.167 -54 -34.5z" />
    <glyph glyph-name="quotesinglbase" unicode="&#x201a;" horiz-adv-x="245" 
d="M46 -87l12 -35c38 8.66699 66 23.5 84 44.5s27 51.833 27 92.5v90h-92v-105h36c2 -21.333 -2.33301 -38.833 -13 -52.5s-28.667 -25.167 -54 -34.5z" />
    <glyph glyph-name="quotedblleft" unicode="&#x201c;" horiz-adv-x="445" 
d="M394 670l-11.999 35c-38 -8.66699 -65.833 -23.5 -83.5 -44.5s-26.5 -51.833 -26.5 -92.5v-90h91v105h-36c-1.33301 21.333 3.16699 38.833 13.5 52.5s28.166 25.167 53.499 34.5zM194.001 670l-11.999 35c-38 -8.66699 -65.833 -23.5 -83.5 -44.5
s-26.5 -51.833 -26.5 -92.5v-90h92v105h-37c-1.33301 21.333 3.16699 38.833 13.5 52.5s28.166 25.167 53.499 34.5z" />
    <glyph glyph-name="quotedblright" unicode="&#x201d;" horiz-adv-x="445" 
d="M251 508l12 -35c38 8.66699 65.833 23.5 83.5 44.5s26.5 51.833 26.5 92.5v90h-91v-105h36c2 -21.333 -2.33301 -38.833 -13 -52.5s-28.667 -25.167 -54 -34.5zM51 508l12 -35c38 8.66699 66 23.5 84 44.5s27 51.833 27 92.5v90h-92v-105h36
c2 -21.333 -2.33301 -38.833 -13 -52.5s-28.667 -25.167 -54 -34.5z" />
    <glyph glyph-name="quotedblbase" unicode="&#x201e;" horiz-adv-x="445" 
d="M246 -87l12 -35c38 8.66699 65.833 23.5 83.5 44.5s26.5 51.833 26.5 92.5v90h-91v-105h36c2 -21.333 -2.33301 -38.833 -13 -52.5s-28.667 -25.167 -54 -34.5zM46 -87l12 -35c38 8.66699 66 23.5 84 44.5s27 51.833 27 92.5v90h-92v-105h36
c2 -21.333 -2.33301 -38.833 -13 -52.5s-28.667 -25.167 -54 -34.5z" />
    <glyph glyph-name="dagger" unicode="&#x2020;" horiz-adv-x="410" 
d="M226 520l124 -8v55l-123 -8l9 141h-62l9 -141l-123 8v-55l124 8l-6 -282h54z" />
    <glyph glyph-name="daggerdbl" unicode="&#x2021;" horiz-adv-x="430" 
d="M360 133v55l-124 -8l6 170l-6 170l124 -8v55l-123 -8l9 141h-62l9 -141l-123 8v-55l124 8l-6 -170l6 -170l-124 8v-55l123 8l-9 -141h62l-9 141z" />
    <glyph glyph-name="bullet" unicode="&#x2022;" horiz-adv-x="478" 
d="M370 352c0 18 -3.5 35 -10.5 51s-16.333 29.833 -28 41.5s-25.5 21 -41.5 28s-33 10.5 -51 10.5s-35 -3.5 -51 -10.5s-29.833 -16.333 -41.5 -28s-21 -25.5 -28 -41.5s-10.5 -33 -10.5 -51s3.5 -35 10.5 -51s16.333 -29.833 28 -41.5s25.5 -21 41.5 -28
s33 -10.5 51 -10.5s35 3.5 51 10.5s29.833 16.333 41.5 28s21 25.5 28 41.5s10.5 33 10.5 51z" />
    <glyph glyph-name="ellipsis" unicode="&#x2026;" horiz-adv-x="723" 
d="M647 0v103h-90v-103h90zM406 0v103h-89v-103h89zM166 0v103h-89v-103h89z" />
    <glyph glyph-name="perthousand" unicode="&#x2030;" horiz-adv-x="1211" 
d="M369 530c0 24 -3.83398 46.667 -11.501 68s-18.334 40.166 -32.001 56.499s-30.167 29.333 -49.5 39s-40.666 14.5 -63.999 14.5c-24 0 -45.833 -4.83301 -65.5 -14.5s-36.5 -22.834 -50.5 -39.501s-24.833 -35.834 -32.5 -57.501s-11.5 -44.5 -11.5 -68.5
s3.83301 -46.667 11.5 -68s18.334 -40.166 32.001 -56.499s30.167 -29.333 49.5 -39s41 -14.5 65 -14.5s45.667 4.83301 65 14.5s36 22.834 50 39.501s24.833 35.834 32.5 57.501s11.5 44.5 11.5 68.5zM637.999 700l-514 -700h72l513 700h-71zM1158 172
c0 24 -3.66895 46.667 -11.002 68s-17.833 40.166 -31.5 56.499s-30.167 29.333 -49.5 39s-41 14.5 -65 14.5s-45.667 -4.83301 -65 -14.5s-36 -22.834 -50 -39.501s-24.833 -35.834 -32.5 -57.501s-11.5 -44.5 -11.5 -68.5s3.83301 -46.667 11.5 -68
s18.334 -40.166 32.001 -56.499s30.167 -29.333 49.5 -39s40.666 -14.5 63.999 -14.5c24 0 45.833 4.83301 65.5 14.5s36.334 22.834 50.001 39.501s24.334 35.834 32.001 57.501s11.5 44.5 11.5 68.5zM780.997 172c0 24 -3.66895 46.667 -11.002 68
s-17.833 40.166 -31.5 56.499s-30.167 29.333 -49.5 39s-41 14.5 -65 14.5s-45.667 -4.83301 -65 -14.5s-36 -22.834 -50 -39.501s-24.833 -35.834 -32.5 -57.501s-11.5 -44.5 -11.5 -68.5s3.83301 -46.667 11.5 -68s18.334 -40.166 32.001 -56.499s30.167 -29.333 49.5 -39
s40.666 -14.5 63.999 -14.5c24 0 45.833 4.83301 65.5 14.5s36.334 22.834 50.001 39.501s24.334 35.834 32.001 57.501s11.5 44.5 11.5 68.5zM302.995 528c0 -17.333 -2.16602 -33.333 -6.49902 -48s-10.5 -27.5 -18.5 -38.5s-17.667 -19.667 -29 -26
s-23.666 -9.5 -36.999 -9.5s-25.5 3.16699 -36.5 9.5s-20.833 15 -29.5 26s-15.334 24 -20.001 39s-7 31.5 -7 49.5c0 16.667 2.16699 32.5 6.5 47.5s10.5 28 18.5 39s17.5 19.667 28.5 26s23.5 9.5 37.5 9.5c12.667 0 24.667 -3.16699 36 -9.5s21.166 -15 29.499 -26
s15 -24 20 -39s7.5 -31.5 7.5 -49.5zM1092 170c0 -17.333 -2.16602 -33.333 -6.49902 -48s-10.5 -27.5 -18.5 -38.5s-17.5 -19.667 -28.5 -26s-23.5 -9.5 -37.5 -9.5c-13.333 0 -25.5 3.16699 -36.5 9.5s-20.833 15 -29.5 26s-15.334 24 -20.001 39s-7 31.5 -7 49.5
c0 16.667 2.16699 32.5 6.5 47.5s10.5 28 18.5 39s17.667 19.667 29 26s23.666 9.5 36.999 9.5c12.667 0 24.667 -3.16699 36 -9.5s21.333 -15 30 -26s15.334 -24 20.001 -39s7 -31.5 7 -49.5zM714.997 170c0 -17.333 -2.16602 -33.333 -6.49902 -48
s-10.5 -27.5 -18.5 -38.5s-17.5 -19.667 -28.5 -26s-23.5 -9.5 -37.5 -9.5c-13.333 0 -25.5 3.16699 -36.5 9.5s-20.833 15 -29.5 26s-15.334 24 -20.001 39s-7 31.5 -7 49.5c0 16.667 2.16699 32.5 6.5 47.5s10.5 28 18.5 39s17.667 19.667 29 26s23.666 9.5 36.999 9.5
c12.667 0 24.667 -3.16699 36 -9.5s21.333 -15 30 -26s15.334 -24 20.001 -39s7 -31.5 7 -49.5z" />
    <glyph glyph-name="guilsinglleft" unicode="&#x2039;" horiz-adv-x="328" 
d="M210 476l-162 -213v-8l162 -214l59 34l-135 185l135 183z" />
    <glyph glyph-name="guilsinglright" unicode="&#x203a;" horiz-adv-x="328" 
d="M117 41l162 214v8l-162 213l-58 -34l135 -184l-135 -184z" />
    <glyph glyph-name="trademark" unicode="&#x2122;" horiz-adv-x="690" 
d="M605 628v-236h43v308h-46l-109 -169l-110 169h-47v-308h44v236l109 -167h6zM169 658h99v42h-242v-42h99v-266h44v266z" />
    <glyph glyph-name="fraction" unicode="&#x2215;" horiz-adv-x="429" 
d="M399 758l-467 -856h76l467 856h-76z" />
    <glyph glyph-name="radical" unicode="&#x221a;" horiz-adv-x="998" 
d="M559 515l0.00195312 42c0 73.333 30 110 90 110c13.333 0 25.666 -1.16699 36.999 -3.5s23.666 -5.5 36.999 -9.5v67c-12 4.66699 -24.667 8 -38 10s-29 3 -47 3c-50 0 -88.333 -14.667 -115 -44s-40 -72.333 -40 -129v-45h-71v-67h71v-449h76v449h163v66h-163z
M191.002 515l0.000976562 42c0 73.333 30 110 90 110c13.333 0 25.666 -1.16699 36.999 -3.5s24 -5.5 38 -9.5v67c-12.667 4.66699 -25.5 8 -38.5 10s-28.5 3 -46.5 3c-50 0 -88.5 -14.667 -115.5 -44s-40.5 -72.333 -40.5 -129v-45h-71v-67h71v-449h77v449h163v66h-164z
M905.003 0v730h-77v-730h77z" />
    <glyph glyph-name="approxequal" unicode="&#x2248;" horiz-adv-x="998" 
d="M910 630v85h-87v-85h87zM559 515l0.00195312 42c0 73.333 30 110 90 110c13.333 0 25.666 -1.16699 36.999 -3.5s23.666 -5.5 36.999 -9.5v67c-12 4.66699 -24.667 8 -38 10s-29 3 -47 3c-50 0 -88.333 -14.667 -115 -44s-40 -72.333 -40 -129v-45h-71v-67h71v-449h76
v449h163v66h-163zM191.002 515l0.000976562 42c0 73.333 30 110 90 110c13.333 0 25.666 -1.16699 36.999 -3.5s24 -5.5 38 -9.5v67c-12.667 4.66699 -25.5 8 -38.5 10s-28.5 3 -46.5 3c-50 0 -88.5 -14.667 -115.5 -44s-40.5 -72.333 -40.5 -129v-45h-71v-67h71v-449h77
v449h163v66h-164zM905.003 0v517h-77v-517h77z" />
    <glyph glyph-name="apple" unicode="&#xf8ff;" horiz-adv-x="967" 
d="M868 0v750h-767v-750h767zM859 -104l-6 34h-1l-13 -26l-13 26h-1l-6 -34h6l3 20l10 -21h2l10 21l3 -20h6zM806 -87c0 4.66699 -1.50098 8.66699 -4.50098 12s-6.83301 5 -11.5 5c-5.33301 0 -9.66602 -1.66699 -12.999 -5s-5 -7.66602 -5 -12.999
c0 -4.66699 1.5 -8.66699 4.5 -12s7.16699 -5 12.5 -5s9.5 1.66699 12.5 5s4.5 7.66602 4.5 12.999zM757.999 -96c-4 -2.66699 -7.33301 -4 -10 -4c-8.66699 0 -13 4.33301 -13 13c0 3.33301 1.16699 6.16602 3.5 8.49902s5.16602 3.5 8.49902 3.5c4 0 7 -1 9 -3l2 5
c-3.33301 2 -7 3 -11 3c-5.33301 0 -9.66602 -1.66699 -12.999 -5s-5 -7.66602 -5 -12.999c0 -11.333 6 -17 18 -17c4.66699 0 8 1 10 3zM701.999 -71h-7l-9 -14l-11 15l-6 -1l14 -19v-14h6v14zM655.999 -104v33h-6v-13h-16v13h-6v-33h6v15h16v-15h6zM611.999 -82
c0 3.33301 -1.5 6.33203 -4.5 8.99902s-9.16699 3.33398 -18.5 2.00098v-33h6v10c11.333 0 17 4 17 12zM575.999 -104.001l-16 34h-2l-15 -34h6l3 8h14l4 -8h6zM533.999 -104.001l-10 13.001c4.66699 2 7 5.33301 7 10c0 3.33301 -1.5 6.16602 -4.5 8.49902
s-9.16699 2.83301 -18.5 1.5v-33h6v11h5l8 -11h7zM490.999 -101v14.999h-15v-5h9v-7c-2.66699 -1.33301 -4.66699 -2 -6 -2c-8.66699 0 -13 4 -13 12c0 8.66699 4 13 12 13c4.66699 0 8.33398 -1.33301 11.001 -4l2 5c-4 2.66699 -8 4 -12 4
c-5.33301 0 -9.83301 -1.66699 -13.5 -5s-5.5 -7.66602 -5.5 -12.999s1.66699 -9.5 5 -12.5s7.66602 -4.5 12.999 -4.5c4.66699 0 9 1.33301 13 4zM446.999 -87.001c0 4.66699 -1.50098 8.66699 -4.50098 12s-6.83301 5 -11.5 5c-5.33301 0 -9.66602 -1.66699 -12.999 -5
s-5 -7.66602 -5 -12.999c0 -4.66699 1.5 -8.66699 4.5 -12s7.16699 -5 12.5 -5s9.5 1.66699 12.5 5s4.5 7.66602 4.5 12.999zM399.998 -82.001c0 3.33301 -1.5 6.33203 -4.5 8.99902s-9.16699 3.33398 -18.5 2.00098v-33h6v10c11.333 0 17 4 17 12zM363.998 -71.002h-7
l-9 -14l-11 15l-6 -1l14 -19v-14h6v14zM322.998 -71.002h-30v-5h12v-28h6v28h12v5zM266.998 -71.002h-6l-7 -22l-10 23h-1l-10 -23l-7 23l-6 -1l12 -34h1l10 23l11 -23h1zM210.998 -71.002h-6l-7 -22l-10 23h-1l-10 -23l-7 23l-6 -1l12 -34h1l10 23l11 -23h1z
M154.998 -71.002h-6l-7 -22l-10 23h-1l-10 -23l-7 23l-6 -1l12 -34h1l10 23l11 -23h1zM715.998 -101.002c0 2.66699 -1.33301 4 -4 4s-4 -1.33301 -4 -4s1.33301 -4 4 -4s4 1.33301 4 4zM283.998 -101.002c0 2.66699 -1.33301 4 -4 4s-4 -1.33301 -4 -4s1.33301 -4 4 -4
s4 1.33301 4 4zM558.998 685.998h-2l-2.5 4.5c-1.66699 3 -4.16699 4.5 -7.5 4.5c-2 0 -3 -1 -3 -3v-23c0 -3.33301 0.666992 -5 2 -5h3v-2h-17v2h2c2 0 3 1.66699 3 5v23c0 2 -1 3 -3 3c-3.33301 0 -5.83301 -1.5 -7.5 -4.5l-2.5 -4.5h-2l0.5 4.5
c0.333008 3 0.5 5.5 0.5 7.5c2 -0.666992 8 -1 18 -1s15.667 0.333008 17 1c0.666992 -2 1 -4.66699 1 -8v-4zM503.998 661.998h-18v2h2c2 0 3 1.66699 3 5v10h-17v-10c0 -2.66699 0.833008 -4.16699 2.5 -4.5l2.5 -0.5v-2h-17v2l2.5 0.5
c1.66699 0.333008 2.5 1.83301 2.5 4.5v21c0 3.33301 -1 5 -3 5h-2v2h17v-1v-1h-3c-1.33301 0 -2 -1.66699 -2 -5v-9h17v9c0 3.33301 -1 5 -3 5h-2v1v1h18v-2h-3c-2 0 -3 -1.66699 -3 -5v-21c0 -3.33301 1 -5 3 -5h3v-2zM438.998 663.998l-0.000976562 -2h-30l-2 11l2 1
l2.5 -4.5c1.66699 -3 4.16699 -4.5 7.5 -4.5h4c2.66699 0 4 1 4 3v11h-4c-3.33301 0 -5.16602 -1 -5.49902 -3l-0.5 -3h-2v13h2l0.5 -2.5c0.333008 -1.66699 2.16602 -2.5 5.49902 -2.5h4v10c0 2 -1.33301 3 -4 3h-4c-3.33301 0 -5.66602 -1.33301 -6.99902 -4l-2 -4l-2 1
l2 10h29v-2h-3c-1.33301 0 -2 -1.66699 -2 -5v-21c0 -3.33301 0.666992 -5 2 -5h3zM826.997 617.998h-685v6h685v-6zM695.997 539.998c0 -8 -2.66699 -13.667 -8 -17s-10.333 -5 -15 -5c-9.33301 0 -17.833 3.66699 -25.5 11s-11.5 16.333 -11.5 27c0 8 2.66699 13.667 8 17
s10.333 5 15 5c9.33301 0 17.833 -3.83301 25.5 -11.5s11.5 -16.5 11.5 -26.5zM588.997 536.998c0 -5.33301 -1.99805 -9.83496 -5.99805 -13.502s-10.333 -5.5 -19 -5.5c-10.667 0 -16 4.33301 -16 13c0 6.66699 3 10 9 10c4.66699 0 7 -1.66699 7 -5s-1.33301 -5 -4 -5
c-1.33301 0 -2.33301 0.333008 -3 1s-1.33398 1 -2.00098 1c-2 0 -3 -1 -3 -3c0 -6 4 -9 12 -9s12 4.66699 12 14c0 6.66699 -2 11.667 -6 15c-3.33301 -3.33301 -7 -5 -11 -5c-5.33301 0 -8 2 -8 6c0 5.33301 5.33301 7.33301 16 6c1.33301 1.33301 2 3.33301 2 6
c0 8 -3.33301 12 -10 12c-4.66699 0 -7 -1.66699 -7 -5c0 -1.33301 0.5 -2.16602 1.5 -2.49902s1.5 -1.5 1.5 -3.5s-1.33301 -3 -4 -3c-3.33301 0 -5 2 -5 6c0 7.33301 4.33301 11 13 11c7.33301 0 12.666 -1.66699 15.999 -5s5 -6.66602 5 -9.99902c0 -4 -1.66699 -7 -5 -9
c9.33301 -3.33301 14 -9 14 -17zM294.999 536.996c0 -5.33301 -1.99805 -9.83496 -5.99805 -13.502s-10.333 -5.5 -19 -5.5c-10.667 0 -16 4.33301 -16 13c0 6.66699 3 10 9 10c4.66699 0 7 -1.66699 7 -5s-1.33301 -5 -4 -5c-1.33301 0 -2.33301 0.333008 -3 1
s-1.33398 1 -2.00098 1c-2 0 -3 -1 -3 -3c0 -6 4 -9 12 -9s12 4.66699 12 14c0 6.66699 -2 11.667 -6 15c-3.33301 -3.33301 -7 -5 -11 -5c-5.33301 0 -8 2 -8 6c0 5.33301 5.33301 7.33301 16 6c1.33301 1.33301 2 3.33301 2 6c0 8 -3.33301 12 -10 12
c-4.66699 0 -7 -1.66699 -7 -5c0 -1.33301 0.5 -2.16602 1.5 -2.49902s1.5 -1.5 1.5 -3.5s-1.33301 -3 -4 -3c-3.33301 0 -5 2 -5 6c0 7.33301 4.33301 11 13 11c7.33301 0 12.666 -1.66699 15.999 -5s5 -6.66602 5 -9.99902c0 -4 -1.66699 -7 -5 -9
c9.33301 -3.33301 14 -9 14 -17zM820.001 521.994l0.999023 -3h-29l-1 3l4.5 0.5c3 0.333008 3.83301 2.83301 2.5 7.5l-3 16h-24l3 -16c1.33301 -4.66699 3.33301 -7.16699 6 -7.5l4 -0.5l1 -3h-29l-1 3l4.5 0.5c3 0.333008 3.83301 2.83301 2.5 7.5l-7 35
c-1.33301 4.66699 -3.33301 7.16699 -6 7.5l-4 0.5l-1 3h29l1 -3l-4.5 -0.5c-3 -0.333008 -3.83301 -2.83301 -2.5 -7.5l3 -15h24l-3 15c-1.33301 4.66699 -3.16602 7.16699 -5.49902 7.5l-3.5 0.5l-1 3h28l1 -3l-4.5 -0.5c-3 -0.333008 -3.83301 -2.83301 -2.5 -7.5l7 -35
c1.33301 -4.66699 3.33301 -7.16699 6 -7.5zM498 518.994h-29l-1 3l4.5 0.5c3 0.333008 3.83301 2.83301 2.5 7.5l-3 17h-4c-4.66699 0 -7.16699 -1.83301 -7.5 -5.5l-0.5 -5.5h-3l-5 23h3l2.5 -4.5c1.66699 -3 4.83398 -4.5 9.50098 -4.5h4l-3 16
c-0.666992 4 -2.66699 6 -6 6h-4c-7.33301 0 -11.333 -2.16699 -12 -6.5l-1 -6.5h-4l0.5 7c0.333008 4.66699 0.166016 8 -0.500977 10h45l1 -3l-4.5 -0.5c-3 -0.333008 -3.83301 -2.83301 -2.5 -7.5l7 -35c1.33301 -4.66699 3.33301 -7.16699 6 -7.5l4 -0.5zM202 521.994
l1.00098 -3.00098h-29l-1 3l4.5 0.5c3 0.333008 3.83301 2.83301 2.5 7.5l-3 15c-2.66699 0 -4.33398 -1 -5.00098 -3l-12 -23h-19l-1 3l5 0.5c3.33301 0.333008 6.33301 2.83301 9 7.5l9 16c-5.33301 0.666992 -9.83301 2.33398 -13.5 5.00098s-5.5 6 -5.5 10
c0 10 6.66699 15 20 15h27l1 -3l-4.5 -0.5c-3 -0.333008 -3.83301 -2.83301 -2.5 -7.5l7 -35c1.33301 -4.66699 3.33301 -7.16699 6 -7.5zM400.001 520.993c0 -2 -1.33203 -3.00098 -3.99902 -3.00098c-6 0 -10 2.33301 -12 7c-5.33301 0 -8.66602 -2.16699 -9.99902 -6.5
s-6.33301 -6.5 -15 -6.5c-3.33301 0 -6.66602 1.16699 -9.99902 3.5s-5 5.16602 -5 8.49902c0 4.66699 1.66699 7 5 7s5 -1.66699 5 -5c0 -1.33301 -0.333008 -2.16602 -1 -2.49902s-1 -1.16602 -1 -2.49902c0 -2.66699 1.66699 -4 5 -4s6.16602 2.16699 8.49902 6.5
s7.16602 6.5 14.499 6.5c-4 4 -6.83301 8.5 -8.5 13.5s-2.83398 9.83301 -3.50098 14.5s-1.5 8.66699 -2.5 12s-3.16699 5 -6.5 5s-5 -2 -5 -6s-1.33301 -6 -4 -6c-3.33301 0 -5 1.66699 -5 5c0 2 1.33301 4.16699 4 6.5s5.66699 3.5 9 3.5c8 0 13.5 -2.16699 16.5 -6.5
s5 -9.33301 6 -15s1.66699 -11 2 -16s1.83301 -8.5 4.5 -10.5c4.66699 -0.666992 8 -2 10 -4s3 -3.66699 3 -5zM827.002 474.992h-685v6h685v-6zM827.002 377.992h-36v28h-11v-65h14v-33h-81v33h14v65h-11v-28h-36v62h147v-62zM648.002 405.992h-14l-37 -45v-20h15v-33h-81
v33h14v19l-37 46h-12v34h62v-34h-10l15 -23l15 23h-11v34h81v-34zM458.002 307.992h-81v33h15v19h-30c-14.667 0 -26.167 3.83301 -34.5 11.5s-12.5 17.167 -12.5 28.5s4.16699 20.833 12.5 28.5s19.833 11.5 34.5 11.5h96v-34h-14v-65h14v-33zM283.002 307.992h-141v61h41
v-28h33v21h-24v24h24v20h-33v-28h-41v62h141v-34h-14v-65h14v-33zM827.002 270.992h-685v6h685v-6zM728.002 191.992c0 -8 -2.66699 -13.667 -8 -17s-10.333 -5 -15 -5c-9.33301 0 -17.833 3.66699 -25.5 11s-11.5 16.333 -11.5 27c0 8 2.66699 13.667 8 17s10.333 5 15 5
c9.33301 0 17.833 -3.83301 25.5 -11.5s11.5 -16.5 11.5 -26.5zM203.002 216.992l-1.99609 -2.00293l-4.5 4.5c-1.66699 1.66699 -4.16699 2.5 -7.5 2.5c-6 0 -9 -4.33301 -9 -13c0 -5.33301 1.66699 -13.666 5 -24.999c1.33301 -5.33301 3.33301 -8.16602 6 -8.49902
l4 -0.5l1 -4h-28l-1 4l4.5 1c3 0.666992 3.5 5.33398 1.5 14.001c-2 8 -4.83301 15.5 -8.5 22.5s-8.83398 10.5 -15.501 10.5c-5.33301 0 -8 -2 -8 -6l-3 1c0 4 1.16699 7 3.5 9s5.16602 3 8.49902 3c5.33301 0 9.66602 -2.16699 12.999 -6.5s6 -9.83301 8 -16.5
c-0.666992 15.333 4 23 14 23c5.33301 0 9.16602 -1.33301 11.499 -4s4.5 -5.66699 6.5 -9zM823.006 170.989h-29l-1 3l4.5 0.5c3 0.333008 3.83301 2.83301 2.5 7.5l-3 17h-4c-4.66699 0 -7.16699 -1.83301 -7.5 -5.5l-0.5 -5.5h-3l-5 23h3l2.5 -4.5
c1.66699 -3 4.83398 -4.5 9.50098 -4.5h4l-3 16c-0.666992 4 -2.66699 6 -6 6h-4c-7.33301 0 -11.333 -2.16699 -12 -6.5l-1 -6.5h-4l0.5 7c0.333008 4.66699 0.166016 8 -0.500977 10h45l1 -3l-4.5 -0.5c-3 -0.333008 -3.83301 -2.83301 -2.5 -7.5l7 -35
c1.33301 -4.66699 3.33301 -7.16699 6 -7.5l4 -0.5zM621.006 224.989l-5 -0.5c-3.33301 -0.333008 -4.33301 -3.16602 -3 -8.49902l5 -22c1.33301 -5.33301 1.33301 -10.666 0 -15.999s-7.66602 -8 -18.999 -8c-9.33301 0 -16 3.16699 -20 9.5s-6.66699 12.166 -8 17.499
l-4 19c-1.33301 5.33301 -3.5 8.16602 -6.5 8.49902l-4.5 0.5l-1 3h24v-3l-4.5 -0.5c-3 -0.333008 -3.83301 -3.16602 -2.5 -8.49902l4 -19c1.33301 -6 3.66602 -11.167 6.99902 -15.5s7.66602 -6.5 12.999 -6.5c7.33301 0 11.333 1.66699 12 5
s0.333984 8.33301 -0.999023 15l-5 21c-1.33301 5.33301 -3.33301 8.16602 -6 8.49902l-4 0.5l-1 3h29zM522.006 173.989l0.999023 -3.00098h-21l-1 3l4 1c2.66699 0.666992 3.33398 3.66699 2.00098 9l-6 30l-30 -44l-3 1l-8 45
c-1.33301 4.66699 -3.16602 7.33398 -5.49902 8.00098l-3.5 1l-1 3h21l1 -3l-4.5 -1c-3 -0.666992 -3.83301 -3.33398 -2.5 -8.00098l5 -30l29 42h14l1 -3l-5 -0.5c-3.33301 -0.333008 -4.33301 -3.16602 -3 -8.49902l7 -32c1.33301 -5.33301 3.16602 -8.33301 5.49902 -9z
M414.005 170.988l-32 -0.000976562c-8.66699 0 -16.667 3.16699 -24 9.5s-11 14.833 -11 25.5c0 7.33301 2.66699 12.833 8 16.5s11 5.5 17 5.5h30l1 -3c-7.33301 -0.666992 -10 -4 -8 -10l8 -31c1.33301 -5.33301 3.33301 -8.16602 6 -8.49902l4 -0.5zM306.005 173.987
l1.00098 -3.00098h-29l-1 3l4.5 0.5c3 0.333008 3.83301 2.83301 2.5 7.5l-3 15c-2.66699 0 -4.33398 -1 -5.00098 -3l-12 -23h-19l-1 3l5 0.5c3.33301 0.333008 6.33301 2.83301 9 7.5l9 16c-5.33301 0.666992 -9.83301 2.33398 -13.5 5.00098s-5.5 6 -5.5 10
c0 10 6.66699 15 20 15h27l1 -3l-4.5 -0.5c-3 -0.333008 -3.83301 -2.83301 -2.5 -7.5l7 -35c1.33301 -4.66699 3.33301 -7.16699 6 -7.5zM827.006 126.986h-685v6h685v-6zM694.006 45.9863l-14 -0.000976562v2l2.5 1c1.66699 0.666992 2.5 2 2.5 4v20l-25 -28h-3v28
c0 2.66699 -1 4.33398 -3 5.00098l-3 1v2h15v-2l-3 -1c-2 -0.666992 -3 -2.33398 -3 -5.00098v-18l24 26h10v-2l-3 -2c-2 -1.33301 -3 -2.66602 -3 -3.99902v-20c0 -2 1 -3.33301 3 -4l3 -1v-2zM633.006 47.9854l-0.000976562 -2h-30l-2 11l2 1l2.5 -4.5
c1.66699 -3 4.16699 -4.5 7.5 -4.5h4c2.66699 0 4 1 4 3v11h-4c-3.33301 0 -5.16602 -1 -5.49902 -3l-0.5 -3h-2v13h2l0.5 -2.5c0.333008 -1.66699 2.16602 -2.5 5.49902 -2.5h4v10c0 2 -1.33301 3 -4 3h-4c-3.33301 0 -5.66602 -1.33301 -6.99902 -4l-2 -4l-2 1l2 10h29v-2
h-3c-1.33301 0 -2 -1.66699 -2 -5v-21c0 -3.33301 0.666992 -5 2 -5h3zM583.005 80.9854l-0.00195312 -1.99902l-2.5 -0.5c-1.66699 -0.333008 -3.16699 -2.16602 -4.5 -5.49902l-12 -27h-1l-9 16l-8 -16c0 -0.666992 -0.166992 -0.833984 -0.5 -0.500977l-0.5 0.5h-1
l-13 27c-1.33301 2.66699 -2.66602 4.33398 -3.99902 5.00098l-2 1v2h13v-2l-2 -1c-1.33301 -0.666992 -1.33301 -2.33398 0 -5.00098l8 -18l7 13l-3 5c-2 3.33301 -3.66699 5.16602 -5 5.49902l-2 0.5l-1 2h26v-2l-2 -1.5c-1.33301 -1 -2.66602 -2.5 -3.99902 -4.5l-4 -8
l5 -10l9 19c1.33301 2 1.33301 3.33301 0 4l-2 1v2h15zM480.003 78.9863l-2.49902 -0.5c-1.66699 -0.333008 -3.16699 -1.83301 -4.5 -4.5l-8 -12v-8c0 -3.33301 0.833008 -5.16602 2.5 -5.49902l2.5 -0.5v-2h-17v2l2.5 0.5c1.66699 0.333008 2.5 2.16602 2.5 5.49902v8
l-8 12c-1.33301 2.66699 -3 4.16699 -5 4.5l-3 0.5v2h15v-2l-2.5 -0.5c-1.66699 -0.333008 -1.83398 -1.83301 -0.500977 -4.5l6 -9l6 9c1.33301 2.66699 1.5 4.16699 0.5 4.5l-1.5 0.5v2h15v-2zM425.004 63.9863c0 -5.33301 -1.66699 -9.83301 -5 -13.5
s-8.33301 -5.5 -15 -5.5s-11.667 1.83301 -15 5.5s-5 8.16699 -5 13.5s1.66699 9.66602 5 12.999s8.33301 5 15 5s11.667 -1.66699 15 -5s5 -7.66602 5 -12.999zM364.004 45.9863l-17 -0.000976562v2l2.5 0.5c1.66699 0.333008 2.5 1.83301 2.5 4.5v9
c-2.66699 0 -5 -1.33301 -7 -4l-7 -12h-11v2l2.5 0.5c1.66699 0.333008 3.5 1.83301 5.5 4.5l7 10c-6 2.66699 -9 5.66699 -9 9c0 6 4.33301 9 13 9h18v-2l-2.5 -0.5c-1.66699 -0.333008 -2.5 -2.16602 -2.5 -5.49902v-20c0 -2.66699 0.833008 -4.16699 2.5 -4.5l2.5 -0.5
v-2zM309.004 45.9854l-18 0.00195312v2l3 0.5c2 0.333008 3 2.16602 3 5.49902v9c-1.33301 0 -2.66602 -0.666992 -3.99902 -2l-8 -8c-2 -2.66699 -2.16699 -4.16699 -0.5 -4.5l2.5 -0.5v-2h-17v2l2.5 1.5c1.66699 1 3.16699 2.16699 4.5 3.5l13 13l-10 9
c-1.33301 1.33301 -3 2.33301 -5 3l-3 1v2h14v-2l-1.5 -1c-1 -0.666992 -0.833008 -1.66699 0.5 -3l8 -8c1.33301 -1.33301 2.66602 -2 3.99902 -2v9c0 2.66699 -1 4.16699 -3 4.5l-3 0.5v2h18v-2l-3 -0.5c-2 -0.333008 -3 -1.83301 -3 -4.5v-20
c0 -2.66699 1 -4.33398 3 -5.00098l3 -1v-2zM606.004 -83.0127c0 -4 -3.66699 -6.00098 -11 -6.00098v13c7.33301 0.666992 11 -1.66602 11 -6.99902zM525.004 -82.0137c0 -4.66699 -3.66699 -6.66699 -11 -6v12c7.33301 1.33301 11 -0.666992 11 -6zM394.004 -83.0137
c0 -4 -3.66699 -6.00098 -11 -6.00098v13c7.33301 0.666992 11 -1.66602 11 -6.99902zM564.004 -92.0146h-10l5 12zM800.004 -88.0146c0 -8 -3.66699 -12 -11 -12s-11 4.33301 -11 13c0 8 3.66699 12 11 12s11 -4.33301 11 -13zM441.004 -88.0146c0 -8 -3.66699 -12 -11 -12
s-11 4.33301 -11 13c0 8 3.66699 12 11 12s11 -4.33301 11 -13zM176.004 547.985l-2.99902 18.999c-0.666992 3.33301 -3.66699 5 -9 5s-8 -3 -8 -9c0 -3.33301 1.16699 -6.66602 3.5 -9.99902s6.16602 -5 11.499 -5h5zM566.005 552.984c-1.33301 0.666992 -3.66699 1 -7 1
c-2.66699 0 -4 -1 -4 -3c0 -1.33301 1.33301 -2 4 -2s5 1.33301 7 4zM272.004 552.984c-1.33301 0.666992 -3.66699 1 -7 1c-2.66699 0 -4 -1 -4 -3c0 -1.33301 1.33301 -2 4 -2s5 1.33301 7 4zM684.003 534.984c0 10.667 -2.66699 19.833 -8 27.5s-11 11.5 -17 11.5
c-7.33301 0 -11 -4.66699 -11 -14c0 -10 2.66699 -18.833 8 -26.5s11 -11.5 17 -11.5c7.33301 0 11 4.33301 11 13zM392.003 383.983v22h-11c-8.66699 0 -13 -3.66699 -13 -11s4.33301 -11 13 -11h11zM280.003 199.983l-2.99902 18.999c-0.666992 3.33301 -3.66699 5 -9 5
s-8 -3 -8 -9c0 -3.33301 1.16699 -6.66602 3.5 -9.99902s6.16602 -5 11.499 -5h5zM716.004 186.982c0 10.667 -2.66699 19.833 -8 27.5s-11 11.5 -17 11.5c-7.33301 0 -11 -4.66699 -11 -14c0 -10 2.66699 -18.833 8 -26.5s11 -11.5 17 -11.5c7.33301 0 11 4.33301 11 13z
M393.004 181.981l-9.00098 35.001c-1.33301 3.33301 -2.16602 5.16602 -2.49902 5.49902s-1.5 0.833008 -3.5 1.5h-6c-9.33301 0 -14 -5.66699 -14 -17c0 -8 2.5 -15.333 7.5 -22s11.167 -10 18.5 -10h5c2.66699 0 4 2.33301 4 7zM553.003 78.9824
c-3.33301 0 -3.33301 -3 0 -9c2.66699 6 2.66699 9 0 9zM352.003 63.9824v10c0 2.66699 -1.33301 4 -4 4c-4.66699 0 -7 -2 -7 -6c0 -5.33301 2.66699 -8 8 -8h3zM417.003 63.9824c0 10.667 -4.00098 16 -12.001 16s-12 -5.33301 -12 -16c0 -4.66699 1 -8.66699 3 -12
s5 -5 9 -5c4.66699 0 7.83398 1.66699 9.50098 5s2.5 7.33301 2.5 12z" />
    <glyph glyph-name="fi" unicode="&#xfb01;" horiz-adv-x="631" 
d="M543 630v85h-88v-85h88zM191 515l0.000976562 42c0 73.333 30 110 90 110c13.333 0 25.666 -1.16699 36.999 -3.5s24 -5.5 38 -9.5v67c-12.667 4.66699 -25.5 8 -38.5 10s-28.5 3 -46.5 3c-50 0 -88.5 -14.667 -115.5 -44s-40.5 -72.333 -40.5 -129v-45h-71v-67h71v-449
h77v449h163v66h-164zM537.001 0v517h-76v-517h76z" />
    <glyph glyph-name="fl" unicode="&#xfb02;" horiz-adv-x="631" 
d="M191 515l0.000976562 42c0 73.333 30 110 90 110c13.333 0 25.666 -1.16699 36.999 -3.5s24 -5.5 38 -9.5v67c-12.667 4.66699 -25.5 8 -38.5 10s-28.5 3 -46.5 3c-50 0 -88.5 -14.667 -115.5 -44s-40.5 -72.333 -40.5 -129v-45h-71v-67h71v-449h77v449h163v66h-164z
M537.001 0v730h-76v-730h76z" />
    <glyph glyph-name="NUL" horiz-adv-x="0" 
 />
    <glyph glyph-name="nonmarkingreturn" horiz-adv-x="300" 
 />
    </font>
</defs>
</svg>
